<svg width="96" height="96" viewBox="0 0 96 96" fill="none" xmlns="http://www.w3.org/2000/svg">
<rect width="95.9998" height="96" fill="#F7F7F7"/>
<path d="M82.2108 41.3773C81.8357 42.2442 81.41 43.0883 80.9361 43.9053C80.6381 44.3964 80.2166 44.8008 79.7135 45.0781C79.2105 45.3555 78.6436 45.4961 78.0693 45.4859H43.9887C43.7527 45.4842 43.5195 45.4334 43.3042 45.3367C43.0888 45.24 42.896 45.0996 42.7378 44.9243C42.5797 44.749 42.4598 44.5428 42.3857 44.3186C42.3116 44.0945 42.285 43.8574 42.3075 43.6224C42.363 42.9877 42.4185 42.2673 42.4678 41.501C42.4981 40.9969 42.7191 40.5232 43.0859 40.1761C43.4528 39.8289 43.9379 39.6344 44.4429 39.6318H81.0078C81.218 39.6271 81.426 39.6748 81.6132 39.7705C81.8004 39.8662 81.9609 40.0069 82.0802 40.18C82.1995 40.3531 82.2739 40.5531 82.2967 40.7621C82.3195 40.9711 82.29 41.1825 82.2108 41.3773ZM14.9913 39.6318C14.7812 39.6272 14.5731 39.6749 14.386 39.7706C14.1988 39.8663 14.0384 40.007 13.9191 40.1801C13.7998 40.3532 13.7254 40.5532 13.7027 40.7622C13.6799 40.9712 13.7094 41.1826 13.7886 41.3773C14.1637 42.2442 14.5894 43.0883 15.0634 43.9053C15.3613 44.3964 15.7828 44.8008 16.2858 45.0781C16.7889 45.3555 17.3558 45.4961 17.9301 45.4859H33.7663C34.2792 45.4887 34.7745 45.2988 35.1542 44.9538C35.5339 44.6089 35.7703 44.1341 35.8167 43.6232C35.8652 43.0502 35.915 42.3582 35.9597 41.5075C35.9714 41.2648 35.9335 41.0222 35.8484 40.7946C35.7633 40.567 35.6328 40.3591 35.4647 40.1836C35.2967 40.0081 35.0946 39.8686 34.8709 39.7737C34.6472 39.6788 34.4065 39.6304 34.1635 39.6316L14.9913 39.6318ZM34.4217 52.4283C34.4755 52.2098 34.4786 51.9819 34.4308 51.762C34.383 51.5421 34.2855 51.3361 34.1458 51.1597C34.006 50.9833 33.8278 50.8412 33.6247 50.7443C33.4217 50.6474 33.1991 50.5983 32.9741 50.6007H17.8716C17.2968 50.5909 16.7296 50.7326 16.227 51.0117C15.7244 51.2907 15.3041 51.6972 15.0084 52.1902C10.5616 59.9481 11.263 68.3365 15.6752 74.7181C15.8191 74.9198 16.0027 75.0901 16.2147 75.2184C16.4267 75.3467 16.6627 75.4303 16.9082 75.4642C17.1537 75.498 17.4035 75.4814 17.6423 75.4152C17.8812 75.3491 18.1039 75.2349 18.297 75.0796C26.4295 68.7399 31.9247 62.1641 34.4217 52.4283ZM56.0004 61.9469H39.2231C38.6567 61.9545 38.1022 62.11 37.6145 62.3979C37.1267 62.6857 36.7227 63.0961 36.4423 63.5882C35.937 64.4534 35.4372 65.2572 35.2988 65.4535C31.748 70.657 27.2542 75.1496 22.0498 78.699C21.8748 78.8179 21.7318 78.9779 21.6333 79.1651C21.5349 79.3523 21.484 79.5608 21.4852 79.7723C21.4863 79.9838 21.5396 80.1918 21.6401 80.3778C21.7407 80.5639 21.8855 80.7224 22.0618 80.8392C29.2398 85.3521 38.708 85.3245 46.9779 78.8534C47.27 78.6256 47.6299 78.5019 48.0003 78.5021C48.3708 78.5022 48.7305 78.6262 49.0224 78.8542C52.523 81.696 56.7759 83.4559 61.2609 83.9185C61.504 83.9349 61.7478 83.9004 61.9769 83.8172C62.2059 83.7341 62.415 83.6041 62.591 83.4356C62.767 83.2671 62.9059 83.0637 62.9988 82.8385C63.0918 82.6133 63.1368 82.3712 63.131 82.1276C63.1174 71.2768 63.3783 65.8323 62.0487 63.6156C61.1692 62.149 58.622 61.9469 56.0004 61.9469ZM80.991 52.1884C80.6949 51.6959 80.2745 51.2899 79.7719 51.0112C79.2693 50.7325 78.7022 50.5909 78.1276 50.6007H43.1695C42.6392 50.6076 42.1263 50.7914 41.7123 51.123C41.2982 51.4546 41.0068 51.9149 40.8842 52.431C40.7153 53.1093 40.5201 53.8291 40.3059 54.5525C40.2428 54.7578 40.2285 54.9749 40.2641 55.1867C40.2997 55.3985 40.3842 55.599 40.511 55.7723C40.6379 55.9457 40.8034 56.087 40.9944 56.185C41.1855 56.2831 41.3968 56.3352 41.6116 56.3371H56.0004C58.1675 56.2579 60.3325 56.5442 62.4046 57.1842C68.8398 59.4516 68.7458 66.2692 68.7458 73.5097V81.3123C68.7405 81.5264 68.7876 81.7387 68.8831 81.9305C68.9786 82.1223 69.1196 82.2878 69.2937 82.4127C69.4678 82.5375 69.6698 82.6179 69.8821 82.6468C70.0944 82.6757 70.3105 82.6523 70.5117 82.5786C81.4214 78.267 88.2581 64.8378 80.991 52.1884ZM13.9361 34.5171H27.6344C28.1881 34.5104 28.7278 34.3428 29.1879 34.0347C29.648 33.7265 30.0085 33.2912 30.2254 32.7818C32.9986 26.4203 37.1664 20.7636 42.4206 16.2301C42.5802 16.099 42.7047 15.9303 42.7827 15.7391C42.8608 15.5479 42.89 15.3403 42.8678 15.135C42.8455 14.9297 42.7725 14.7332 42.6553 14.5631C42.538 14.3931 42.3803 14.255 42.1964 14.1612C27.4133 7.0829 12.217 18.4798 12.0034 32.6404C12.0052 32.8911 12.0568 33.1389 12.1552 33.3695C12.2537 33.6 12.397 33.8087 12.5769 33.9834C12.7567 34.158 12.9695 34.2951 13.2028 34.3868C13.4362 34.4784 13.6855 34.5227 13.9361 34.5171ZM37.3499 34.5171H42.6245C43.1886 34.5085 43.7402 34.3504 44.2231 34.0589C44.706 33.7675 45.103 33.3531 45.3735 32.8581C50.3089 24.0878 59.0938 17.2365 68.0442 13.7912C68.1679 13.7486 68.275 13.6678 68.3498 13.5605C68.4246 13.4531 68.4633 13.3247 68.4603 13.1938C68.4573 13.063 68.4128 12.9365 68.3332 12.8326C68.2535 12.7288 68.1429 12.6529 68.0174 12.6161C61.5645 10.9809 54.3428 12.5446 48.0089 17.9773C48.0022 17.983 47.9926 17.9791 47.9859 17.9734C47.9815 17.97 47.976 17.9683 47.9705 17.9686C47.965 17.9688 47.9598 17.971 47.9557 17.9746C42.9556 21.9447 38.9431 27.0191 36.233 32.7999C36.1482 32.9857 36.1118 33.19 36.127 33.3936C36.1422 33.5973 36.2085 33.7939 36.3199 33.9651C36.4312 34.1364 36.584 34.2767 36.764 34.3732C36.944 34.4697 37.1456 34.5192 37.3499 34.5171ZM51.8513 32.9389C51.7501 33.0945 51.6932 33.2747 51.6867 33.4602C51.6802 33.6457 51.7244 33.8294 51.8145 33.9916C51.9045 34.1539 52.0371 34.2885 52.1979 34.3811C52.3588 34.4737 52.5417 34.5207 52.7273 34.5171H82.0631C82.3138 34.5226 82.5631 34.4783 82.7965 34.3866C83.0299 34.2949 83.2428 34.1578 83.4227 33.9831C83.6026 33.8084 83.746 33.5997 83.8446 33.3691C83.9431 33.1386 83.9949 32.8907 83.9968 32.64C83.9357 29.768 83.2824 26.9396 82.0778 24.3318C80.8732 21.724 79.1431 19.393 76.9961 17.4847C76.5623 17.0956 76.0357 16.8248 75.4669 16.6983C74.8981 16.5719 74.3064 16.594 73.7486 16.7626C67.1704 18.9088 61.2011 22.5975 56.339 27.5208C54.6761 29.1818 53.1736 30.9958 51.8513 32.9389Z" fill="#56C1BB"/>
</svg>
