<svg fill="none" height="44" viewBox="0 0 150 44" width="150" xmlns="http://www.w3.org/2000/svg" xmlns:xlink="http://www.w3.org/1999/xlink"><clipPath id="a"><path d="m0 0h150v44h-150z"/></clipPath><g clip-path="url(#a)" fill="#f7f7f7"><path d="m64.3105 9.10691c.5118.00871 1.0235-.01799 1.5316-.07995v1.22164c-.5084-.0565-1.0202-.0786-1.5316-.0662h-1.7314v.5708c-.0046.2623.0132.5244.0532.7837h-1.2521c.0281-.2558.0415-.5129.0402-.7702v-.5842h-3.1433v.5572c-.0024.2663.011.5324.0402.797h-1.2521c.0391-.2548.0569-.5124.0533-.7702v-.5841h-1.6248c-.507-.0125-1.0143.0096-1.5182.0661v-1.22161c.5037.06079 1.0109.08752 1.5182.07999h1.6248v-.27901c-.0007-.28895-.023-.57743-.0667-.86308h1.292c-.0436.28567-.0659.57414-.0667.86308v.27901h3.1433v-.27901c.0048-.28914-.0175-.57808-.0667-.86308h1.292c-.0437.28565-.0659.57413-.0666.86308v.27901zm-3.9555 3.22649v-.5976c-.0088-.2804.0136-.5609.0666-.8364h-1.265c.0476.2762.0699.5562.0666.8364v.5976h-3.6759c-.5118.0085-1.0235-.018-1.5316-.0795v1.2345c.509-.0482 1.0202-.0702 1.5316-.066h2.1309c-.0399.5841-.0532.7436-.08 1.0093-.124 1.1024-.5841 2.1405-1.3184 2.974-.6613.7347-1.4872 1.3035-2.4105 1.6602.3586.2876.6611.6386.8922 1.0355.4388-.2203.8577-.478 1.2518-.7703.6454-.4907 1.2114-1.0772 1.6783-1.7391.3826-.5617.6621-1.1867.8256-1.8458h4.3284c-.0142.9096-.1761 1.8109-.4794 2.6689-.1065.2257-.293.3052-.7191.3052-.7069-.0097-1.4113-.0853-2.104-.2257.1623.4024.2568.8287.2795 1.2619.8922.0661 1.2253.0794 1.6913.0794 1.3719 0 1.8514-.2656 2.1309-1.1816.3013-1.165.4843-2.3573.546-3.5588.0082-.1558.026-.3109.0533-.4646-.4512.0455-.9048.0633-1.3583.0534h-4.1421c.0398-.239.0398-.279.1064-.7837.0134-.1062.0399-.2657.0667-.478h5.3672c.5157-.0048 1.0313.0173 1.5447.0661v-1.2345c-.5125.0618-1.0286.0883-1.5447.0794zm11.3624 5.6563c-1.1886.6388-2.5013 1.0147-3.8487 1.1022.2886.3005.5188.6517.6789 1.0359 1.4598-.2004 2.8615-.7024 4.1155-1.4739zm3.3296.6642c1.3008.764 2.74 1.2649 4.2351 1.4739.1977-.3787.4296-.7386.6927-1.0754-1.4113-.0827-2.7921-.4439-4.0623-1.0627zm-5.567-2.0053v-2.6556c0-.6242-.0134-.9955-.0399-1.394.3195.0267.7326.0401 1.3583.0401h6.2462c.7325 0 .9987-.0134 1.3582-.0401-.0264.3719-.0398.7437-.0398 1.4473v2.5361c-.0084.4655.0094.931.0532 1.3945-.2794-.0267-.839-.04-1.4516-.04h-6.0998c-.5992 0-1.1451.0133-1.4382.04.0456-.4412.0635-.8849.0534-1.3283zm1.1451-2.4961h6.5795v-.6375h-6.5791zm0 1.4473h6.5795v-.6508h-6.5791zm0 1.4473h6.5795v-.6501h-6.5791zm4.0355-6.0148v-1.4607c.0046-.35924-.0132-.71844-.0532-1.07548.3802.04085.7626.05851 1.1451.05285h2.5571c.3824.00601.7648-.01165 1.1451-.05285-.0396.36601-.0574.73407-.0533 1.10218v1.3672c-.0042.3506.0136.7011.0533 1.0494-.3329-.0267-.6924-.0401-1.1055-.0401h-2.6237c-.4393 0-.759.0134-1.1185.0401.0389-.3261.0567-.6543.0536-.9826zm1.1319 0h2.4774v-1.48738h-2.4774zm-8.0572.9159c.3228.2234.5987.5076.8122.8365 1.4784-.7831 2.2641-1.6596 2.6769-2.94747h1.5717c-.0665 1.26117-.1198 1.39397-.6527 1.39397-.2397 0-.6126-.0266-1.1054-.0795.1375.3008.2145.6256.2265.956.4393.0267.6794.04.9857.04.7325 0 1.0653-.1067 1.2651-.4119.2129-.3056.2794-.6769.3729-1.89857.0131-.17284.0131-.30565.0265-.38513.0134-.15951.0268-.26571.0268-.30591.0134-.19901.0134-.19898.0265-.31845-.3328.02666-.6127.03998-1.052.03998h-1.4784c.0134-.1328.0532-.45183.0532-.47849.0134-.22566.0134-.22567.0268-.35852l.0265-.17228h-1.2253c.0326.16615.046.33544.0401.50463-.005.16932-.0229.33804-.0535.50466h-1.0254c-.4052.01168-.8106-.01062-1.212-.06665v1.08877c.3713-.04306.7451-.06069 1.1188-.05281h.8789c-.3594.91617-1.012 1.50037-2.3304 2.11117zm23.0558 1.3944c.4712.0111.9426-.0067 1.4116-.0533-.0433.5079-.061 1.0177-.053 1.5274v3.9033c.0208.177-.0037.3563-.0713.5213-.0675.1649-.1759.3101-.315.4219-.2531.1723-.6528.2256-1.6383.2256-.3462 0-.6127 0-1.1985-.0266-.0303-.3708-.1063-.7366-.2264-1.0889.5329.0534 1.2387.0929 1.678.0929.4532 0 .5859-.0795.5859-.3718v-.717h-6.1929v.7436c-.0073.497.0195.994.0803 1.4874h-1.3318c.0576-.5336.0797-1.0704.0663-1.6068v-3.6516c.0114-.4875-.0065-.9753-.0535-1.4607.4398.04.8791.0533 1.4784.0533zm.1728 2.669h-6.1927v.8098h6.1928zm0-1.7262h-6.1927v.7702h6.1928zm1.9846-4.78035v1.95195c-.0042.4256.0137.8512.0535 1.275-.4113-.0445-.825-.0624-1.2386-.0534h-7.7913c-.4091-.0091-.8185.0088-1.2253.0534.0401-.478.053-.7571.053-1.275v-1.95195c.0068-.4255-.0109-.85102-.053-1.27449.4558.04648.9138.06855 1.3719.06615h7.5112c.4582.00203.9162-.02005 1.372-.06615-.0436.42333-.0616.84901-.0534 1.27449zm-5.7535 1.43445h-3.2495v.8493h3.2495zm0-1.7396h-3.2495v.8231h3.2495zm4.5951 1.7396h-3.4763v.8493h3.4763zm0-1.7396h-3.4763v.8231h3.4763zm14.9579 3.9967c.437.0188.874-.0078 1.305-.0794v1.1149c-.432-.0546-.869-.0767-1.305-.0661h-3.582c-.121.2689-.273.5229-.453.7569h3.796c.404.0115.809-.0063 1.212-.0533-.027.1989-.027.279-.053.7702-.107 2.0715-.214 3.0275-.427 3.5983-.186.558-.532.7303-1.411.7303-.379.0013-.757-.0208-1.133-.0661-.04-.4034-.13-.8003-.266-1.1822.414.1054.839.159 1.266.1595.319 0 .439-.0528.506-.2123.229-.9072.341-1.8397.333-2.7751h-.52c-.346.9191-.881 1.7557-1.571 2.4561-.632.7034-1.386 1.288-2.225 1.7262-.205-.3039-.467-.5654-.772-.7698.848-.3864 1.619-.9216 2.277-1.5801.528-.5277.953-1.1492 1.252-1.8325h-.906c-.811 1.2542-1.954 2.2606-3.303 2.908-.165-.3001-.381-.5696-.638-.797.676-.266 1.305-.6381 1.864-1.1022.364-.2912.686-.6307.959-1.0088h-1.065c-.425.4022-.904.742-1.425 1.0088-.14-.2828-.335-.5352-.5727-.7429v2.536c.025.3056-.0449.6114-.2001.8761-.1863.2389-.4794.3323-1.1451.3323-.2932 0-.4666 0-.786-.0267-.0031-.4013-.0846-.798-.2397-1.1683.31.0733.6269.1133.9454.1195.3069 0 .3729-.0667.3729-.359v-2.8413h-1.3584c-.1199 2.2571-.3463 3.3593-.8787 4.4214-.2679-.341-.5716-.6525-.9058-.9293.6528-1.4206.8256-3.1603.8256-8.0997.026-.9211.0038-1.8429-.0663-2.7617.3893.03912.7805.05678 1.1717.05284h1.2521c.3515.00842.7031-.00926 1.052-.05284-.0267.34513-.0396.55747-.0396 1.2083v6.6258c.4607-.2056.8907-.4736 1.2787-.7965.375-.3109.684-.695.905-1.1288h-.586c-.405-.0026-.81.0195-1.212.0662v-1.1022c.411.0554.825.0778 1.239.0667zm-7.9106-.7169h-1.2916l-.0268 2.0848h1.3184zm0-3.09419h-1.2782v2.04479h1.2782zm2.1046 1.93859v-1.81905c.008-.39906-.01-.7982-.054-1.19497.438.05419.878.07647 1.319.06665h3.436c.472.01134.943-.01094 1.412-.06665-.044.42345-.062.84927-.054 1.27495v1.73907c-.007.4124.01.8249.054 1.235-.32-.0267-.666-.04-1.212-.04h-3.729c-.41-.0079-.819.0099-1.226.0534.043-.4147.061-.8315.054-1.2484zm1.105-1.3011h3.849v-.74361h-3.849zm0 1.6202h3.849v-.7437h-3.849zm16.131.2256.745-.9826c-.746-.808-1.597-1.5135-2.53-2.09814l-.719.88983c.937.60581 1.779 1.34381 2.504 2.19091zm-.44 3.2667.693-.9826c-.747-.7714-1.578-1.4572-2.478-2.0448l-.732.8765c.935.5976 1.782 1.3215 2.517 2.1509zm-8.004 1.235c.291.3292.52.7068.679 1.1155.818-.9872 1.425-2.1304 1.785-3.3596-.053.9298-.08 1.4873-.08 1.8725v2.5227c.005.5323-.022 1.0644-.08 1.5935h1.332c-.066-.5284-.093-1.0611-.08-1.5935v-2.8945c-.026-.9165-.053-1.5402-.067-1.8592.313.726.771 1.3811 1.346 1.9253.15-.3852.361-.7438.626-1.0621-.789-.5655-1.429-1.3126-1.865-2.1777h.746c.33-.0075.66.0147.985.0662v-1.195c-.321.0552-.646.0776-.972.0667h-.799v-1.8058c.567-.14149 1.124-.32348 1.665-.54461.075-.04595.155-.08167.24-.10619l-.707-1.02262c-.798.5313-2.357.92979-4.474 1.15545.211.32555.364.68483.453 1.06217.825-.1195 1.092-.15956 1.651-.2657v1.5273h-.892c-.402.0123-.803-.0145-1.199-.08v1.2216c.388-.0559.78-.0825 1.172-.0795h.772c-.167.5398-.381 1.0641-.639 1.5669-.409.8601-.947 1.6526-1.597 2.3497zm10.908-1.0888-.067.0133v-5.856c-.014-.49271.012-.98573.08-1.47401h-1.371c.063.48869.09.98138.08 1.47401v6.1343l-3.397.7837c-.41.102-.829.1642-1.251.1857l.146 1.3017c.293-.0934.786-.2262 1.279-.3457l3.223-.7303v1.8063c.017.5102-.009 1.0211-.08 1.5268h1.372c-.062-.5023-.089-1.0081-.081-1.514v-2.0977l.187-.0534c.506-.1061.893-.1857 1.266-.2257l-.12-1.3011c-.411.1586-.834.2829-1.266.3717zm9.765-5.51072c.012-.14618.012-.3185.026-.53084.026-.63749.026-.63748.026-.75695.01-.22749.037-.45393.081-.67737h-1.412c.071.38085.102.76816.093 1.15552 0 .239-.014.45129-.026.80981h-3.37c-.485.00816-.97-.01393-1.452-.06615.042.4145.06.8312.054 1.2478v7.4894c.008.5194-.023 1.0387-.094 1.5534h1.399c-.06-.511-.083-1.0258-.066-1.5401v-7.5823h3.435c-.078 1.2149-.535 2.3752-1.305 3.3198-.579.692-1.295 1.257-2.104 1.6596.327.2824.602.6194.813.996 1.055-.5798 1.954-1.4041 2.623-2.4033.294-.4357.527-.9093.692-1.4078.787 1.4896 1.96 2.7414 3.397 3.6249.206-.4109.48-.7837.812-1.1022-.447-.2412-.874-.5166-1.278-.8236-.437-.3353-.842-.7085-1.212-1.1155-.549-.6343-.994-1.3513-1.319-2.1243.04-.2389.054-.3451.093-.624h3.757v7.3959c0 .3585-.081.3988-.707.3988-.598-.005-1.195-.0584-1.784-.1595.185.3974.298.8248.333 1.2619.626.0395.958.0528 1.385.0528.508.0349 1.018-.0236 1.505-.1724.386-.1595.506-.4251.506-1.0887v-7.6094c-.007-.4166.011-.8333.053-1.24777-.482.0536-.967.07569-1.451.06615zm18.327 6.66562c.506-.1061.892-.1857 1.266-.2256l-.12-1.3012c-.411.1587-.834.283-1.266.3719l-.067.0133v-5.856c-.014-.49271.013-.98573.081-1.47401h-1.372c.063.48869.09.98138.08 1.47401v6.1343l-3.397.7837c-.41.102-.829.1642-1.251.1857l.146 1.3017c.293-.0934.786-.2262 1.279-.3457l3.223-.7303v1.8063c.017.5102-.009 1.0211-.08 1.5268h1.372c-.062-.5023-.089-1.0081-.081-1.514v-2.0977zm-2.584-4.5675.746-.9826c-.747-.808-1.597-1.51354-2.53-2.09817l-.719.88983c.936.60574 1.78 1.34354 2.504 2.19054zm-.439 3.2667.692-.9826c-.747-.7714-1.578-1.4572-2.477-2.0448l-.733.8765c.935.5974 1.783 1.3212 2.518 2.1505zm-2.544-.5047c-.788-.5655-1.428-1.3125-1.865-2.1776h.746c.33-.0075.66.0146.986.0661v-1.1949c-.321.0552-.647.0775-.972.0667h-.8v-1.80583c.568-.1415 1.124-.32352 1.665-.54464.075-.04596.156-.08167.24-.1062l-.706-1.02262c-.799.5313-2.357.92983-4.475 1.15549.211.32546.364.68475.453 1.0621.826-.1195 1.092-.15949 1.652-.26563v1.52733h-.893c-.401.0122-.803-.0146-1.199-.0801v1.2217c.389-.056.78-.0826 1.172-.0795h.773c-.167.5398-.381 1.0641-.64 1.5668-.408.8605-.947 1.6532-1.597 2.3504.29.3293.52.7069.679 1.1155.818-.9871 1.425-2.1303 1.784-3.3595-.053.9298-.08 1.4873-.08 1.8725v2.5227c.005.5323-.021 1.0643-.079 1.5935h1.332c-.067-.5285-.093-1.0611-.081-1.5935v-2.8946c-.026-.9165-.053-1.5401-.066-1.8591.313.726.77 1.381 1.345 1.9253.15-.3856.362-.7445.627-1.063zm-80.0551 11.8039-3.1697.0401c-.2794.0133-.466.0266-.5728.04.2028-.3614.3851-.7338.5461-1.1155.0717-.1793.1657-.3488.2798-.5047l-1.5183-.3318c-.1355.6507-.3882 1.2716-.7458 1.8325-.7993 1.5236-1.9722 2.8209-3.4095 3.7711.434.2238.8049.5525 1.0787.9559 1.2319-.9449 2.2908-2.0949 3.1299-3.3993l4.2085-.0666c-.4515 1.5494-1.2227 2.9877-2.2641 4.2227-1.2429 1.4284-2.828 2.5201-4.6079 3.1736.3916.3073.7099.6974.9321 1.1421 1.7981-.7516 3.4045-1.895 4.7014-3.3464 1.2431-1.4863 2.1637-3.2134 2.7037-5.0722.045-.2636.1497-.5134.3063-.7304l-.7459-.7169c-.2741.0921-.5641.1281-.8525.1058zm6.0618 4.6076h1.5581c-.0564-.5334-.0787-1.0698-.0666-1.606v-2.908c-.0078-.4746.0145-.9493.0666-1.4211h-1.5581c.0563.4715.0786.9464.0666 1.4211v2.908c.0097.5362-.0125 1.0724-.0666 1.606zm6.0331-4.4347v1.3411l.0131.4913c.0221.9243-.0403 1.8488-.1863 2.7618-.1043.5683-.3389 1.1048-.6854 1.5677-.3466.463-.7958.8399-1.3125 1.1012-.8157.4709-1.7161.7778-2.6502.9033.3542.3838.6261.8356.7992 1.3277.8745-.2286 1.7192-.5584 2.5169-.9826.6126-.309 1.1569-.7373 1.6007-1.2596s.7781-1.1279.9831-1.7812c.2984-1.3282.4149-2.6907.3462-4.0501v-1.434c-.0158-.4878.0064-.9762.0666-1.4606h-1.5581c.0679.4882.0902.9816.0667 1.474zm7.9262 6.3339c-.6366.0175-1.2736-.018-1.9043-.1062v1.5131c.6244-.0559 1.2513-.078 1.8781-.0661h7.0452c.8919 0 1.4917.0262 1.9577.0661v-1.5006c-.6539.0784-1.3127.1096-1.9711.0934zm5.8735-5.0728c.5914-.012 1.1829.0103 1.7716.0667v-1.5007c-.5952.0865-1.1972.1177-1.7983.0934h-4.5545c-.6186.0224-1.2381-.0088-1.8513-.0934v1.5007c.6063-.0583 1.2156-.0806 1.8246-.0667zm8.1803.08-1.1725.3719c.5523.9733.9648 2.0191 1.2253 3.1069l1.2657-.4113c-.323-1.0685-.7652-2.0974-1.3185-3.0675zm2.7968-.5313-1.159.3451c.5257.9564.9326 1.973 1.2124 3.0275l1.238-.398c-.308-1.0399-.742-2.0387-1.2914-2.9746zm3.1694 1.7663c-.412 1.8651-1.498 3.514-3.05 4.6337-.6785.5082-1.4278.9154-2.2241 1.2088.3685.3024.676.6719.9059 1.0888 1.5442-.6823 2.8942-1.7363 3.9282-3.0674.951-1.3216 1.596-2.836 1.892-4.4352.033-.2182.091-.432.173-.637l-1.359-.3059c-.016.5148-.105 1.0247-.266 1.5142zm14.04-2.749-3.17.0401c-.28.0133-.466.0266-.572.04.202-.3616.384-.734.545-1.1155.072-.1793.166-.3488.28-.5047l-1.518-.3318c-.136.6508-.388 1.2717-.746 1.8325-.799 1.5236-1.972 2.8209-3.41 3.7711.435.2239.806.5525 1.08.9559 1.231-.945 2.29-2.095 3.129-3.3993l4.209-.0666c-.452 1.5495-1.223 2.9878-2.264 4.2227-1.243 1.4284-2.828 2.5201-4.608 3.1736.391.3072.71.6973.932 1.1421 1.798-.7516 3.405-1.895 4.702-3.3464 1.242-1.4864 2.163-3.2135 2.703-5.0722.045-.2636.15-.5134.307-.7304l-.746-.7169c-.275.0922-.565.1282-.853.1058z"/><path d="m43.0347 17.9529c-.2299.5297-.4908 1.0456-.7813 1.5449-.1826.3001-.441.5472-.7493.7167-.3083.1694-.6558.2554-1.0079.2492h-20.8893c-.1447-.0011-.2875-.0321-.4195-.0912s-.2503-.1449-.3472-.252-.1704-.2332-.2158-.3702c-.0454-.1369-.0618-.2818-.048-.4254.0341-.3879.0681-.8281.0983-1.2965.0186-.308.1541-.5975.3789-.8096.2248-.2122.5222-.3311.8317-.3326h22.4121c.1288-.0029.2563.0262.3711.0847.1147.0585.2131.1445.2862.2503s.1187.228.1327.3557c.014.1278-.0041.2569-.0527.376zm-41.20141-1.0667c-.12882-.0028-.25633.0263-.37105.0848s-.21305.1445-.28616.2502c-.07311.1058-.1187.2281-.13266.3558s.00413.2569.05267.3759c.22992.5297.49082 1.0456.78136 1.5449.18263.3001.44099.5472.74931.7167.30831.1694.65581.2554 1.00783.2492h9.70661c.3144.0017.618-.1144.8507-.3252s.3776-.5009.4061-.8131c.0297-.3502.0602-.7731.0876-1.293.0072-.1483-.016-.2965-.0682-.4356-.0521-.1391-.1321-.2662-.2352-.3734-.103-.1073-.2268-.1925-.3639-.2505-.1372-.058-.2847-.0876-.4336-.0869zm11.90961 7.82c.033-.1335.0349-.2728.0056-.4071-.0293-.1344-.0891-.2603-.1747-.3681s-.1949-.1946-.3194-.2539c-.1244-.0592-.2608-.0892-.3988-.0878h-9.25685c-.35231-.0059-.69998.0807-1.00806.2512-.30807.1705-.56569.4189-.74693.7202-2.725616 4.7409-2.295728 9.8672.40874 13.767.08818.1233.2007.2274.33065.3058s.27461.1295.42508.1502.30358.0105.44997-.0299c.14638-.0404.28293-.1102.4013-.2051 4.98468-3.8743 8.3529-7.8928 9.8834-13.8425zm13.2265 5.817h-10.2835c-.3471.0046-.687.0996-.986.2755-.2989.176-.5466.4267-.7184.7274-.3098.5288-.6161 1.02-.7009 1.14-2.1765 3.1799-4.93089 5.9253-8.12088 8.0944-.10724.0727-.19491.1705-.25527.2848-.06036.1144-.09156.2419-.09083.3711.00072.1293.03335.2564.09499.3701s.1504.2105.25845.2819c4.39964 2.7579 10.20314 2.741 15.27204-1.2135.1791-.1392.3996-.2148.6267-.2147s.4476.0758.6265.2152c2.1456 1.7366 4.7524 2.8121 7.5014 3.0948.149.01.2985-.0111.4389-.0619.1403-.0508.2686-.1302.3764-.2332.1079-.103.193-.2273.25-.3649s.0846-.2856.081-.4344c-.0084-6.631.1516-9.9582-.6634-11.3129-.5391-.8962-2.1003-1.0197-3.7072-1.0197zm15.3177-5.9636c-.1815-.301-.4392-.5491-.7473-.7194-.308-.1703-.6556-.2568-1.0078-.2509h-21.4272c-.3251.0043-.6394.1166-.8932.3193-.2538.2026-.4324.4839-.5075.7993-.1036.4145-.2232.8544-.3545 1.2965-.0387.1254-.0475.2581-.0257.3875.0219.1294.0737.252.1514.3579.0778.1059.1792.1923.2963.2522s.2467.0918.3783.093h8.8195c1.3283-.0485 2.6553.1265 3.9253.5176 3.9445 1.3856 3.8868 5.5519 3.8868 9.9767v4.7682c-.0032.1309.0257.2606.0842.3778s.1449.2184.2516.2947c.1068.0763.2306.1254.3607.1431s.2626.0033.3859-.0417c6.687-2.6349 10.8775-10.8416 6.4232-18.5718zm-41.1006-10.7991h8.39622c.33937-.0041.67018-.1065.95218-.2948s.503-.4543.636-.7657c1.6998-3.88753 4.2544-7.34439 7.4749-10.11485.0978-.08009.1741-.1832.2219-.30004.0479-.11683.0658-.24369.0522-.36916-.0137-.12546-.0584-.24559-.1303-.34949-.0718-.1039-.1685-.18833-.2813-.24566-9.06108-4.32559-18.375486 2.63915-18.50643515 11.2928.00108793.1532.03272205.3047.09306775.4456.0603454.1409.1481964.2684.2584364.3752.11024.1067.240663.1905.383691.2465.143029.056.29581.0831.44944.0796zm14.3512 0h3.2331c.3457-.0052.6838-.1018.9798-.28.296-.1781.5393-.4313.7051-.7338 3.0251-5.35965 8.4098-9.5465 13.8958-11.65199.0758-.026.1414-.07538.1873-.141001.0458-.065625.0696-.144099.0677-.224056-.0018-.079957-.0291-.157251-.0779-.220722-.0488-.063472-.1166-.109812-.1936-.132334-3.9552-.999293-8.3816-.043703-12.2639 3.276263-.0041.00349-.01.00113-.0142-.00237-.0027-.00204-.006-.00307-.0094-.00293-.0033.00013-.0065.00145-.0091.0037-3.0647 2.42615-5.5241 5.52716-7.1853 9.05984-.0519.1136-.0743.2384-.0649.3629.0093.1244.0499.2446.1182.3492.0682.1047.1619.1904.2722.2494.1104.059.2339.0892.3591.0879zm8.8885-.9644c-.062.0951-.0969.2052-.1009.3185-.0039.1134.0231.2256.0783.3248.0552.0991.1365.1814.2351.238s.2107.0853.3244.0831h17.9811c.1537.0034.3065-.0237.4495-.0797.1431-.056.2736-.1399.3839-.2466.1102-.1068.1982-.2343.2586-.3752s.0921-.2924.0933-.4456c-.0375-1.7551-.4379-3.48355-1.1763-5.0772-.7383-1.59365-1.7987-3.01816-3.1148-4.18435-.2658-.23776-.5886-.40327-.9373-.48056-.3486-.07729-.7113-.06375-1.0532.03928-4.032 1.31155-7.6908 3.56576-10.671 6.57442-1.0192 1.01501-1.9402 2.12361-2.7507 3.31111z"/></g></svg>