<svg width="180" height="53" viewBox="0 0 180 53" fill="none" xmlns="http://www.w3.org/2000/svg">
<g clip-path="url(#clip0_1240_1565)">
<path d="M77.1725 10.961C77.7867 10.9715 78.4008 10.9394 79.0105 10.8648V12.3351C78.4004 12.2671 77.7863 12.2405 77.1725 12.2555H75.0949V12.9425C75.0894 13.2581 75.1107 13.5737 75.1587 13.8857H73.6563C73.69 13.5779 73.7061 13.2684 73.7044 12.9587V12.2556H69.9325V12.9262C69.9296 13.2467 69.9457 13.567 69.9807 13.8855H68.4782C68.5251 13.5788 68.5465 13.2687 68.5421 12.9585V12.2554H66.5924C65.984 12.2404 65.3753 12.267 64.7705 12.3351V10.8647C65.375 10.9379 65.9837 10.97 66.5924 10.961H68.5421V10.6252C68.5413 10.2774 68.5146 9.93017 68.4622 9.58636H70.0125C69.9602 9.93019 69.9335 10.2774 69.9325 10.6252V10.961H73.7044V10.6252C73.7102 10.2771 73.6834 9.92939 73.6244 9.58636H75.1748C75.1224 9.93017 75.0957 10.2774 75.0949 10.6252V10.961L77.1725 10.961ZM72.426 14.8443V14.1252C72.4155 13.7877 72.4423 13.45 72.5059 13.1184H70.9879C71.045 13.4509 71.0718 13.7879 71.0678 14.1252V14.8443H66.6567C66.0426 14.8546 65.4285 14.8227 64.8188 14.7487V16.2346C65.4297 16.1766 66.0431 16.15 66.6567 16.1551H69.2138C69.166 16.8581 69.1499 17.0501 69.1178 17.3698C68.9691 18.6968 68.4168 19.9461 67.5357 20.9494C66.7421 21.8337 65.7511 22.5183 64.6432 22.9476C65.0735 23.2938 65.4364 23.7162 65.7138 24.1938C66.2404 23.9288 66.743 23.6186 67.216 23.2667C67.9904 22.6762 68.6696 21.9702 69.2299 21.1736C69.689 20.4975 70.0245 19.7453 70.2206 18.952H75.4147C75.3976 20.0468 75.2034 21.1316 74.8394 22.1643C74.7117 22.4359 74.4879 22.5316 73.9765 22.5316C73.1283 22.5199 72.283 22.4289 71.4517 22.2599C71.6465 22.7442 71.7598 23.2574 71.787 23.7787C72.8578 23.8583 73.2574 23.8744 73.8167 23.8744C75.463 23.8744 76.0383 23.5547 76.3737 22.4522C76.7353 21.05 76.9549 19.615 77.029 18.1688C77.0388 17.9813 77.0602 17.7946 77.0929 17.6097C76.5514 17.6644 76.0071 17.6859 75.463 17.6738H70.4924C70.5402 17.3862 70.5402 17.3381 70.6201 16.7307C70.6362 16.6029 70.668 16.4109 70.7001 16.1554H77.1408C77.7596 16.1496 78.3783 16.1761 78.9944 16.2349V14.749C78.3795 14.8235 77.7601 14.8554 77.1408 14.8447L72.426 14.8443ZM86.0608 21.6523C84.6345 22.4211 83.0593 22.8736 81.4424 22.9789C81.7887 23.3405 82.0649 23.7633 82.2571 24.2257C84.0089 23.9845 85.6909 23.3803 87.1957 22.4517L86.0608 21.6523ZM90.0564 22.4517C91.6174 23.3713 93.3443 23.9741 95.1385 24.2257C95.3758 23.7699 95.654 23.3367 95.9697 22.9313C94.2762 22.8318 92.6192 22.397 91.095 21.6523L90.0564 22.4517ZM83.376 20.0381V16.8418C83.376 16.0906 83.3599 15.6437 83.3281 15.1641C83.7115 15.1962 84.2072 15.2123 84.9581 15.2123H92.4534C93.3325 15.2123 93.6519 15.1962 94.0834 15.1641C94.0516 15.6116 94.0355 16.0591 94.0355 16.906V19.9585C94.0255 20.5187 94.0468 21.079 94.0995 21.6368C93.7641 21.6047 93.0927 21.5887 92.3575 21.5887H85.0378C84.3187 21.5887 83.6636 21.6047 83.3119 21.6368C83.3667 21.1058 83.3881 20.5718 83.376 20.0381ZM84.7501 17.0339H92.6455V16.2665H84.7505L84.7501 17.0339ZM84.7501 18.7758H92.6455V17.9924H84.7505L84.7501 18.7758ZM84.7501 20.5177H92.6455V19.7353H84.7505L84.7501 20.5177ZM89.5927 13.2783V11.5203C89.5982 11.0879 89.5768 10.6556 89.5288 10.2259C89.9851 10.275 90.444 10.2963 90.903 10.2895H93.9715C94.4304 10.2967 94.8893 10.2754 95.3456 10.2259C95.2981 10.6664 95.2767 11.1094 95.2817 11.5524V13.198C95.2766 13.62 95.298 14.0418 95.3456 14.461C94.9462 14.4289 94.5147 14.4128 94.0191 14.4128H90.8706C90.3434 14.4128 89.9598 14.4289 89.5283 14.461C89.575 14.0686 89.5964 13.6735 89.5927 13.2783ZM90.951 13.2783H93.9238V11.4882H90.951V13.2783ZM81.2823 14.3808C81.6697 14.6496 82.0008 14.9917 82.2569 15.3876C84.031 14.445 84.9739 13.39 85.4693 11.84H87.3554C87.2755 13.3579 87.2116 13.5178 86.572 13.5178C86.2844 13.5178 85.8369 13.4857 85.2455 13.4221C85.4106 13.7842 85.503 14.1751 85.5174 14.5727C86.0446 14.6048 86.3327 14.6208 86.7002 14.6208C87.5792 14.6208 87.9785 14.4924 88.2183 14.1252C88.4739 13.7573 88.5536 13.3104 88.6659 11.84C88.6816 11.632 88.6816 11.4721 88.6976 11.3765C88.7137 11.1845 88.7298 11.0567 88.7298 11.0083C88.7458 10.7688 88.7458 10.7688 88.7615 10.625C88.3622 10.6571 88.0263 10.6731 87.4991 10.6731H85.725C85.7411 10.5133 85.789 10.1293 85.789 10.0972C85.805 9.8256 85.805 9.8256 85.821 9.6657L85.8529 9.45834H84.3825C84.4216 9.65832 84.4378 9.86208 84.4306 10.0657C84.4246 10.2695 84.4032 10.4726 84.3664 10.6731H83.1359C82.6497 10.6872 82.1633 10.6603 81.6816 10.5929V11.9033C82.1271 11.8515 82.5757 11.8303 83.0242 11.8398H84.0788C83.6476 12.9425 82.8644 13.6455 81.2823 14.3808ZM108.949 16.0591C109.515 16.0724 110.08 16.051 110.643 15.9949C110.591 16.6062 110.57 17.2198 110.58 17.8332V22.5313C110.605 22.7443 110.575 22.9601 110.494 23.1586C110.413 23.3572 110.283 23.5319 110.116 23.6665C109.812 23.8739 109.333 23.938 108.15 23.938C107.735 23.938 107.415 23.9381 106.712 23.906C106.676 23.4596 106.584 23.0195 106.44 22.5955C107.08 22.6597 107.927 22.7072 108.454 22.7072C108.998 22.7072 109.157 22.6116 109.157 22.2597V21.3967H101.725V22.2917C101.717 22.89 101.749 23.4881 101.822 24.0819H100.224C100.293 23.4397 100.319 22.7937 100.303 22.148V17.7529C100.317 17.1662 100.295 16.5791 100.239 15.9949C100.767 16.0431 101.294 16.0591 102.013 16.0591H108.949ZM109.157 19.2715H101.725V20.2461H109.157L109.157 19.2715ZM109.157 17.1938H101.725V18.1209H109.157L109.157 17.1938ZM111.538 11.4402V13.7895C111.533 14.3018 111.555 14.814 111.602 15.3241C111.109 15.2705 110.612 15.2491 110.116 15.2599H100.767C100.276 15.249 99.7843 15.2704 99.2962 15.3241C99.3443 14.7488 99.3597 14.4129 99.3597 13.7895V11.4402C99.3679 10.9281 99.3467 10.4159 99.2962 9.90623C99.8431 9.96217 100.393 9.98875 100.942 9.98585H109.956C110.506 9.9883 111.055 9.96172 111.602 9.90623C111.55 10.4158 111.528 10.9281 111.538 11.4402ZM104.634 13.1667H100.735V14.1889H104.634V13.1667ZM104.634 11.0729H100.735V12.0636H104.634V11.0729ZM110.148 13.1667H105.977V14.1889H110.148V13.1667ZM110.148 11.0729H105.977V12.0636H110.148V11.0729ZM128.098 15.8834C128.622 15.9059 129.147 15.8739 129.664 15.7877V17.1296C129.145 17.0639 128.621 17.0373 128.098 17.05H123.799C123.654 17.3738 123.471 17.6795 123.255 17.9611H127.81C128.296 17.975 128.782 17.9535 129.265 17.8969C129.233 18.1364 129.233 18.2327 129.201 18.824C129.073 21.3172 128.945 22.4678 128.689 23.1548C128.466 23.8264 128.051 24.0338 126.996 24.0338C126.542 24.0354 126.088 24.0088 125.637 23.9542C125.588 23.4687 125.481 22.991 125.317 22.5314C125.813 22.6583 126.324 22.7227 126.836 22.7233C127.219 22.7233 127.363 22.6597 127.443 22.4678C127.718 21.376 127.852 20.2536 127.843 19.1278H127.219C126.804 20.2339 126.161 21.2409 125.333 22.0839C124.575 22.9304 123.671 23.6341 122.664 24.1615C122.418 23.7957 122.103 23.4811 121.738 23.235C122.755 22.7699 123.681 22.1257 124.47 21.3332C125.104 20.698 125.614 19.95 125.973 19.1276H124.886C123.912 20.6372 122.541 21.8484 120.922 22.6276C120.723 22.2665 120.464 21.9421 120.155 21.6683C120.967 21.3482 121.722 20.9004 122.392 20.3418C122.829 19.9912 123.216 19.5827 123.543 19.1276H122.265C121.756 19.6117 121.18 20.0206 120.555 20.3418C120.387 20.0015 120.154 19.6976 119.868 19.4476V22.5C119.898 22.8677 119.814 23.2358 119.628 23.5544C119.405 23.842 119.053 23.9544 118.254 23.9544C117.902 23.9544 117.694 23.9543 117.311 23.9222C117.307 23.4393 117.209 22.9617 117.023 22.5161C117.395 22.6043 117.776 22.6525 118.158 22.6599C118.526 22.6599 118.605 22.5796 118.605 22.2278V18.8081H116.975C116.831 21.5247 116.56 22.8512 115.921 24.1297C115.599 23.7192 115.235 23.3442 114.834 23.0111C115.617 21.3013 115.824 19.2074 115.824 13.2624C115.856 12.1538 115.829 11.0443 115.745 9.93842C116.212 9.9855 116.681 10.0068 117.151 10.002H118.653C119.075 10.0122 119.497 9.99088 119.916 9.93842C119.884 10.3538 119.868 10.6094 119.868 11.3927V19.3674C120.421 19.12 120.937 18.7974 121.402 18.4088C121.853 18.0346 122.223 17.5724 122.489 17.0502H121.786C121.3 17.0471 120.814 17.0737 120.331 17.1298V15.8033C120.824 15.87 121.321 15.8969 121.818 15.8836L128.098 15.8834ZM118.605 15.0204H117.055L117.023 17.5297H118.605V15.0204ZM118.605 11.2963H117.071V13.7575H118.605V11.2963ZM121.13 13.6296V11.4402C121.14 10.9599 121.118 10.4795 121.066 10.0019C121.591 10.0672 122.119 10.094 122.648 10.0822H126.771C127.337 10.0958 127.904 10.069 128.466 10.0019C128.413 10.5116 128.391 11.0241 128.402 11.5365V13.6296C128.392 14.126 128.414 14.6224 128.466 15.1161C128.082 15.0839 127.667 15.0679 127.012 15.0679H122.536C122.045 15.0583 121.554 15.0798 121.066 15.1321C121.117 14.633 121.138 14.1313 121.13 13.6296ZM122.457 12.0636H127.075V11.1686H122.457V12.0636ZM122.457 14.0136H127.075V13.1186H122.457V14.0136ZM141.813 14.2852L142.708 13.1025C141.812 12.1301 140.791 11.2809 139.672 10.5772L138.809 11.6482C139.933 12.3774 140.944 13.2657 141.813 14.2852ZM141.286 18.217L142.117 17.0343C141.221 16.1059 140.223 15.2804 139.144 14.5732L138.265 15.6281C139.387 16.3474 140.403 17.2187 141.286 18.217ZM131.681 19.7034C132.029 20.0996 132.305 20.5541 132.496 21.046C133.477 19.8579 134.206 18.4819 134.637 17.0024C134.574 18.1216 134.542 18.7926 134.542 19.2562V22.2925C134.547 22.9331 134.515 23.5735 134.446 24.2104H136.044C135.965 23.5744 135.932 22.9333 135.948 22.2925V18.8086C135.916 17.7055 135.884 16.9549 135.868 16.571C136.244 17.4448 136.793 18.2332 137.482 18.8882C137.663 18.4246 137.916 17.993 138.233 17.6099C137.287 16.9293 136.52 16.03 135.996 14.9888H136.891C137.287 14.9798 137.683 15.0065 138.074 15.0685V13.6302C137.689 13.6967 137.298 13.7235 136.907 13.7105H135.948V11.537C136.629 11.3667 137.296 11.1477 137.946 10.8815C138.036 10.8262 138.132 10.7833 138.233 10.7537L137.386 9.52291C136.427 10.1624 134.558 10.642 132.016 10.9136C132.269 11.3054 132.453 11.7379 132.56 12.192C133.551 12.0482 133.871 12 134.542 11.8722V13.7105H133.471C132.989 13.7252 132.507 13.693 132.032 13.6142V15.0845C132.498 15.0172 132.968 14.9852 133.439 14.9888H134.366C134.165 15.6386 133.908 16.2696 133.598 16.8747C133.108 17.91 132.462 18.8638 131.682 19.7028L131.681 19.7034ZM144.77 18.3929L144.69 18.409V11.3607C144.673 10.7677 144.705 10.1743 144.786 9.5866H143.141C143.216 10.1748 143.248 10.7678 143.236 11.3607V18.7439L139.161 19.6871C138.669 19.8099 138.166 19.8848 137.659 19.9107L137.834 21.4774C138.186 21.365 138.778 21.2051 139.369 21.0613L143.236 20.1823V22.3563C143.258 22.9705 143.226 23.5853 143.141 24.1939H144.787C144.713 23.5895 144.681 22.9806 144.69 22.3717V19.847L144.915 19.7827C145.522 19.655 145.986 19.5592 146.433 19.5111L146.289 17.9451C145.796 18.136 145.288 18.2856 144.77 18.3925L144.77 18.3929ZM156.488 11.7603C156.503 11.5843 156.503 11.3769 156.519 11.1214C156.551 10.3541 156.551 10.3541 156.551 10.2103C156.563 9.93649 156.595 9.66395 156.648 9.39502H154.953C155.039 9.85341 155.077 10.3196 155.065 10.7858C155.065 11.0735 155.049 11.329 155.034 11.7605H150.99C150.408 11.7703 149.826 11.7437 149.248 11.6809C149.299 12.1798 149.32 12.6812 149.312 13.1827V22.1968C149.322 22.822 149.284 23.447 149.2 24.0666H150.878C150.806 23.4515 150.779 22.8319 150.799 22.2129V13.0869H154.921C154.827 14.5491 154.28 15.9456 153.355 17.0826C152.66 17.9154 151.801 18.5955 150.83 19.0801C151.222 19.42 151.552 19.8256 151.805 20.2788C153.072 19.581 154.151 18.5889 154.954 17.3862C155.306 16.8619 155.586 16.2918 155.784 15.6918C156.728 17.4847 158.136 18.9914 159.86 20.0548C160.107 19.5602 160.437 19.1115 160.835 18.7282C160.299 18.4378 159.786 18.1064 159.301 17.7369C158.777 17.3333 158.29 16.8841 157.846 16.3943C157.187 15.6308 156.654 14.7679 156.264 13.8375C156.312 13.5499 156.328 13.4221 156.376 13.0864H160.883V21.9881C160.883 22.4196 160.787 22.468 160.036 22.468C159.318 22.462 158.602 22.3978 157.895 22.2761C158.117 22.7544 158.253 23.2688 158.294 23.7949C159.045 23.8424 159.445 23.8584 159.956 23.8584C160.566 23.9004 161.178 23.8301 161.762 23.651C162.225 23.459 162.369 23.1393 162.369 22.3405V13.182C162.361 12.6806 162.383 12.1791 162.433 11.6802C161.855 11.7447 161.273 11.7713 160.691 11.7598L156.488 11.7603ZM178.481 19.783C179.088 19.6552 179.552 19.5595 180 19.5114L179.856 17.9454C179.363 18.1363 178.855 18.286 178.337 18.3929L178.257 18.409V11.3607C178.24 10.7677 178.272 10.1743 178.353 9.5866H176.707C176.783 10.1748 176.815 10.7678 176.803 11.3607V18.7439L172.727 19.6871C172.235 19.8099 171.732 19.8848 171.225 19.9107L171.401 21.4774C171.753 21.365 172.344 21.2051 172.935 21.0613L176.803 20.1823V22.3563C176.824 22.9705 176.792 23.5853 176.707 24.1939H178.353C178.28 23.5895 178.247 22.9806 178.257 22.3717V19.847L178.481 19.783ZM175.38 14.2855L176.275 13.1029C175.379 12.1304 174.358 11.2812 173.239 10.5776L172.376 11.6486C173.5 12.3776 174.512 13.2656 175.381 14.2851L175.38 14.2855ZM174.853 18.2173L175.684 17.0346C174.788 16.1062 173.79 15.2808 172.711 14.5735L171.832 15.6285C172.954 16.3476 173.971 17.2187 174.854 18.2168L174.853 18.2173ZM171.801 17.6099C170.854 16.9293 170.087 16.0301 169.563 14.9889H170.458C170.854 14.9799 171.25 15.0065 171.641 15.0685V13.6303C171.256 13.6967 170.865 13.7236 170.474 13.7106H169.515V11.5371C170.196 11.3668 170.863 11.1477 171.513 10.8816C171.603 10.8263 171.699 10.7833 171.801 10.7538L170.953 9.52295C169.994 10.1624 168.125 10.6421 165.583 10.9137C165.837 11.3054 166.02 11.7379 166.127 12.192C167.118 12.0482 167.438 12.0001 168.109 11.8723V13.7106H167.038C166.556 13.7253 166.075 13.693 165.599 13.6142V15.0846C166.065 15.0172 166.535 14.9853 167.006 14.9889H167.933C167.732 15.6386 167.475 16.2697 167.165 16.8747C166.675 17.9104 166.028 18.8645 165.248 19.7037C165.596 20.0999 165.872 20.5544 166.063 21.0463C167.044 19.8582 167.773 18.4823 168.204 17.0028C168.141 18.1219 168.109 18.7929 168.109 19.2565V22.2928C168.114 22.9335 168.082 23.5738 168.013 24.2107H169.611C169.532 23.5747 169.499 22.9336 169.515 22.2928V18.8089C169.483 17.7059 169.451 16.9553 169.435 16.5713C169.811 17.4451 170.36 18.2335 171.049 18.8885C171.23 18.4245 171.484 17.9926 171.801 17.6092L171.801 17.6099ZM75.7343 31.817L71.9306 31.8652C71.5953 31.8812 71.3714 31.8973 71.2433 31.9133C71.4866 31.4784 71.7054 31.0301 71.8985 30.5707C71.9846 30.355 72.0975 30.151 72.2343 29.9633L70.4124 29.564C70.2497 30.3472 69.9465 31.0944 69.5174 31.7695C68.5583 33.6033 67.1508 35.1647 65.426 36.3083C65.9468 36.5778 66.3919 36.9733 66.7205 37.4589C68.1988 36.3217 69.4694 34.9375 70.4763 33.3676L75.5266 33.2874C74.9847 35.1523 74.0593 36.8833 72.8096 38.3698C71.3181 40.089 69.416 41.403 67.2802 42.1895C67.75 42.5594 68.132 43.0288 68.3987 43.5641C70.5563 42.6595 72.484 41.2833 74.0403 39.5364C75.532 37.7475 76.6367 35.6688 77.2847 33.4315C77.3387 33.1143 77.4644 32.8137 77.6523 32.5525L76.7572 31.6896C76.4283 31.8004 76.0804 31.8437 75.7343 31.817ZM83.0084 37.3626H84.8781C84.8104 36.7207 84.7837 36.075 84.7982 35.4296V31.9296C84.7889 31.3583 84.8156 30.7871 84.8781 30.2192H83.0084C83.076 30.7867 83.1028 31.3583 83.0883 31.9296V35.4296C83.1 36.0751 83.0733 36.7204 83.0084 37.3626ZM90.2482 32.025V33.6392L90.2639 34.2305C90.2904 35.343 90.2155 36.4557 90.0403 37.5546C89.9152 38.2386 89.6336 38.8843 89.2178 39.4415C88.8019 39.9987 88.2629 40.4523 87.6428 40.7669C86.664 41.3337 85.5836 41.703 84.4626 41.854C84.8876 42.316 85.2139 42.8597 85.4216 43.4521C86.471 43.1769 87.4846 42.7799 88.4419 42.2694C89.1771 41.8975 89.8302 41.382 90.3628 40.7534C90.8953 40.1248 91.2965 39.3958 91.5425 38.6095C91.9006 37.0109 92.0403 35.3711 91.9579 33.7349V32.009C91.9389 31.4218 91.9656 30.834 92.0378 30.251H90.1682C90.2496 30.8386 90.2764 31.4325 90.2482 32.025ZM99.7596 39.6484C98.9956 39.6696 98.2312 39.6268 97.4744 39.5206V41.3419C98.2236 41.2745 98.976 41.2479 99.7281 41.2623H108.182C109.253 41.2623 109.972 41.2937 110.532 41.3419V39.5357C109.747 39.6301 108.956 39.6677 108.166 39.6481L99.7596 39.6484ZM106.808 33.5429C107.517 33.5285 108.227 33.5553 108.934 33.6232V31.817C108.219 31.921 107.497 31.9587 106.776 31.9293H101.31C100.568 31.9563 99.8247 31.9187 99.0888 31.817V33.6232C99.8164 33.553 100.547 33.5261 101.278 33.5429H106.808ZM116.624 33.6392L115.217 34.0868C115.88 35.2582 116.375 36.517 116.687 37.8262L118.206 37.3312C117.819 36.0452 117.288 34.8068 116.624 33.6392ZM119.98 32.9998L118.589 33.4151C119.22 34.5662 119.709 35.7898 120.044 37.0589L121.53 36.5799C121.16 35.3283 120.64 34.1262 119.98 32.9998ZM123.784 35.1257C123.289 37.3704 121.986 39.3551 120.124 40.7027C119.309 41.3144 118.41 41.8044 117.455 42.1577C117.897 42.5216 118.266 42.9663 118.542 43.4681C120.395 42.6469 122.015 41.3783 123.256 39.7762C124.396 38.1855 125.171 36.3628 125.526 34.438C125.565 34.1754 125.635 33.9181 125.733 33.6714L124.103 33.3032C124.083 33.9228 123.976 34.5364 123.784 35.1257ZM140.631 31.817L136.828 31.8652C136.492 31.8812 136.268 31.8973 136.141 31.9133C136.384 31.4782 136.602 31.0299 136.796 30.5707C136.882 30.355 136.995 30.151 137.131 29.9633L135.309 29.564C135.147 30.3473 134.844 31.0945 134.414 31.7695C133.455 33.6033 132.048 35.1647 130.323 36.3083C130.844 36.5778 131.289 36.9734 131.618 37.4589C133.096 36.3216 134.367 34.9374 135.374 33.3676L140.423 33.2874C139.882 35.1523 138.957 36.8835 137.707 38.3698C136.215 40.089 134.313 41.403 132.177 42.1895C132.647 42.5593 133.029 43.0288 133.296 43.5641C135.454 42.6595 137.381 41.2833 138.938 39.5364C140.429 37.7474 141.534 35.6687 142.182 33.4315C142.236 33.1143 142.362 32.8137 142.55 32.5525L141.655 31.6896C141.326 31.8005 140.978 31.8439 140.631 31.817Z" fill="#4A4A4A"/>
<path d="M51.6417 21.6079C51.3658 22.2455 51.0528 22.8664 50.7042 23.4673C50.485 23.8285 50.1749 24.126 49.805 24.33C49.435 24.5339 49.018 24.6374 48.5955 24.6299H23.5284C23.3547 24.6287 23.1833 24.5913 23.0249 24.5201C22.8665 24.449 22.7246 24.3457 22.6083 24.2168C22.492 24.0879 22.4038 23.9362 22.3493 23.7713C22.2948 23.6065 22.2752 23.4321 22.2918 23.2593C22.3326 22.7924 22.3734 22.2625 22.4097 21.6989C22.432 21.3281 22.5946 20.9797 22.8644 20.7244C23.1342 20.469 23.491 20.3259 23.8624 20.3241H50.7569C50.9115 20.3206 51.0645 20.3557 51.2022 20.426C51.3399 20.4964 51.4579 20.5999 51.5457 20.7273C51.6335 20.8546 51.6882 21.0017 51.7049 21.1554C51.7217 21.3092 51.7 21.4647 51.6417 21.6079ZM2.2 20.3241C2.04542 20.3207 1.8924 20.3557 1.75474 20.4261C1.61707 20.4965 1.49908 20.6 1.41135 20.7273C1.32361 20.8547 1.26891 21.0018 1.25215 21.1555C1.2354 21.3092 1.25711 21.4647 1.31536 21.6079C1.59126 22.2455 1.90434 22.8664 2.25299 23.4673C2.47215 23.8285 2.78218 24.126 3.15216 24.33C3.52214 24.5339 3.93913 24.6374 4.36155 24.6299H16.0095C16.3868 24.6319 16.7511 24.4922 17.0303 24.2385C17.3096 23.9848 17.4835 23.6356 17.5176 23.2599C17.5533 22.8383 17.5899 22.3294 17.6228 21.7037C17.6314 21.5252 17.6036 21.3467 17.541 21.1793C17.4784 21.0119 17.3824 20.859 17.2587 20.7299C17.1351 20.6008 16.9865 20.4982 16.822 20.4284C16.6574 20.3586 16.4804 20.323 16.3017 20.3239L2.2 20.3241ZM16.4915 29.7362C16.5311 29.5755 16.5334 29.4079 16.4983 29.2461C16.4631 29.0844 16.3914 28.9329 16.2886 28.8032C16.1858 28.6734 16.0548 28.5689 15.9054 28.4976C15.756 28.4263 15.5923 28.3902 15.4268 28.3919H4.31855C3.89577 28.3848 3.47857 28.489 3.10888 28.6942C2.73919 28.8995 2.43005 29.1985 2.21256 29.5611C-1.05818 35.2672 -0.542312 41.4371 2.70305 46.1309C2.80887 46.2793 2.94389 46.4046 3.09983 46.4989C3.25577 46.5933 3.42936 46.6548 3.60992 46.6797C3.79048 46.7046 3.97423 46.6924 4.14989 46.6437C4.32555 46.5951 4.48941 46.5111 4.63144 46.3968C10.6131 41.7339 14.655 36.8972 16.4915 29.7362ZM32.3633 36.7374H20.0231C19.6066 36.743 19.1987 36.8573 18.84 37.0691C18.4812 37.2808 18.184 37.5826 17.9778 37.9446C17.6061 38.581 17.2385 39.1722 17.1367 39.3166C14.525 43.1439 11.2197 46.4483 7.39172 49.0591C7.26302 49.1464 7.15782 49.2642 7.08538 49.4018C7.01295 49.5395 6.97552 49.6929 6.97639 49.8485C6.97726 50.0041 7.01641 50.157 7.09038 50.2938C7.16435 50.4307 7.27086 50.5473 7.40052 50.6332C12.6801 53.9526 19.6443 53.9322 25.727 49.1726C25.9419 49.0051 26.2065 48.9141 26.479 48.9142C26.7515 48.9143 27.0161 49.0054 27.2308 49.1732C29.8055 51.2634 32.9337 52.5578 36.2325 52.8981C36.4113 52.9102 36.5907 52.8848 36.7591 52.8236C36.9276 52.7625 37.0814 52.6669 37.2109 52.5429C37.3403 52.419 37.4425 52.2694 37.5108 52.1037C37.5792 51.9381 37.6123 51.76 37.608 51.5809C37.598 43.5998 37.7899 39.5953 36.812 37.9648C36.1651 36.8861 34.2916 36.7374 32.3633 36.7374ZM50.7445 29.5598C50.5268 29.1975 50.2175 28.8989 49.8479 28.6939C49.4782 28.4889 49.0611 28.3848 48.6385 28.3919H22.9258C22.5357 28.397 22.1585 28.5323 21.854 28.7761C21.5495 29.02 21.3351 29.3586 21.2449 29.7382C21.1207 30.2371 20.9771 30.7665 20.8196 31.2986C20.7731 31.4496 20.7626 31.6093 20.7888 31.7651C20.815 31.9209 20.8772 32.0684 20.9705 32.1958C21.0637 32.3233 21.1855 32.4273 21.326 32.4994C21.4665 32.5715 21.622 32.6098 21.7799 32.6113H32.3633C33.9573 32.553 35.5497 32.7636 37.0737 33.2343C41.807 34.902 41.7379 39.9166 41.7379 45.2421V50.9812C41.734 51.1387 41.7687 51.2948 41.8389 51.4359C41.9091 51.5769 42.0128 51.6987 42.1409 51.7905C42.2689 51.8824 42.4175 51.9415 42.5737 51.9628C42.7298 51.984 42.8888 51.9668 43.0367 51.9126C51.0611 48.7413 56.0897 38.8637 50.7445 29.5598ZM1.42385 16.5621H11.4993C11.9066 16.5571 12.3036 16.4338 12.642 16.2072C12.9804 15.9805 13.2455 15.6604 13.4051 15.2857C15.4448 10.6066 18.5104 6.44595 22.375 3.11146C22.4924 3.01506 22.5839 2.89095 22.6413 2.75033C22.6988 2.60971 22.7203 2.45702 22.7039 2.30601C22.6875 2.155 22.6338 2.01042 22.5476 1.88537C22.4614 1.76032 22.3454 1.6587 22.21 1.58969C11.3367 -3.61655 0.159426 4.76615 0.00228664 15.1817C0.00359217 15.3661 0.0415531 15.5483 0.113968 15.7179C0.186383 15.8875 0.291804 16.041 0.424091 16.1695C0.556379 16.2979 0.712887 16.3988 0.884521 16.4662C1.05616 16.5336 1.2395 16.5662 1.42385 16.5621ZM18.6453 16.5621H22.525C22.9398 16.5557 23.3456 16.4394 23.7008 16.2251C24.056 16.0107 24.348 15.7059 24.5469 15.3418C28.177 8.89099 34.6386 3.85173 41.2218 1.31757C41.3129 1.28628 41.3916 1.22685 41.4466 1.14786C41.5016 1.06888 41.5301 0.974428 41.5279 0.878192C41.5257 0.781956 41.4929 0.688926 41.4344 0.612532C41.3758 0.536139 41.2945 0.480364 41.2021 0.453257C36.4558 -0.749485 31.1441 0.400657 26.4854 4.39654C26.4804 4.40074 26.4733 4.3979 26.4684 4.39369C26.4651 4.39124 26.4612 4.38999 26.4571 4.39016C26.4531 4.39032 26.4492 4.3919 26.4462 4.39461C22.7685 7.31471 19.8172 11.0471 17.8238 15.299C17.7615 15.4357 17.7347 15.5859 17.7458 15.7357C17.757 15.8855 17.8058 16.0301 17.8877 16.1561C17.9696 16.282 18.082 16.3852 18.2144 16.4562C18.3468 16.5272 18.4951 16.5636 18.6453 16.5621ZM29.3115 15.4013C29.2371 15.5157 29.1952 15.6483 29.1905 15.7847C29.1857 15.9211 29.2182 16.0562 29.2844 16.1755C29.3507 16.2949 29.4482 16.3939 29.5665 16.462C29.6848 16.5301 29.8194 16.5647 29.9558 16.5621H51.5331C51.7175 16.5661 51.9009 16.5335 52.0725 16.4661C52.2442 16.3986 52.4008 16.2977 52.5331 16.1693C52.6655 16.0408 52.771 15.8873 52.8434 15.7177C52.9159 15.5481 52.954 15.3658 52.9554 15.1814C52.9105 13.069 52.43 10.9886 51.5439 9.0705C50.6579 7.1524 49.3854 5.43787 47.8062 4.03424C47.4871 3.74808 47.0998 3.54888 46.6814 3.45585C46.2631 3.36283 45.8278 3.37912 45.4176 3.50313C40.5791 5.0817 36.1885 7.79484 32.6123 11.4161C31.3892 12.6378 30.2841 13.9721 29.3115 15.4013Z" fill="#56C1BB"/>
</g>
<defs>
<clipPath id="clip0_1240_1565">
<rect width="180" height="52.958" fill="white"/>
</clipPath>
</defs>
</svg>
