<svg width="150" height="44" viewBox="0 0 150 44" fill="none" xmlns="http://www.w3.org/2000/svg">
<g id="Logo" clip-path="url(#clip0_1214_2082)">
<path id="Vector" d="M64.3105 9.10691C64.8223 9.11562 65.334 9.08892 65.8421 9.02696V10.2486C65.3337 10.1921 64.8219 10.17 64.3105 10.1824H62.5791V10.7532C62.5745 11.0155 62.5923 11.2776 62.6323 11.5369H61.3802C61.4083 11.2811 61.4217 11.024 61.4204 10.7667V10.1825H58.2771V10.7397C58.2747 11.006 58.2881 11.2721 58.3173 11.5367H57.0652C57.1043 11.2819 57.1221 11.0243 57.1185 10.7665V10.1824H55.4937C54.9867 10.1699 54.4794 10.192 53.9755 10.2485V9.02689C54.4792 9.08768 54.9864 9.11441 55.4937 9.10688H57.1185V8.82787C57.1178 8.53892 57.0955 8.25044 57.0518 7.96479H58.3438C58.3002 8.25046 58.2779 8.53893 58.2771 8.82787V9.10688H61.4204V8.82787C61.4252 8.53873 61.4029 8.24979 61.3537 7.96479H62.6457C62.602 8.25044 62.5798 8.53892 62.5791 8.82787V9.10688L64.3105 9.10691ZM60.355 12.3334V11.7358C60.3462 11.4554 60.3686 11.1749 60.4216 10.8994H59.1566C59.2042 11.1756 59.2265 11.4556 59.2232 11.7358V12.3334H55.5473C55.0355 12.3419 54.5238 12.3154 54.0157 12.2539V13.4884C54.5247 13.4402 55.0359 13.4182 55.5473 13.4224H57.6782C57.6383 14.0065 57.625 14.166 57.5982 14.4317C57.4742 15.5341 57.0141 16.5722 56.2798 17.4057C55.6185 18.1404 54.7926 18.7092 53.8693 19.0659C54.2279 19.3535 54.5304 19.7045 54.7615 20.1014C55.2003 19.8811 55.6192 19.6234 56.0133 19.3311C56.6587 18.8404 57.2247 18.2539 57.6916 17.592C58.0742 17.0303 58.3537 16.4053 58.5172 15.7462H62.8456C62.8314 16.6558 62.6695 17.5571 62.3662 18.4151C62.2597 18.6408 62.0732 18.7203 61.6471 18.7203C60.9402 18.7106 60.2358 18.635 59.5431 18.4946C59.7054 18.897 59.7999 19.3233 59.8226 19.7565C60.7148 19.8226 61.0479 19.8359 61.5139 19.8359C62.8858 19.8359 63.3653 19.5703 63.6448 18.6543C63.9461 17.4893 64.1291 16.297 64.1908 15.0955C64.199 14.9397 64.2168 14.7846 64.2441 14.6309C63.7929 14.6764 63.3393 14.6942 62.8858 14.6843H58.7437C58.7835 14.4453 58.7835 14.4053 58.8501 13.9006C58.8635 13.7944 58.89 13.6349 58.9168 13.4226H64.284C64.7997 13.4178 65.3153 13.4399 65.8287 13.4887V12.2542C65.3162 12.316 64.8001 12.3425 64.284 12.3336L60.355 12.3334ZM71.7174 17.9897C70.5288 18.6285 69.2161 19.0044 67.8687 19.0919C68.1573 19.3924 68.3875 19.7436 68.5476 20.1278C70.0074 19.9274 71.4091 19.4254 72.6631 18.6539L71.7174 17.9897ZM75.047 18.6539C76.3478 19.4179 77.787 19.9188 79.2821 20.1278C79.4798 19.7491 79.7117 19.3892 79.9748 19.0524C78.5635 18.9697 77.1827 18.6085 75.9125 17.9897L75.047 18.6539ZM69.48 16.6486V13.993C69.48 13.3688 69.4666 12.9975 69.4401 12.599C69.7596 12.6257 70.1727 12.6391 70.7984 12.6391H77.0446C77.7771 12.6391 78.0433 12.6257 78.4028 12.599C78.3764 12.9709 78.363 13.3427 78.363 14.0463V16.5824C78.3546 17.0479 78.3724 17.5134 78.4162 17.9769C78.1368 17.9502 77.5772 17.9369 76.9646 17.9369H70.8648C70.2656 17.9369 69.7197 17.9502 69.4266 17.9769C69.4722 17.5357 69.4901 17.092 69.48 16.6486ZM70.6251 14.1525H77.2046V13.515H70.6255L70.6251 14.1525ZM70.6251 15.5998H77.2046V14.949H70.6255L70.6251 15.5998ZM70.6251 17.0471H77.2046V16.397H70.6255L70.6251 17.0471ZM74.6606 11.0323V9.5716C74.6652 9.21236 74.6474 8.85316 74.6074 8.49612C74.9876 8.53697 75.37 8.55463 75.7525 8.54897H78.3096C78.692 8.55498 79.0744 8.53732 79.4547 8.49612C79.4151 8.86213 79.3973 9.23019 79.4014 9.5983V10.9655C79.3972 11.3161 79.415 11.6666 79.4547 12.0149C79.1218 11.9882 78.7623 11.9748 78.3492 11.9748H75.7255C75.2862 11.9748 74.9665 11.9882 74.607 12.0149C74.6459 11.6888 74.6637 11.3606 74.6606 11.0323ZM75.7925 11.0323H78.2699V9.54492H75.7925V11.0323ZM67.7353 11.9482C68.0581 12.1716 68.334 12.4558 68.5475 12.7847C70.0259 12.0016 70.8116 11.1251 71.2244 9.83723H72.7961C72.7296 11.0984 72.6763 11.2312 72.1434 11.2312C71.9037 11.2312 71.5308 11.2046 71.038 11.1517C71.1755 11.4525 71.2525 11.7773 71.2645 12.1077C71.7038 12.1344 71.9439 12.1477 72.2502 12.1477C72.9827 12.1477 73.3155 12.041 73.5153 11.7358C73.7282 11.4302 73.7947 11.0589 73.8882 9.83723C73.9013 9.66439 73.9013 9.53158 73.9147 9.4521C73.9281 9.29259 73.9415 9.18639 73.9415 9.14619C73.9549 8.94718 73.9549 8.94721 73.968 8.82774C73.6352 8.8544 73.3553 8.86772 72.916 8.86772H71.4376C71.451 8.73492 71.4908 8.41589 71.4908 8.38923C71.5042 8.16357 71.5042 8.16356 71.5176 8.03071L71.5441 7.85843H70.3188C70.3514 8.02458 70.3648 8.19387 70.3589 8.36306C70.3539 8.53238 70.336 8.7011 70.3054 8.86772H69.28C68.8748 8.8794 68.4694 8.8571 68.068 8.80107V9.88984C68.4393 9.84678 68.8131 9.82915 69.1868 9.83703H70.0657C69.7063 10.7532 69.0537 11.3374 67.7353 11.9482ZM90.7911 13.3426C91.2623 13.3537 91.7337 13.3359 92.2027 13.2893C92.1594 13.7972 92.1417 14.307 92.1497 14.8167V18.72C92.1705 18.897 92.146 19.0763 92.0784 19.2413C92.0109 19.4062 91.9025 19.5514 91.7634 19.6632C91.5103 19.8355 91.1106 19.8888 90.1251 19.8888C89.7789 19.8888 89.5124 19.8888 88.9266 19.8622C88.8963 19.4914 88.8203 19.1256 88.7002 18.7733C89.2331 18.8267 89.9389 18.8662 90.3782 18.8662C90.8314 18.8662 90.9641 18.7867 90.9641 18.4944V17.7774H84.7712V18.521C84.7639 19.018 84.7907 19.515 84.8515 20.0084H83.5197C83.5773 19.4748 83.5994 18.938 83.586 18.4016V14.75C83.5974 14.2625 83.5795 13.7747 83.5325 13.2893C83.9723 13.3293 84.4116 13.3426 85.0109 13.3426H90.7911ZM90.9639 16.0116H84.7712V16.8214H90.964L90.9639 16.0116ZM90.9639 14.2854H84.7712V15.0556H90.964L90.9639 14.2854ZM92.9485 9.50505V11.457C92.9443 11.8826 92.9622 12.3082 93.002 12.732C92.5907 12.6875 92.177 12.6696 91.7634 12.6786H83.9721C83.563 12.6695 83.1536 12.6874 82.7468 12.732C82.7869 12.254 82.7998 11.9749 82.7998 11.457V9.50505C82.8066 9.07955 82.7889 8.65403 82.7468 8.23056C83.2026 8.27704 83.6606 8.29911 84.1187 8.29671H91.6299C92.0881 8.29874 92.5461 8.27666 93.0019 8.23056C92.9583 8.65389 92.9403 9.07957 92.9485 9.50505ZM87.195 10.9395H83.9455V11.7888H87.195V10.9395ZM87.195 9.1999H83.9455V10.023H87.195V9.1999ZM91.7901 10.9395H88.3138V11.7888H91.7901V10.9395ZM91.7901 9.1999H88.3138V10.023H91.7901V9.1999ZM106.748 13.1966C107.185 13.2154 107.622 13.1888 108.053 13.1172V14.2321C107.621 14.1775 107.184 14.1554 106.748 14.166H103.166C103.045 14.4349 102.893 14.6889 102.713 14.9229H106.509C106.913 14.9344 107.318 14.9166 107.721 14.8696C107.694 15.0685 107.694 15.1486 107.668 15.6398C107.561 17.7113 107.454 18.6673 107.241 19.2381C107.055 19.7961 106.709 19.9684 105.83 19.9684C105.451 19.9697 105.073 19.9476 104.697 19.9023C104.657 19.4989 104.567 19.102 104.431 18.7201C104.845 18.8255 105.27 18.8791 105.697 18.8796C106.016 18.8796 106.136 18.8268 106.203 18.6673C106.432 17.7601 106.544 16.8276 106.536 15.8922H106.016C105.67 16.8113 105.135 17.6479 104.445 18.3483C103.813 19.0517 103.059 19.6363 102.22 20.0745C102.015 19.7706 101.753 19.5091 101.448 19.3047C102.296 18.9183 103.067 18.3831 103.725 17.7246C104.253 17.1969 104.678 16.5754 104.977 15.8921H104.071C103.26 17.1463 102.117 18.1527 100.768 18.8001C100.603 18.5 100.387 18.2305 100.13 18.0031C100.806 17.7371 101.435 17.365 101.994 16.9009C102.358 16.6097 102.68 16.2702 102.953 15.8921H101.888C101.463 16.2943 100.984 16.6341 100.463 16.9009C100.323 16.6181 100.128 16.3657 99.8903 16.158V18.694C99.9153 18.9996 99.8454 19.3054 99.6902 19.5701C99.5039 19.809 99.2108 19.9024 98.5451 19.9024C98.2519 19.9024 98.0785 19.9024 97.7591 19.8757C97.756 19.4744 97.6745 19.0777 97.5194 18.7074C97.8294 18.7807 98.1463 18.8207 98.4648 18.8269C98.7717 18.8269 98.8377 18.7602 98.8377 18.4679V15.6266H97.4793C97.3594 17.8837 97.133 18.9859 96.6006 20.048C96.3327 19.707 96.029 19.3955 95.6948 19.1187C96.3476 17.6981 96.5204 15.9584 96.5204 11.019C96.5464 10.0979 96.5242 9.1761 96.4541 8.2573C96.8434 8.29642 97.2346 8.31408 97.6258 8.31014H98.8779C99.2294 8.31856 99.581 8.30088 99.9299 8.2573C99.9032 8.60243 99.8903 8.81477 99.8903 9.4656V16.0914C100.351 15.8858 100.781 15.6178 101.169 15.2949C101.544 14.984 101.853 14.5999 102.074 14.1661H101.488C101.083 14.1635 100.678 14.1856 100.276 14.2323V13.1301C100.687 13.1855 101.101 13.2079 101.515 13.1968L106.748 13.1966ZM98.8374 12.4797H97.5458L97.519 14.5645H98.8374V12.4797ZM98.8374 9.38551H97.5592V11.4303H98.8374V9.38551ZM100.942 11.3241V9.50505C100.95 9.10599 100.932 8.70685 100.888 8.31008C101.326 8.36427 101.766 8.38655 102.207 8.37673H105.643C106.115 8.38807 106.586 8.36579 107.055 8.31008C107.011 8.73353 106.993 9.15935 107.001 9.58503V11.3241C106.994 11.7365 107.011 12.149 107.055 12.5591C106.735 12.5324 106.389 12.5191 105.843 12.5191H102.114C101.704 12.5112 101.295 12.529 100.888 12.5725C100.931 12.1578 100.949 11.741 100.942 11.3241ZM102.047 10.023H105.896V9.27939H102.047V10.023ZM102.047 11.6432H105.896V10.8995H102.047V11.6432ZM118.178 11.8688L118.923 10.8862C118.177 10.0782 117.326 9.3727 116.393 8.78806L115.674 9.67789C116.611 10.2837 117.453 11.0217 118.178 11.8688ZM117.738 15.1355L118.431 14.1529C117.684 13.3815 116.853 12.6957 115.953 12.1081L115.221 12.9846C116.156 13.5822 117.003 14.3061 117.738 15.1355ZM109.734 16.3705C110.025 16.6997 110.254 17.0773 110.413 17.486C111.231 16.4988 111.838 15.3556 112.198 14.1264C112.145 15.0562 112.118 15.6137 112.118 15.9989V18.5216C112.123 19.0539 112.096 19.586 112.038 20.1151H113.37C113.304 19.5867 113.277 19.054 113.29 18.5216V15.6271C113.264 14.7106 113.237 14.0869 113.223 13.7679C113.536 14.4939 113.994 15.149 114.569 15.6932C114.719 15.308 114.93 14.9494 115.195 14.6311C114.406 14.0656 113.766 13.3185 113.33 12.4534H114.076C114.406 12.4459 114.736 12.4681 115.061 12.5196V11.3246C114.74 11.3798 114.415 11.4022 114.089 11.3913H113.29V9.5855C113.857 9.44401 114.414 9.26202 114.955 9.04089C115.03 8.99494 115.11 8.95922 115.195 8.9347L114.488 7.91208C113.69 8.44338 112.131 8.84187 110.014 9.06753C110.225 9.39308 110.378 9.75236 110.467 10.1297C111.292 10.0102 111.559 9.97014 112.118 9.864V11.3913H111.226C110.824 11.4036 110.423 11.3768 110.027 11.3113V12.5329C110.415 12.477 110.807 12.4504 111.199 12.4534H111.971C111.804 12.9932 111.59 13.5175 111.332 14.0203C110.923 14.8804 110.385 15.6729 109.735 16.37L109.734 16.3705ZM120.642 15.2817L120.575 15.295V9.439C120.561 8.94629 120.587 8.45327 120.655 7.96499H119.284C119.347 8.45368 119.374 8.94637 119.364 9.439V15.5733L115.967 16.357C115.557 16.459 115.138 16.5212 114.716 16.5427L114.862 17.8444C115.155 17.751 115.648 17.6182 116.141 17.4987L119.364 16.7684V18.5747C119.381 19.0849 119.355 19.5958 119.284 20.1015H120.656C120.594 19.5992 120.567 19.0934 120.575 18.5875V16.4898L120.762 16.4364C121.268 16.3303 121.655 16.2507 122.028 16.2107L121.908 14.9096C121.497 15.0682 121.074 15.1925 120.642 15.2813L120.642 15.2817ZM130.407 9.77098C130.419 9.6248 130.419 9.45248 130.433 9.24014C130.459 8.60265 130.459 8.60266 130.459 8.48319C130.469 8.2557 130.496 8.02926 130.54 7.80582H129.128C129.199 8.18667 129.23 8.57398 129.221 8.96134C129.221 9.20034 129.207 9.41263 129.195 9.77115H125.825C125.34 9.77931 124.855 9.75722 124.373 9.705C124.415 10.1195 124.433 10.5362 124.427 10.9528V18.4422C124.435 18.9616 124.404 19.4809 124.333 19.9956H125.732C125.672 19.4846 125.649 18.9698 125.666 18.4555V10.8732H129.101C129.023 12.0881 128.566 13.2484 127.796 14.193C127.217 14.885 126.501 15.45 125.692 15.8526C126.019 16.135 126.294 16.472 126.505 16.8486C127.56 16.2688 128.459 15.4445 129.128 14.4453C129.422 14.0096 129.655 13.536 129.82 13.0375C130.607 14.5271 131.78 15.7789 133.217 16.6624C133.423 16.2515 133.697 15.8787 134.029 15.5602C133.582 15.319 133.155 15.0436 132.751 14.7366C132.314 14.4013 131.909 14.0281 131.539 13.6211C130.99 12.9868 130.545 12.2698 130.22 11.4968C130.26 11.2579 130.274 11.1517 130.313 10.8728H134.07V18.2687C134.07 18.6272 133.989 18.6675 133.363 18.6675C132.765 18.6625 132.168 18.6091 131.579 18.508C131.764 18.9054 131.877 19.3328 131.912 19.7699C132.538 19.8094 132.87 19.8227 133.297 19.8227C133.805 19.8576 134.315 19.7991 134.802 19.6503C135.188 19.4908 135.308 19.2252 135.308 18.5616V10.9522C135.301 10.5356 135.319 10.1189 135.361 9.70443C134.879 9.75803 134.394 9.78012 133.91 9.77058L130.407 9.77098ZM148.734 16.4366C149.24 16.3305 149.626 16.2509 150 16.211L149.88 14.9098C149.469 15.0685 149.046 15.1928 148.614 15.2817L148.547 15.295V9.439C148.533 8.94629 148.56 8.45327 148.628 7.96499H147.256C147.319 8.45368 147.346 8.94637 147.336 9.439V15.5733L143.939 16.357C143.529 16.459 143.11 16.5212 142.688 16.5427L142.834 17.8444C143.127 17.751 143.62 17.6182 144.113 17.4987L147.336 16.7684V18.5747C147.353 19.0849 147.327 19.5958 147.256 20.1015H148.628C148.566 19.5992 148.539 19.0934 148.547 18.5875V16.4898L148.734 16.4366ZM146.15 11.8691L146.896 10.8865C146.149 10.0785 145.299 9.37296 144.366 8.78833L143.647 9.67816C144.583 10.2839 145.427 11.0217 146.151 11.8687L146.15 11.8691ZM145.711 15.1358L146.403 14.1532C145.656 13.3818 144.825 12.696 143.926 12.1084L143.193 12.9849C144.128 13.5823 144.976 14.3061 145.711 15.1354L145.711 15.1358ZM143.167 14.6311C142.379 14.0656 141.739 13.3186 141.302 12.4535H142.048C142.378 12.446 142.708 12.4681 143.034 12.5196V11.3247C142.713 11.3799 142.387 11.4022 142.062 11.3914H141.262V9.58557C141.83 9.44407 142.386 9.26205 142.927 9.04093C143.002 8.99497 143.083 8.95926 143.167 8.93473L142.461 7.91211C141.662 8.44341 140.104 8.84194 137.986 9.0676C138.197 9.39306 138.35 9.75235 138.439 10.1297C139.265 10.0102 139.531 9.97021 140.091 9.86407V11.3914H139.198C138.797 11.4036 138.395 11.3768 137.999 11.3113V12.533C138.388 12.477 138.779 12.4504 139.171 12.4535H139.944C139.777 12.9933 139.563 13.5176 139.304 14.0203C138.896 14.8808 138.357 15.6735 137.707 16.3707C137.997 16.7 138.227 17.0776 138.386 17.4862C139.204 16.4991 139.811 15.3559 140.17 14.1267C140.117 15.0565 140.09 15.614 140.09 15.9992V18.5219C140.095 19.0542 140.069 19.5862 140.011 20.1154H141.343C141.276 19.5869 141.25 19.0543 141.262 18.5219V15.6273C141.236 14.7108 141.209 14.0872 141.196 13.7682C141.509 14.4942 141.966 15.1492 142.541 15.6935C142.691 15.3079 142.903 14.949 143.168 14.6305L143.167 14.6311ZM63.1119 26.435L59.9422 26.4751C59.6628 26.4884 59.4762 26.5017 59.3694 26.5151C59.5722 26.1537 59.7545 25.7813 59.9155 25.3996C59.9872 25.2203 60.0812 25.0508 60.1953 24.8949L58.677 24.5631C58.5415 25.2138 58.2888 25.8347 57.9312 26.3956C57.1319 27.9192 55.959 29.2165 54.5217 30.1667C54.9557 30.3905 55.3266 30.7192 55.6004 31.1226C56.8323 30.1777 57.8912 29.0277 58.7303 27.7233L62.9388 27.6567C62.4873 29.2061 61.7161 30.6444 60.6747 31.8794C59.4318 33.3078 57.8467 34.3995 56.0668 35.053C56.4584 35.3603 56.7767 35.7504 56.9989 36.1951C58.797 35.4435 60.4034 34.3001 61.7003 32.8487C62.9434 31.3624 63.864 29.6353 64.404 27.7765C64.449 27.5129 64.5537 27.2631 64.7103 27.0461L63.9644 26.3292C63.6903 26.4213 63.4003 26.4573 63.1119 26.435ZM69.1737 31.0426H70.7318C70.6754 30.5092 70.6531 29.9728 70.6652 29.4366V26.5286C70.6574 26.054 70.6797 25.5793 70.7318 25.1075H69.1737C69.23 25.579 69.2523 26.0539 69.2403 26.5286V29.4366C69.25 29.9728 69.2278 30.509 69.1737 31.0426ZM75.2068 26.6079V27.949L75.2199 28.4403C75.242 29.3646 75.1796 30.2891 75.0336 31.2021C74.9293 31.7704 74.6947 32.3069 74.3482 32.7698C74.0016 33.2328 73.5524 33.6097 73.0357 33.871C72.22 34.3419 71.3196 34.6488 70.3855 34.7743C70.7397 35.1581 71.0116 35.6099 71.1847 36.102C72.0592 35.8734 72.9039 35.5436 73.7016 35.1194C74.3142 34.8104 74.8585 34.3821 75.3023 33.8598C75.7461 33.3375 76.0804 32.7319 76.2854 32.0786C76.5838 30.7504 76.7003 29.3879 76.6316 28.0285V26.5945C76.6158 26.1067 76.638 25.6183 76.6982 25.1339H75.1401C75.208 25.6221 75.2303 26.1155 75.2068 26.6079ZM83.133 32.9418C82.4964 32.9593 81.8594 32.9238 81.2287 32.8356V34.3487C81.8531 34.2928 82.48 34.2707 83.1068 34.2826H90.152C91.0439 34.2826 91.6437 34.3088 92.1097 34.3487V32.8481C91.4558 32.9265 90.797 32.9577 90.1386 32.9415L83.133 32.9418ZM89.0065 27.869C89.5979 27.857 90.1894 27.8793 90.7781 27.9357V26.435C90.1829 26.5215 89.5809 26.5527 88.9798 26.5284H84.4253C83.8067 26.5508 83.1872 26.5196 82.574 26.435V27.9357C83.1803 27.8774 83.7896 27.8551 84.3986 27.869H89.0065ZM97.1868 27.949L96.0143 28.3209C96.5666 29.2942 96.9791 30.34 97.2396 31.4278L98.5053 31.0165C98.1823 29.948 97.7401 28.9191 97.1868 27.949ZM99.9836 27.4177L98.8246 27.7628C99.3503 28.7192 99.7572 29.7358 100.037 30.7903L101.275 30.3923C100.967 29.3524 100.533 28.3536 99.9836 27.4177ZM103.153 29.184C102.741 31.0491 101.655 32.698 100.103 33.8177C99.4245 34.3259 98.6752 34.7331 97.8789 35.0265C98.2474 35.3289 98.5549 35.6984 98.7848 36.1153C100.329 35.433 101.679 34.379 102.713 33.0479C103.664 31.7263 104.309 30.2119 104.605 28.6127C104.638 28.3945 104.696 28.1807 104.778 27.9757L103.419 27.6698C103.403 28.1846 103.314 28.6945 103.153 29.184ZM117.193 26.435L114.023 26.4751C113.743 26.4884 113.557 26.5017 113.451 26.5151C113.653 26.1535 113.835 25.7811 113.996 25.3996C114.068 25.2203 114.162 25.0508 114.276 24.8949L112.758 24.5631C112.622 25.2139 112.37 25.8348 112.012 26.3956C111.213 27.9192 110.04 29.2165 108.602 30.1667C109.037 30.3906 109.408 30.7192 109.682 31.1226C110.913 30.1776 111.972 29.0276 112.811 27.7233L117.02 27.6567C116.568 29.2062 115.797 30.6445 114.756 31.8794C113.513 33.3078 111.928 34.3995 110.148 35.053C110.539 35.3602 110.858 35.7503 111.08 36.1951C112.878 35.4435 114.485 34.3001 115.782 32.8487C117.024 31.3623 117.945 29.6352 118.485 27.7765C118.53 27.5129 118.635 27.2631 118.792 27.0461L118.046 26.3292C117.771 26.4214 117.481 26.4574 117.193 26.435Z" fill="#F7F7F7"/>
<path id="Vector_2" d="M43.0347 17.9529C42.8048 18.4826 42.5439 18.9985 42.2534 19.4978C42.0708 19.7979 41.8124 20.045 41.5041 20.2145C41.1958 20.3839 40.8483 20.4699 40.4962 20.4637H19.6069C19.4622 20.4626 19.3194 20.4316 19.1874 20.3725C19.0554 20.3134 18.9371 20.2276 18.8402 20.1205C18.7433 20.0134 18.6698 19.8873 18.6244 19.7503C18.579 19.6134 18.5626 19.4685 18.5764 19.3249C18.6105 18.937 18.6445 18.4968 18.6747 18.0284C18.6933 17.7204 18.8288 17.4309 19.0536 17.2188C19.2784 17.0066 19.5758 16.8877 19.8853 16.8862H42.2974C42.4262 16.8833 42.5537 16.9124 42.6685 16.9709C42.7832 17.0294 42.8816 17.1154 42.9547 17.2212C43.0278 17.327 43.0734 17.4492 43.0874 17.5769C43.1014 17.7047 43.0833 17.8338 43.0347 17.9529ZM1.83329 16.8862C1.70447 16.8834 1.57696 16.9125 1.46224 16.971C1.34752 17.0295 1.24919 17.1155 1.17608 17.2212C1.10297 17.327 1.05738 17.4493 1.04342 17.577C1.02946 17.7047 1.04755 17.8339 1.09609 17.9529C1.32601 18.4826 1.58691 18.9985 1.87745 19.4978C2.06008 19.7979 2.31844 20.045 2.62676 20.2145C2.93507 20.3839 3.28257 20.4699 3.63459 20.4637H13.3412C13.6556 20.4654 13.9592 20.3493 14.1919 20.1385C14.4246 19.9277 14.5695 19.6376 14.598 19.3254C14.6277 18.9752 14.6582 18.5523 14.6856 18.0324C14.6928 17.8841 14.6696 17.7359 14.6174 17.5968C14.5653 17.4577 14.4853 17.3306 14.3822 17.2234C14.2792 17.1161 14.1554 17.0309 14.0183 16.9729C13.8811 16.9149 13.7336 16.8853 13.5847 16.886L1.83329 16.8862ZM13.7429 24.7062C13.7759 24.5727 13.7778 24.4334 13.7485 24.2991C13.7192 24.1647 13.6594 24.0388 13.5738 23.931C13.4882 23.8232 13.3789 23.7364 13.2544 23.6771C13.13 23.6179 12.9936 23.5879 12.8556 23.5893H3.59875C3.24644 23.5834 2.89877 23.67 2.59069 23.8405C2.28262 24.011 2.025 24.2594 1.84376 24.5607C-0.881856 29.3016 -0.451968 34.4279 2.2525 38.3277C2.34068 38.451 2.4532 38.5551 2.58315 38.6335C2.7131 38.7119 2.85776 38.763 3.00823 38.7837C3.1587 38.8044 3.31181 38.7942 3.4582 38.7538C3.60458 38.7134 3.74113 38.6436 3.8595 38.5487C8.84418 34.6744 12.2124 30.6559 13.7429 24.7062ZM26.9694 30.5232H16.6859C16.3388 30.5278 15.9989 30.6228 15.6999 30.7987C15.401 30.9747 15.1533 31.2254 14.9815 31.5261C14.6717 32.0549 14.3654 32.5461 14.2806 32.6661C12.1041 35.846 9.34971 38.5914 6.15972 40.7605C6.05248 40.8332 5.96481 40.931 5.90445 41.0453C5.84409 41.1597 5.81289 41.2872 5.81362 41.4164C5.81434 41.5457 5.84697 41.6728 5.90861 41.7865C5.97025 41.9002 6.05901 41.997 6.16706 42.0684C10.5667 44.8263 16.3702 44.8094 21.4391 40.8549C21.6182 40.7157 21.8387 40.6401 22.0658 40.6402C22.2929 40.6403 22.5134 40.716 22.6923 40.8554C24.8379 42.592 27.4447 43.6675 30.1937 43.9502C30.3427 43.9602 30.4922 43.9391 30.6326 43.8883C30.7729 43.8375 30.9012 43.7581 31.009 43.6551C31.1169 43.5521 31.202 43.4278 31.259 43.2902C31.316 43.1526 31.3436 43.0046 31.34 42.8558C31.3316 36.2248 31.4916 32.8976 30.6766 31.5429C30.1375 30.6467 28.5763 30.5232 26.9694 30.5232ZM42.2871 24.5596C42.1056 24.2586 41.8479 24.0105 41.5398 23.8402C41.2318 23.6699 40.8842 23.5834 40.532 23.5893H19.1048C18.7797 23.5936 18.4654 23.7059 18.2116 23.9086C17.9578 24.1112 17.7792 24.3925 17.7041 24.7079C17.6005 25.1224 17.4809 25.5623 17.3496 26.0044C17.3109 26.1298 17.3021 26.2625 17.3239 26.3919C17.3458 26.5213 17.3976 26.6439 17.4753 26.7498C17.5531 26.8557 17.6545 26.9421 17.7716 27.002C17.8887 27.0619 18.0183 27.0938 18.1499 27.095H26.9694C28.2977 27.0465 29.6247 27.2215 30.8947 27.6126C34.8392 28.9982 34.7815 33.1645 34.7815 37.5893V42.3575C34.7783 42.4884 34.8072 42.6181 34.8657 42.7353C34.9242 42.8525 35.0106 42.9537 35.1173 43.03C35.2241 43.1063 35.3479 43.1554 35.478 43.1731C35.6081 43.1908 35.7406 43.1764 35.8639 43.1314C42.5509 40.4965 46.7414 32.2898 42.2871 24.5596ZM1.1865 13.7605H9.58272C9.92209 13.7564 10.2529 13.654 10.5349 13.4657C10.8169 13.2774 11.0379 13.0114 11.1709 12.7C12.8707 8.81247 15.4253 5.35561 18.6458 2.58515C18.7436 2.50506 18.8199 2.40195 18.8677 2.28511C18.9156 2.16828 18.9335 2.04142 18.9199 1.91595C18.9062 1.79049 18.8615 1.67036 18.7896 1.56646C18.7178 1.46256 18.6211 1.37813 18.5083 1.3208C9.44722 -3.00479 0.132814 3.95995 0.00186485 12.6136C0.00295278 12.7668 0.0345869 12.9183 0.0949326 13.0592C0.155278 13.2001 0.243129 13.3276 0.353369 13.4344C0.463609 13.5411 0.594032 13.6249 0.73706 13.6809C0.880089 13.7369 1.03287 13.764 1.1865 13.7605ZM15.5377 13.7605H18.7708C19.1165 13.7553 19.4546 13.6587 19.7506 13.4805C20.0466 13.3024 20.2899 13.0492 20.4557 12.7467C23.4808 7.38705 28.8655 3.2002 34.3515 1.09471C34.4273 1.06871 34.4929 1.01933 34.5388 0.953709C34.5846 0.888084 34.6084 0.80961 34.6065 0.729653C34.6047 0.649696 34.5774 0.572402 34.5286 0.508931C34.4798 0.445459 34.412 0.399119 34.335 0.376597C30.3798 -0.622696 25.9534 0.332894 22.0711 3.65286C22.067 3.65635 22.0611 3.65399 22.0569 3.65049C22.0542 3.64845 22.0509 3.64742 22.0475 3.64756C22.0442 3.64769 22.041 3.64901 22.0384 3.65126C18.9737 6.07741 16.5143 9.17842 14.8531 12.7111C14.8012 12.8247 14.7788 12.9495 14.7882 13.074C14.7975 13.1984 14.8381 13.3186 14.9064 13.4232C14.9746 13.5279 15.0683 13.6136 15.1786 13.6726C15.289 13.7316 15.4125 13.7618 15.5377 13.7605ZM24.4262 12.7961C24.3642 12.8912 24.3293 13.0013 24.3253 13.1146C24.3214 13.228 24.3484 13.3402 24.4036 13.4394C24.4588 13.5385 24.5401 13.6208 24.6387 13.6774C24.7373 13.734 24.8494 13.7627 24.9631 13.7605H42.9442C43.0979 13.7639 43.2507 13.7368 43.3937 13.6808C43.5368 13.6248 43.6673 13.5409 43.7776 13.4342C43.8878 13.3274 43.9758 13.1999 44.0362 13.059C44.0966 12.9181 44.1283 12.7666 44.1295 12.6134C44.092 10.8583 43.6916 9.12985 42.9532 7.5362C42.2149 5.94255 41.1545 4.51804 39.8384 3.35185C39.5726 3.11409 39.2498 2.94858 38.9011 2.87129C38.5525 2.794 38.1898 2.80754 37.8479 2.91057C33.8159 4.22212 30.1571 6.47633 27.1769 9.48499C26.1577 10.5 25.2367 11.6086 24.4262 12.7961Z" fill="#F7F7F7"/>
</g>
<defs>
<clipPath id="clip0_1214_2082">
<rect width="150" height="44" fill="white"/>
</clipPath>
</defs>
</svg>
