<svg fill="none" height="53" viewBox="0 0 180 53" width="180" xmlns="http://www.w3.org/2000/svg" xmlns:xlink="http://www.w3.org/1999/xlink"><clipPath id="a"><path d="m0 0h180v52.958h-180z"/></clipPath><g clip-path="url(#a)"><path d="m77.1725 10.961c.6142.0105 1.2283-.0216 1.838-.0962v1.4703c-.6101-.068-1.2242-.0946-1.838-.0796h-2.0776v.687c-.0055.3156.0158.6312.0638.9432h-1.5024c.0337-.3078.0498-.6173.0481-.927v-.7031h-3.7719v.6706c-.0029.3205.0132.6408.0482.9593h-1.5025c.0469-.3067.0683-.6168.0639-.927v-.7031h-1.9497c-.6084-.015-1.2171.0116-1.8219.0797v-1.4704c.6045.0732 1.2132.1053 1.8219.0963h1.9497v-.3358c-.0008-.3478-.0275-.69503-.0799-1.03884h1.5503c-.0523.34383-.079.69104-.08 1.03884v.3358h3.7719v-.3358c.0058-.3481-.021-.69581-.08-1.03884h1.5504c-.0524.34381-.0791.69104-.0799 1.03884v.3358zm-4.7465 3.8833v-.7191c-.0105-.3375.0163-.6752.0799-1.0068h-1.518c.0571.3325.0839.6695.0799 1.0068v.7191h-4.4111c-.6141.0103-1.2282-.0216-1.8379-.0956v1.4859c.6109-.058 1.2243-.0846 1.8379-.0795h2.5571c-.0478.703-.0639.895-.096 1.2147-.1487 1.327-.701 2.5763-1.5821 3.5796-.7936.8843-1.7846 1.5689-2.8925 1.9982.4303.3462.7932.7686 1.0706 1.2462.5266-.265 1.0292-.5752 1.5022-.9271.7744-.5905 1.4536-1.2965 2.0139-2.0931.4591-.6761.7946-1.4283.9907-2.2216h5.1941c-.0171 1.0948-.2113 2.1796-.5753 3.2123-.1277.2716-.3515.3673-.8629.3673-.8482-.0117-1.6935-.1027-2.5248-.2717.1948.4843.3081.9975.3353 1.5188 1.0708.0796 1.4704.0957 2.0297.0957 1.6463 0 2.2216-.3197 2.557-1.4222.3616-1.4022.5812-2.8372.6553-4.2834.0098-.1875.0312-.3742.0639-.5591-.5415.0547-1.0858.0762-1.6299.0641h-4.9706c.0478-.2876.0478-.3357.1277-.9431.0161-.1278.0479-.3198.08-.5753h6.4407c.6188-.0058 1.2375.0207 1.8536.0795v-1.4859c-.6149.0745-1.2343.1064-1.8536.0957zm13.6348 6.808c-1.4263.7688-3.0015 1.2213-4.6184 1.3266.3463.3616.6225.7844.8147 1.2468 1.7518-.2412 3.4338-.8454 4.9386-1.774zm3.9956.7994c1.561.9196 3.2879 1.5224 5.0821 1.774.2373-.4558.5155-.889.8312-1.2944-1.6935-.0995-3.3505-.5343-4.8747-1.279zm-6.6804-2.4136v-3.1963c0-.7512-.0161-1.1981-.0479-1.6777.3834.0321.8791.0482 1.63.0482h7.4953c.8791 0 1.1985-.0161 1.63-.0482-.0318.4475-.0479.895-.0479 1.7419v3.0525c-.01.5602.0113 1.1205.064 1.6783-.3354-.0321-1.0068-.0481-1.742-.0481h-7.3197c-.7191 0-1.3742.016-1.7259.0481.0548-.531.0762-1.065.0641-1.5987zm1.3741-3.0042h7.8954v-.7674h-7.895zm0 1.7419h7.8954v-.7834h-7.895zm0 1.7419h7.8954v-.7824h-7.895zm4.8426-7.2394v-1.758c.0055-.4324-.0159-.8647-.0639-1.2944.4563.0491.9152.0704 1.3742.0636h3.0685c.4589.0072.9178-.0141 1.3741-.0636-.0475.4405-.0689.8835-.0639 1.3265v1.6456c-.0051.422.0163.8438.0639 1.263-.3994-.0321-.8309-.0482-1.3265-.0482h-3.1485c-.5272 0-.9108.0161-1.3423.0482.0467-.3924.0681-.7875.0644-1.1827zm1.3583 0h2.9728v-1.7901h-2.9728zm-9.6687 1.1025c.3874.2688.7185.6109.9746 1.0068 1.7741-.9426 2.717-1.9976 3.2124-3.5476h1.8861c-.0799 1.5179-.1438 1.6778-.7834 1.6778-.2876 0-.7351-.0321-1.3265-.0957.1651.3621.2575.753.2719 1.1506.5272.0321.8153.0481 1.1828.0481.879 0 1.2783-.1284 1.5181-.4956.2556-.3679.3353-.8148.4476-2.2852.0157-.208.0157-.3679.0317-.4635.0161-.192.0322-.3198.0322-.3682.016-.2395.016-.2395.0317-.3833-.3993.0321-.7352.0481-1.2624.0481h-1.7741c.0161-.1598.064-.5438.064-.5759.016-.2716.016-.2716.032-.4315l.0319-.20736h-1.4704c.0391.19998.0553.40374.0481.60736-.006.2038-.0274.4069-.0642.6074h-1.2305c-.4862.0141-.9726-.0128-1.4543-.0802v1.3104c.4455-.0518.8941-.073 1.3426-.0635h1.0546c-.4312 1.1027-1.2144 1.8057-2.7965 2.541zm27.6667 1.6783c.566.0133 1.131-.0081 1.694-.0642-.052.6113-.073 1.2249-.063 1.8383v4.6981c.025.213-.005.4288-.086.6273-.081.1986-.211.3733-.378.5079-.304.2074-.783.2715-1.966.2715-.415 0-.735.0001-1.438-.032-.036-.4464-.128-.8865-.272-1.3105.64.0642 1.487.1117 2.014.1117.544 0 .703-.0956.703-.4475v-.863h-7.432v.895c-.008.5983.024 1.1964.097 1.7902h-1.598c.069-.6422.095-1.2882.079-1.9339v-4.3951c.014-.5867-.008-1.1738-.064-1.758.528.0482 1.055.0642 1.774.0642zm.208 3.2124h-7.432v.9746h7.432zm0-2.0777h-7.432v.9271h7.432zm2.381-5.7536v2.3493c-.005.5123.017 1.0245.064 1.5346-.493-.0536-.99-.075-1.486-.0642h-9.349c-.491-.0109-.9827.0105-1.4708.0642.0481-.5753.0635-.9112.0635-1.5346v-2.3493c.0082-.5121-.013-1.0243-.0635-1.53397.5469.05594 1.0968.08252 1.6458.07962h9.014c.55.00245 1.099-.02413 1.646-.07962-.052.50957-.074 1.02187-.064 1.53397zm-6.904 1.7265h-3.899v1.0222h3.899zm0-2.0938h-3.899v.9907h3.899zm5.514 2.0938h-4.171v1.0222h4.171zm0-2.0938h-4.171v.9907h4.171zm17.95 4.8105c.524.0225 1.049-.0095 1.566-.0957v1.3419c-.519-.0657-1.043-.0923-1.566-.0796h-4.299c-.145.3238-.328.6295-.544.9111h4.555c.486.0139.972-.0076 1.455-.0642-.032.2395-.032.3358-.064.9271-.128 2.4932-.256 3.6438-.512 4.3308-.223.6716-.638.879-1.693.879-.454.0016-.908-.025-1.359-.0796-.049-.4855-.156-.9632-.32-1.4228.496.1269 1.007.1913 1.519.1919.383 0 .527-.0636.607-.2555.275-1.0918.409-2.2142.4-3.34h-.624c-.415 1.1061-1.058 2.1131-1.886 2.9561-.758.8465-1.662 1.5502-2.669 2.0776-.246-.3658-.561-.6804-.926-.9265 1.017-.4651 1.943-1.1093 2.732-1.9018.634-.6352 1.144-1.3832 1.503-2.2056h-1.087c-.974 1.5096-2.345 2.7208-3.964 3.5-.199-.3611-.458-.6855-.767-.9593.812-.3201 1.567-.7679 2.237-1.3265.437-.3506.824-.7591 1.151-1.2142h-1.278c-.509.4841-1.085.893-1.71 1.2142-.168-.3403-.401-.6442-.687-.8942v3.0524c.03.3677-.054.7358-.24 1.0544-.223.2876-.575.4-1.374.4-.352 0-.56-.0001-.943-.0322-.004-.4829-.102-.9605-.288-1.4061.372.0882.753.1364 1.135.1438.368 0 .447-.0803.447-.4321v-3.4197h-1.63c-.144 2.7166-.415 4.0431-1.054 5.3216-.322-.4105-.686-.7855-1.087-1.1186.783-1.7098.99-3.8037.99-9.7487.032-1.1086.005-2.2181-.079-3.32398.467.04708.936.06838 1.406.06358h1.502c.422.0102.844-.01112 1.263-.06358-.032.41538-.048.67098-.048 1.45428v7.9747c.553-.2474 1.069-.57 1.534-.9586.451-.3742.821-.8364 1.087-1.3586h-.703c-.486-.0031-.972.0235-1.455.0796v-1.3265c.493.0667.99.0936 1.487.0803zm-9.493-.863h-1.55l-.032 2.5093h1.582zm0-3.7241h-1.534v2.4612h1.534zm2.525 2.3333v-2.1894c.01-.4803-.012-.9607-.064-1.4383.525.0653 1.053.0921 1.582.0803h4.123c.566.0136 1.133-.0132 1.695-.0803-.053.5097-.075 1.0222-.064 1.5346v2.0931c-.01.4964.012.9928.064 1.4865-.384-.0322-.799-.0482-1.454-.0482h-4.476c-.491-.0096-.982.0119-1.47.0642.051-.4991.072-1.0008.064-1.5025zm1.327-1.566h4.618v-.895h-4.618zm0 1.95h4.618v-.895h-4.618zm19.356.2716.895-1.1827c-.896-.9724-1.917-1.8216-3.036-2.5253l-.863 1.071c1.124.7292 2.135 1.6175 3.004 2.637zm-.527 3.9318.831-1.1827c-.896-.9284-1.894-1.7539-2.973-2.4611l-.879 1.0549c1.122.7193 2.138 1.5906 3.021 2.5889zm-9.605 1.4864c.348.3962.624.8507.815 1.3426.981-1.1881 1.71-2.5641 2.141-4.0436-.063 1.1192-.095 1.7902-.095 2.2538v3.0363c.005.6406-.027 1.281-.096 1.9179h1.598c-.079-.636-.112-1.2771-.096-1.9179v-3.4839c-.032-1.1031-.064-1.8537-.08-2.2376.376.8738.925 1.6622 1.614 2.3172.181-.4636.434-.8952.751-1.2783-.946-.6806-1.713-1.5799-2.237-2.6211h.895c.396-.009.792.0177 1.183.0797v-1.4383c-.385.0665-.776.0933-1.167.0803h-.959v-2.1735c.681-.1703 1.348-.3893 1.998-.6555.09-.0553.186-.0982.287-.1278l-.847-1.23079c-.959.63949-2.828 1.11909-5.37 1.39069.253.3918.437.8243.544 1.2784.991-.1438 1.311-.192 1.982-.3198v1.8383h-1.071c-.482.0147-.964-.0175-1.439-.0963v1.4703c.466-.0673.936-.0993 1.407-.0957h.927c-.201.6498-.458 1.2808-.768 1.8859-.49 1.0353-1.136 1.9891-1.916 2.8281zm13.089-1.3105-.08.0161v-7.0483c-.017-.593.015-1.1864.096-1.7741h-1.645c.075.5882.107 1.1812.095 1.7741v7.3832l-4.075.9432c-.492.1228-.995.1977-1.502.2236l.175 1.5667c.352-.1124.944-.2723 1.535-.4161l3.867-.879v2.174c.022.6142-.01 1.229-.095 1.8376h1.646c-.074-.6044-.106-1.2133-.097-1.8222v-2.5247l.225-.0643c.607-.1277 1.071-.2235 1.518-.2716l-.144-1.566c-.493.1909-1.001.3405-1.519.4474zm11.718-6.6326c.015-.176.015-.3834.031-.6389.032-.7673.032-.7673.032-.9111.012-.27381.044-.54635.097-.81528h-1.695c.086.45839.124.92458.112 1.39078 0 .2877-.016.5432-.031.9747h-4.044c-.582.0098-1.164-.0168-1.742-.0796.051.4989.072 1.0003.064 1.5018v9.0141c.01.6252-.028 1.2502-.112 1.8698h1.678c-.072-.6151-.099-1.2347-.079-1.8537v-9.126h4.122c-.094 1.4622-.641 2.8587-1.566 3.9957-.695.8328-1.554 1.5129-2.525 1.9975.392.3399.722.7455.975 1.1987 1.267-.6978 2.346-1.6899 3.149-2.8926.352-.5243.632-1.0944.83-1.6944.944 1.7929 2.352 3.2996 4.076 4.363.247-.4946.577-.9433.975-1.3266-.536-.2904-1.049-.6218-1.534-.9913-.524-.4036-1.011-.8528-1.455-1.3426-.659-.7635-1.192-1.6264-1.582-2.5568.048-.2876.064-.4154.112-.7511h4.507v8.9017c0 .4315-.096.4799-.847.4799-.718-.006-1.434-.0702-2.141-.1919.222.4783.358.9927.399 1.5188.751.0475 1.151.0635 1.662.0635.61.042 1.222-.0283 1.806-.2074.463-.192.607-.5117.607-1.3105v-9.1585c-.008-.5014.014-1.0029.064-1.5018-.578.0645-1.16.0911-1.742.0796zm21.993 8.0227c.607-.1278 1.071-.2235 1.519-.2716l-.144-1.566c-.493.1909-1.001.3406-1.519.4475l-.08.0161v-7.0483c-.017-.593.015-1.1864.096-1.7741h-1.646c.076.5882.108 1.1812.096 1.7741v7.3832l-4.076.9432c-.492.1228-.995.1977-1.502.2236l.176 1.5667c.352-.1124.943-.2723 1.534-.4161l3.868-.879v2.174c.021.6142-.011 1.229-.096 1.8376h1.646c-.073-.6044-.106-1.2133-.096-1.8222v-2.5247zm-3.101-5.4975.895-1.1826c-.896-.9725-1.917-1.8217-3.036-2.5253l-.863 1.071c1.124.729 2.136 1.617 3.005 2.6365zm-.527 3.9318.831-1.1827c-.896-.9284-1.894-1.7538-2.973-2.4611l-.879 1.055c1.122.7191 2.139 1.5902 3.022 2.5883zm-3.052-.6074c-.947-.6806-1.714-1.5798-2.238-2.621h.895c.396-.009.792.0176 1.183.0796v-1.4382c-.385.0664-.776.0933-1.167.0803h-.959v-2.1735c.681-.1703 1.348-.3894 1.998-.6555.09-.0553.186-.0983.288-.1278l-.848-1.23085c-.959.63945-2.828 1.11915-5.37 1.39075.254.3917.437.8242.544 1.2783.991-.1438 1.311-.1919 1.982-.3197v1.8383h-1.071c-.482.0147-.963-.0176-1.439-.0964v1.4704c.466-.0674.936-.0993 1.407-.0957h.927c-.201.6497-.458 1.2808-.768 1.8858-.49 1.0357-1.137 1.9898-1.917 2.829.348.3962.624.8507.815 1.3426.981-1.1881 1.71-2.564 2.141-4.0435-.063 1.1191-.095 1.7901-.095 2.2537v3.0363c.005.6407-.027 1.281-.096 1.9179h1.598c-.079-.636-.112-1.2771-.096-1.9179v-3.4839c-.032-1.103-.064-1.8536-.08-2.2376.376.8738.925 1.6622 1.614 2.3172.181-.464.435-.8959.752-1.2793zm-96.0667 14.2071-3.8037.0482c-.3353.016-.5592.0321-.6873.0481.2433-.4349.4621-.8832.6552-1.3426.0861-.2157.199-.4197.3358-.6074l-1.8219-.3993c-.1627.7832-.4659 1.5304-.895 2.2055-.9591 1.8338-2.3666 3.3952-4.0914 4.5388.5208.2695.9659.665 1.2945 1.1506 1.4783-1.1372 2.7489-2.5214 3.7558-4.0913l5.0503-.0802c-.5419 1.8649-1.4673 3.5959-2.717 5.0824-1.4915 1.7192-3.3936 3.0332-5.5294 3.8197.4698.3699.8518.8393 1.1185 1.3746 2.1576-.9046 4.0853-2.2808 5.6416-4.0277 1.4917-1.7889 2.5964-3.8676 3.2444-6.1049.054-.3172.1797-.6178.3676-.879l-.8951-.8629c-.3289.1108-.6768.1541-1.0229.1274zm7.2741 5.5456h1.8697c-.0677-.6419-.0944-1.2876-.0799-1.933v-3.5c-.0093-.5713.0174-1.1425.0799-1.7104h-1.8697c.0676.5675.0944 1.1391.0799 1.7104v3.5c.0117.6455-.015 1.2908-.0799 1.933zm7.2398-5.3376v1.6142l.0157.5913c.0265 1.1125-.0484 2.2252-.2236 3.3241-.1251.684-.4067 1.3297-.8225 1.8869-.4159.5572-.9549 1.0108-1.575 1.3254-.9788.5668-2.0592.9361-3.1802 1.0871.425.462.7513 1.0057.959 1.5981 1.0494-.2752 2.063-.6722 3.0203-1.1827.7352-.3719 1.3883-.8874 1.9209-1.516.5325-.6286.9337-1.3576 1.1797-2.1439.3581-1.5986.4978-3.2384.4154-4.8746v-1.7259c-.019-.5872.0077-1.175.0799-1.758h-1.8696c.0814.5876.1082 1.1815.08 1.774zm9.5114 7.6234c-.764.0212-1.5284-.0216-2.2852-.1278v1.8213c.7492-.0674 1.5016-.094 2.2537-.0796h8.4539c1.071 0 1.79.0314 2.35.0796v-1.8062c-.785.0944-1.576.132-2.366.1124zm7.0484-6.1055c.709-.0144 1.419.0124 2.126.0803v-1.8062c-.715.104-1.437.1417-2.158.1123h-5.466c-.742.027-1.4853-.0106-2.2212-.1123v1.8062c.7276-.0702 1.4582-.0971 2.1892-.0803zm9.816.0963-1.407.4476c.663 1.1714 1.158 2.4302 1.47 3.7394l1.519-.495c-.387-1.286-.918-2.5244-1.582-3.692zm3.356-.6394-1.391.4153c.631 1.1511 1.12 2.3747 1.455 3.6438l1.486-.479c-.37-1.2516-.89-2.4537-1.55-3.5801zm3.804 2.1259c-.495 2.2447-1.798 4.2294-3.66 5.577-.815.6117-1.714 1.1017-2.669 1.455.442.3639.811.8086 1.087 1.3104 1.853-.8212 3.473-2.0898 4.714-3.6919 1.14-1.5907 1.915-3.4134 2.27-5.3382.039-.2626.109-.5199.207-.7666l-1.63-.3682c-.02.6196-.127 1.2332-.319 1.8225zm16.847-3.3087-3.803.0482c-.336.016-.56.0321-.687.0481.243-.4351.461-.8834.655-1.3426.086-.2157.199-.4197.335-.6074l-1.822-.3993c-.162.7833-.465 1.5305-.895 2.2055-.959 1.8338-2.366 3.3952-4.091 4.5388.521.2695.966.6651 1.295 1.1506 1.478-1.1373 2.749-2.5215 3.756-4.0913l5.049-.0802c-.541 1.8649-1.466 3.5961-2.716 5.0824-1.492 1.7192-3.394 3.0332-5.53 3.8197.47.3698.852.8393 1.119 1.3746 2.158-.9046 4.085-2.2808 5.642-4.0277 1.491-1.789 2.596-3.8677 3.244-6.1049.054-.3172.18-.6178.368-.879l-.895-.8629c-.329.1109-.677.1543-1.024.1274z" fill="#4a4a4a"/><path d="m51.6417 21.6079c-.2759.6376-.5889 1.2585-.9375 1.8594-.2192.3612-.5293.6587-.8992.8627-.37.2039-.787.3074-1.2095.2999h-25.0671c-.1737-.0012-.3451-.0386-.5035-.1098-.1584-.0711-.3003-.1744-.4166-.3033s-.2045-.2806-.259-.4455c-.0545-.1648-.0741-.3392-.0575-.512.0408-.4669.0816-.9968.1179-1.5604.0223-.3708.1849-.7192.4547-.9745.2698-.2554.6266-.3985.998-.4003h26.8945c.1546-.0035.3076.0316.4453.1019.1377.0704.2557.1739.3435.3013.0878.1273.1425.2744.1592.4281.0168.1538-.0049.3093-.0632.4525zm-49.4417-1.2838c-.15458-.0034-.3076.0316-.44526.102-.13767.0704-.25566.1739-.34339.3012-.08774.1274-.14244.2745-.1592.4282-.01675.1537.00496.3092.06321.4524.2759.6376.58898 1.2585.93763 1.8594.21916.3612.52919.6587.89917.8627.36998.2039.78697.3074 1.20939.2999h11.64795c.3773.002.7416-.1377 1.0208-.3914.2793-.2537.4532-.6029.4873-.9786.0357-.4216.0723-.9305.1052-1.5562.0086-.1785-.0192-.357-.0818-.5244s-.1586-.3203-.2823-.4494c-.1236-.1291-.2722-.2317-.4367-.3015-.1646-.0698-.3416-.1054-.5203-.1045zm14.2915 9.4121c.0396-.1607.0419-.3283.0068-.4901-.0352-.1617-.1069-.3132-.2097-.4429-.1028-.1298-.2338-.2343-.3832-.3056s-.3131-.1074-.4786-.1057h-11.10825c-.42278-.0071-.83998.0971-1.20967.3023-.36969.2053-.67883.5043-.89632.8669-3.27074 5.7061-2.754872 11.876.49049 16.5698.10582.1484.24084.2737.39678.368.15594.0944.32953.1559.51009.1808s.36431.0127.53997-.036c.17566-.0486.33952-.1326.48155-.2469 5.98166-4.6629 10.02356-9.4996 11.86006-16.6606zm15.8718 7.0012h-12.3402c-.4165.0056-.8244.1199-1.1831.3317-.3588.2117-.656.5135-.8622.8755-.3717.6364-.7393 1.2276-.8411 1.372-2.6117 3.8273-5.917 7.1317-9.74498 9.7425-.1287.0873-.2339.2051-.30634.3427-.07243.1377-.10986.2911-.10899.4467s.04002.3085.11399.4453c.07397.1369.18048.2535.31014.3394 5.27958 3.3194 12.24378 3.299 18.32648-1.4606.2149-.1675.4795-.2585.752-.2584s.5371.0912.7518.259c2.5747 2.0902 5.7029 3.3846 9.0017 3.7249.1788.0121.3582-.0133.5266-.0745.1685-.0611.3223-.1567.4518-.2807.1294-.1239.2316-.2735.2999-.4392.0684-.1656.1015-.3437.0972-.5228-.01-7.9811.1819-11.9856-.796-13.6161-.6469-1.0787-2.5204-1.2274-4.4487-1.2274zm18.3812-7.1776c-.2177-.3623-.527-.6609-.8966-.8659-.3697-.205-.7868-.3091-1.2094-.302h-25.7127c-.3901.0051-.7673.1404-1.0718.3842-.3045.2439-.5189.5825-.6091.9621-.1242.4989-.2678 1.0283-.4253 1.5604-.0465.151-.057.3107-.0308.4665s.0884.3033.1817.4307c.0932.1275.215.2315.3555.3036s.296.1104.4539.1119h10.5834c1.594-.0583 3.1864.1523 4.7104.623 4.7333 1.6677 4.6642 6.6823 4.6642 12.0078v5.7391c-.0039.1575.0308.3136.101.4547.0702.141.1739.2628.302.3546.128.0919.2766.151.4328.1723.1561.0212.3151.004.463-.0502 8.0244-3.1713 13.053-13.0489 7.7078-22.3528zm-49.32065-12.9977h10.07545c.4073-.005.8043-.1283 1.1427-.3549.3384-.2267.6035-.5468.7631-.9215 2.0397-4.6791 5.1053-8.83975 8.9699-12.17424.1174-.0964.2089-.22051.2663-.36113.0575-.14062.079-.29331.0626-.44432s-.0701-.29559-.1563-.42064-.2022-.22667-.3376-.29568c-10.8733-5.20624-22.050574 3.17646-22.20771336 13.59201.00130553.1844.03926646.3666.11168136.5362.072415.1696.177836.3231.310123.4516.132288.1284.288796.2293.46043.2967.171639.0674.354979.1.539329.0959zm17.22145 0h3.8797c.4148-.0064.8206-.1227 1.1758-.337.3552-.2144.6472-.5192.8461-.8833 3.6301-6.45081 10.0917-11.49007 16.6749-14.02423.0911-.03129.1698-.09072.2248-.16971.055-.07898.0835-.173432.0813-.269668s-.035-.189266-.0935-.26566c-.0586-.076393-.1399-.132168-.2323-.159275-4.7463-1.202742-10.058-.0526-14.7167 3.943283-.005.0042-.0121.00136-.017-.00285-.0033-.00245-.0072-.0037-.0113-.00353-.004.00016-.0079.00174-.0109.00445-3.6777 2.9201-6.629 6.65249-8.6224 10.90439-.0623.1367-.0891.2869-.078.4367.0112.1498.06.2944.1419.4204.0819.1259.1943.2291.3267.3001s.2807.1074.4309.1059zm10.6662-1.1608c-.0744.1144-.1163.247-.121.3834-.0048.1364.0277.2715.0939.3908.0663.1194.1638.2184.2821.2865s.2529.1027.3893.1001h21.5773c.1844.004.3678-.0286.5394-.096.1717-.0675.3283-.1684.4606-.2968.1324-.1285.2379-.282.3103-.4516.0725-.1696.1106-.3519.112-.5363-.0449-2.1124-.5254-4.1928-1.4115-6.1109-.886-1.9181-2.1585-3.63263-3.7377-5.03626-.3191-.28616-.7064-.48536-1.1248-.57839-.4183-.09302-.8536-.07673-1.2638.04728-4.8385 1.57857-9.2291 4.29171-12.8053 7.91297-1.2231 1.2217-2.3282 2.556-3.3008 3.9852z" fill="#56c1bb"/></g></svg>