<svg width="530" height="144" viewBox="0 0 530 144" fill="none" xmlns="http://www.w3.org/2000/svg">
<mask id="path-1-inside-1_1387_1565" fill="white">
<path d="M0 0H194V48H0V0Z"/>
</mask>
<path d="M194 47H0V49H194V47Z" fill="black" fill-opacity="0.1" mask="url(#path-1-inside-1_1387_1565)"/>
<path d="M9.512 32.9V27.842H14.498V32.9H9.512ZM15.704 23.684C15.644 23.588 15.542 23.474 15.398 23.342C15.266 23.21 15.122 23.078 14.966 22.946C14.822 22.814 14.696 22.712 14.588 22.64C15.08 22.328 15.56 21.944 16.028 21.488C16.496 21.032 16.934 20.546 17.342 20.03C17.762 19.502 18.134 18.974 18.458 18.446C18.794 17.918 19.064 17.426 19.268 16.97L20.708 17.222C21.044 17.882 21.476 18.542 22.004 19.202C22.532 19.85 23.114 20.45 23.75 21.002C24.386 21.554 25.04 22.01 25.712 22.37C25.616 22.442 25.496 22.556 25.352 22.712C25.22 22.868 25.088 23.03 24.956 23.198C24.836 23.366 24.746 23.504 24.686 23.612C24.11 23.276 23.522 22.85 22.922 22.334C22.322 21.806 21.764 21.23 21.248 20.606C20.732 19.97 20.294 19.328 19.934 18.68C19.646 19.268 19.28 19.868 18.836 20.48C18.404 21.08 17.918 21.656 17.378 22.208C16.85 22.76 16.292 23.252 15.704 23.684ZM16.01 33.332C15.938 33.164 15.818 32.936 15.65 32.648C15.494 32.372 15.35 32.162 15.218 32.018C16.346 31.706 17.456 31.274 18.548 30.722C19.652 30.158 20.666 29.516 21.59 28.796C22.526 28.076 23.306 27.326 23.93 26.546L25.064 27.464C24.38 28.352 23.558 29.18 22.598 29.948C21.638 30.716 20.594 31.388 19.466 31.964C18.35 32.54 17.198 32.996 16.01 33.332ZM16.766 29.804C16.682 29.66 16.544 29.45 16.352 29.174C16.16 28.898 15.986 28.7 15.83 28.58C16.598 28.304 17.372 27.932 18.152 27.464C18.944 26.996 19.682 26.48 20.366 25.916C21.062 25.352 21.638 24.794 22.094 24.242L23.228 25.178C22.748 25.766 22.154 26.354 21.446 26.942C20.75 27.518 20 28.058 19.196 28.562C18.392 29.054 17.582 29.468 16.766 29.804ZM16.136 26.942C16.052 26.81 15.902 26.618 15.686 26.366C15.482 26.114 15.314 25.934 15.182 25.826C16.214 25.37 17.18 24.788 18.08 24.08C18.992 23.372 19.76 22.634 20.384 21.866L21.464 22.784C20.816 23.588 20.042 24.344 19.142 25.052C18.242 25.76 17.24 26.39 16.136 26.942ZM8.684 21.578V20.264H15.2V21.578H8.684ZM9.548 19.058V17.708H14.39V19.058H9.548ZM9.548 26.618V25.304H14.39V26.618H9.548ZM9.548 24.098V22.784H14.39V24.098H9.548ZM10.952 31.568H13.04V29.156H10.952V31.568ZM34.73 33.368C34.718 33.164 34.676 32.918 34.604 32.63C34.544 32.354 34.478 32.132 34.406 31.964H35.504C35.744 31.964 35.912 31.928 36.008 31.856C36.116 31.772 36.17 31.616 36.17 31.388V29.462H33.2V26.06C32.948 26.252 32.684 26.444 32.408 26.636C32.132 26.816 31.85 26.996 31.562 27.176C31.478 27.044 31.352 26.882 31.184 26.69C31.016 26.498 30.86 26.342 30.716 26.222C30.596 27.638 30.32 28.916 29.888 30.056C29.468 31.196 28.88 32.198 28.124 33.062C27.992 32.942 27.794 32.792 27.53 32.612C27.266 32.444 27.044 32.33 26.864 32.27C27.56 31.526 28.088 30.674 28.448 29.714C28.82 28.754 29.066 27.668 29.186 26.456C28.85 26.648 28.472 26.846 28.052 27.05C27.632 27.254 27.266 27.422 26.954 27.554L26.45 26.024C26.702 25.928 27.002 25.814 27.35 25.682C27.698 25.538 28.046 25.394 28.394 25.25C28.754 25.094 29.048 24.956 29.276 24.836V18.482H35.108V16.934H36.746V18.482H42.794V19.832H30.788V24.332C30.788 24.632 30.782 24.938 30.77 25.25C30.758 25.55 30.74 25.844 30.716 26.132C31.532 25.676 32.252 25.166 32.876 24.602C32.648 24.398 32.42 24.206 32.192 24.026C31.964 23.834 31.736 23.66 31.508 23.504L32.354 22.64C32.558 22.784 32.786 22.958 33.038 23.162C33.29 23.354 33.524 23.546 33.74 23.738C33.932 23.534 34.106 23.318 34.262 23.09C34.43 22.862 34.586 22.634 34.73 22.406H31.148V21.164H35.36C35.456 20.96 35.534 20.75 35.594 20.534C35.666 20.318 35.726 20.096 35.774 19.868L37.196 20.102C37.148 20.282 37.094 20.462 37.034 20.642C36.974 20.822 36.914 20.996 36.854 21.164H42.74V22.406H38.6C38.804 22.67 39.02 22.922 39.248 23.162C39.476 23.39 39.716 23.612 39.968 23.828C40.4 23.432 40.808 22.994 41.192 22.514L42.254 23.27C42.074 23.462 41.87 23.672 41.642 23.9C41.414 24.128 41.18 24.344 40.94 24.548C41.756 25.1 42.62 25.544 43.532 25.88C43.4 25.976 43.244 26.156 43.064 26.42C42.896 26.684 42.764 26.9 42.668 27.068C42.296 26.9 41.93 26.72 41.57 26.528C41.21 26.336 40.862 26.126 40.526 25.898V29.462H37.628V31.82C37.628 32.852 37.034 33.368 35.846 33.368H34.73ZM42.182 33.062C41.558 32.786 40.928 32.426 40.292 31.982C39.656 31.526 39.11 31.082 38.654 30.65L39.644 29.714C40.076 30.122 40.61 30.524 41.246 30.92C41.882 31.304 42.482 31.61 43.046 31.838C42.902 31.958 42.734 32.156 42.542 32.432C42.362 32.708 42.242 32.918 42.182 33.062ZM31.526 33.062C31.49 32.966 31.418 32.834 31.31 32.666C31.214 32.51 31.106 32.348 30.986 32.18C30.866 32.024 30.758 31.91 30.662 31.838C31.238 31.598 31.838 31.292 32.462 30.92C33.086 30.548 33.62 30.146 34.064 29.714L35.054 30.65C34.574 31.118 34.022 31.568 33.398 32C32.786 32.42 32.162 32.774 31.526 33.062ZM27.926 24.026C27.83 23.774 27.692 23.474 27.512 23.126C27.344 22.766 27.164 22.412 26.972 22.064C26.792 21.704 26.618 21.404 26.45 21.164L27.674 20.516C27.818 20.732 27.986 21.008 28.178 21.344C28.37 21.68 28.556 22.028 28.736 22.388C28.928 22.748 29.084 23.072 29.204 23.36C29.108 23.396 28.976 23.462 28.808 23.558C28.64 23.642 28.472 23.726 28.304 23.81C28.148 23.894 28.022 23.966 27.926 24.026ZM34.946 24.422H38.69C38.078 23.834 37.532 23.162 37.052 22.406H36.314C36.122 22.778 35.912 23.132 35.684 23.468C35.456 23.792 35.21 24.11 34.946 24.422ZM34.748 28.31H38.978V27.392H34.748V28.31ZM34.748 26.402H38.978V25.538H34.748V26.402ZM55.52 33.368C55.496 33.128 55.442 32.846 55.358 32.522C55.286 32.198 55.214 31.94 55.142 31.748H56.474C56.726 31.748 56.906 31.706 57.014 31.622C57.122 31.538 57.176 31.376 57.176 31.136V27.428H51.218V25.97H57.176V24.08H50.822V22.604H54.944V20.714H51.38V19.22H54.944V16.952H56.654V19.22H60.416V20.714H56.654V22.604H61.19V24.08H58.85V25.97H60.884V27.428H58.85V31.658C58.85 32.21 58.688 32.63 58.364 32.918C58.04 33.218 57.542 33.368 56.87 33.368H55.52ZM45.368 30.254V18.446H50.39V30.254H45.368ZM46.898 28.778H48.86V25.034H46.898V28.778ZM46.898 23.558H48.86V19.922H46.898V23.558ZM54.44 30.974C54.236 30.698 53.984 30.41 53.684 30.11C53.384 29.798 53.078 29.504 52.766 29.228C52.454 28.952 52.172 28.73 51.92 28.562L52.91 27.464C53.198 27.668 53.51 27.908 53.846 28.184C54.182 28.46 54.5 28.736 54.8 29.012C55.112 29.288 55.364 29.546 55.556 29.786C55.472 29.858 55.346 29.978 55.178 30.146C55.022 30.314 54.872 30.476 54.728 30.632C54.584 30.788 54.488 30.902 54.44 30.974ZM75.266 33.242C75.242 33.014 75.194 32.738 75.122 32.414C75.05 32.09 74.978 31.844 74.906 31.676H76.202C76.454 31.676 76.628 31.634 76.724 31.55C76.832 31.454 76.886 31.298 76.886 31.082V23.396H71.792V17.492H78.506V31.604C78.506 32.156 78.356 32.564 78.056 32.828C77.768 33.104 77.294 33.242 76.634 33.242H75.266ZM63.512 33.278V17.492H70.208V23.396H65.114V33.278H63.512ZM67.724 31.37V24.728H74.258V31.37H67.724ZM69.236 30.11H72.764V28.616H69.236V30.11ZM69.236 27.464H72.764V25.988H69.236V27.464ZM65.114 22.154H68.642V20.984H65.114V22.154ZM73.358 22.154H76.886V20.984H73.358V22.154ZM65.114 19.868H68.642V18.734H65.114V19.868ZM73.358 19.868H76.886V18.734H73.358V19.868Z" fill="#4A4A4A"/>
<mask id="path-4-inside-2_1387_1565" fill="white">
<path d="M194 0H242V48H194V0Z"/>
</mask>
<path d="M242 47H194V49H242V47Z" fill="black" fill-opacity="0.1" mask="url(#path-4-inside-2_1387_1565)"/>
<path d="M211.466 33.368C211.334 33.2 211.136 33.002 210.872 32.774C210.62 32.546 210.386 32.378 210.17 32.27C211.238 31.526 212.036 30.596 212.564 29.48C213.092 28.364 213.356 26.954 213.356 25.25V17.582H223.13V31.478C223.13 32.642 222.446 33.224 221.078 33.224H219.62C219.596 32.984 219.542 32.684 219.458 32.324C219.386 31.976 219.308 31.706 219.224 31.514H220.7C220.964 31.514 221.15 31.472 221.258 31.388C221.366 31.292 221.42 31.118 221.42 30.866V27.194H214.922C214.754 28.598 214.382 29.792 213.806 30.776C213.242 31.76 212.462 32.624 211.466 33.368ZM215.03 25.664H221.42V23.162H215.048V25.232C215.048 25.304 215.042 25.376 215.03 25.448C215.03 25.52 215.03 25.592 215.03 25.664ZM215.048 21.614H221.42V19.148H215.048V21.614Z" fill="#4A4A4A"/>
<mask id="path-7-inside-3_1387_1565" fill="white">
<path d="M242 0H290V48H242V0Z"/>
</mask>
<path d="M290 47H242V49H290V47Z" fill="black" fill-opacity="0.1" mask="url(#path-7-inside-3_1387_1565)"/>
<path d="M258.548 33.134C258.524 33.062 258.47 32.96 258.386 32.828C258.314 32.696 258.236 32.558 258.152 32.414C258.068 32.282 258.002 32.192 257.954 32.144C259.718 31.52 261.146 30.71 262.238 29.714C263.342 28.718 264.152 27.59 264.668 26.33C265.184 25.058 265.442 23.708 265.442 22.28V17.186H266.648V22.316C266.648 22.352 266.642 22.406 266.63 22.478C266.63 22.55 266.63 22.622 266.63 22.694C266.642 23.954 266.858 25.088 267.278 26.096C267.698 27.092 268.268 27.974 268.988 28.742C269.708 29.498 270.512 30.146 271.4 30.686C272.3 31.226 273.224 31.664 274.172 32C274.124 32.048 274.046 32.144 273.938 32.288C273.83 32.444 273.728 32.594 273.632 32.738C273.536 32.894 273.476 33.002 273.452 33.062C272.684 32.762 271.91 32.384 271.13 31.928C270.362 31.472 269.636 30.938 268.952 30.326C268.268 29.714 267.674 29.018 267.17 28.238C266.666 27.458 266.306 26.6 266.09 25.664C265.61 27.332 264.728 28.808 263.444 30.092C262.172 31.376 260.54 32.39 258.548 33.134ZM269.744 25.934C269.696 25.898 269.606 25.832 269.474 25.736C269.342 25.64 269.21 25.55 269.078 25.466C268.946 25.37 268.844 25.316 268.772 25.304C269.036 25.04 269.324 24.686 269.636 24.242C269.96 23.798 270.278 23.318 270.59 22.802C270.914 22.286 271.202 21.794 271.454 21.326C271.706 20.846 271.892 20.444 272.012 20.12L273.146 20.624C272.99 20.984 272.774 21.404 272.498 21.884C272.234 22.352 271.94 22.838 271.616 23.342C271.304 23.846 270.986 24.326 270.662 24.782C270.338 25.226 270.032 25.61 269.744 25.934ZM260.258 26.42C260.21 26.384 260.108 26.336 259.952 26.276C259.808 26.204 259.658 26.132 259.502 26.06C259.358 25.988 259.25 25.946 259.178 25.934C259.382 25.622 259.598 25.22 259.826 24.728C260.054 24.236 260.27 23.714 260.474 23.162C260.678 22.61 260.846 22.082 260.978 21.578C261.122 21.062 261.212 20.642 261.248 20.318L262.436 20.606C262.376 20.966 262.268 21.41 262.112 21.938C261.956 22.454 261.77 22.994 261.554 23.558C261.338 24.11 261.116 24.638 260.888 25.142C260.672 25.646 260.462 26.072 260.258 26.42Z" fill="#4A4A4A"/>
<mask id="path-10-inside-4_1387_1565" fill="white">
<path d="M290 0H338V48H290V0Z"/>
</mask>
<path d="M338 47H290V49H338V47Z" fill="black" fill-opacity="0.1" mask="url(#path-10-inside-4_1387_1565)"/>
<path d="M311.462 33.278C311.45 33.11 311.42 32.912 311.372 32.684C311.324 32.456 311.27 32.276 311.21 32.144H312.83C313.094 32.144 313.274 32.096 313.37 32C313.478 31.904 313.532 31.742 313.532 31.514V17.06H314.666V20.516C314.942 21.74 315.416 22.958 316.088 24.17C316.556 23.822 317.048 23.426 317.564 22.982C318.092 22.538 318.596 22.088 319.076 21.632C319.556 21.176 319.958 20.768 320.282 20.408L321.164 21.164C320.804 21.548 320.366 21.974 319.85 22.442C319.334 22.898 318.794 23.36 318.23 23.828C317.678 24.284 317.144 24.698 316.628 25.07C317.336 26.198 318.17 27.23 319.13 28.166C320.102 29.102 321.128 29.87 322.208 30.47C322.148 30.518 322.058 30.614 321.938 30.758C321.818 30.89 321.704 31.028 321.596 31.172C321.488 31.316 321.41 31.418 321.362 31.478C320.438 30.89 319.55 30.188 318.698 29.372C317.858 28.544 317.09 27.632 316.394 26.636C315.71 25.628 315.134 24.56 314.666 23.432V31.784C314.666 32.228 314.528 32.588 314.252 32.864C313.988 33.14 313.568 33.278 312.992 33.278H311.462ZM306.476 31.604C306.404 31.508 306.272 31.364 306.08 31.172C305.9 30.968 305.762 30.842 305.666 30.794C306.626 30.17 307.472 29.426 308.204 28.562C308.948 27.686 309.554 26.756 310.022 25.772C310.49 24.788 310.79 23.828 310.922 22.892H306.512V21.812H312.2C311.972 23.876 311.36 25.748 310.364 27.428C309.38 29.096 308.084 30.488 306.476 31.604Z" fill="#4A4A4A"/>
<mask id="path-13-inside-5_1387_1565" fill="white">
<path d="M338 0H386V48H338V0Z"/>
</mask>
<path d="M386 47H338V49H386V47Z" fill="black" fill-opacity="0.1" mask="url(#path-13-inside-5_1387_1565)"/>
<path d="M361.46 33.26V23.306C360.944 24.278 360.314 25.238 359.57 26.186C358.838 27.122 358.046 28.004 357.194 28.832C356.354 29.66 355.508 30.38 354.656 30.992C354.62 30.932 354.542 30.842 354.422 30.722C354.302 30.602 354.176 30.488 354.044 30.38C353.924 30.26 353.834 30.182 353.774 30.146C354.446 29.738 355.124 29.234 355.808 28.634C356.492 28.022 357.152 27.356 357.788 26.636C358.436 25.916 359.03 25.184 359.57 24.44C360.11 23.684 360.566 22.958 360.938 22.262H354.368V21.182H361.46V17.024H362.594V21.182H369.632V22.262H363.008C363.524 23.126 364.154 24.032 364.898 24.98C365.642 25.916 366.476 26.828 367.4 27.716C368.324 28.604 369.302 29.402 370.334 30.11C370.274 30.146 370.178 30.23 370.046 30.362C369.914 30.494 369.782 30.626 369.65 30.758C369.53 30.89 369.452 30.98 369.416 31.028C368.504 30.344 367.622 29.582 366.77 28.742C365.93 27.902 365.15 27.026 364.43 26.114C363.722 25.202 363.11 24.296 362.594 23.396V33.26H361.46Z" fill="#4A4A4A"/>
<mask id="path-16-inside-6_1387_1565" fill="white">
<path d="M386 0H434V48H386V0Z"/>
</mask>
<path d="M434 47H386V49H434V47Z" fill="black" fill-opacity="0.1" mask="url(#path-16-inside-6_1387_1565)"/>
<path d="M402.422 32.648V31.586H409.424V27.068H403.772V26.006H409.424V23.72H405.878V22.658H414.158V23.72H410.612V26.006H416.228V27.068H410.612V31.586H417.524V32.648H402.422ZM402.008 24.206C401.948 24.074 401.84 23.906 401.684 23.702C401.54 23.498 401.42 23.348 401.324 23.252C402.068 23 402.842 22.64 403.646 22.172C404.462 21.692 405.248 21.158 406.004 20.57C406.772 19.97 407.462 19.352 408.074 18.716C408.686 18.08 409.172 17.474 409.532 16.898L410.612 17.114C411.224 18.05 411.98 18.902 412.88 19.67C413.792 20.426 414.752 21.092 415.76 21.668C416.768 22.232 417.734 22.694 418.658 23.054C418.538 23.186 418.406 23.354 418.262 23.558C418.13 23.762 418.016 23.948 417.92 24.116C417.284 23.84 416.6 23.504 415.868 23.108C415.148 22.7 414.428 22.244 413.708 21.74C412.988 21.236 412.31 20.684 411.674 20.084C411.05 19.472 410.504 18.818 410.036 18.122C409.652 18.662 409.16 19.226 408.56 19.814C407.96 20.39 407.294 20.954 406.562 21.506C405.83 22.058 405.074 22.568 404.294 23.036C403.514 23.504 402.752 23.894 402.008 24.206ZM413.114 31.388L412.106 30.848C412.286 30.62 412.496 30.302 412.736 29.894C412.988 29.486 413.222 29.072 413.438 28.652C413.666 28.22 413.828 27.866 413.924 27.59L414.986 28.058C414.902 28.274 414.782 28.538 414.626 28.85C414.47 29.15 414.296 29.468 414.104 29.804C413.924 30.128 413.744 30.434 413.564 30.722C413.396 30.998 413.246 31.22 413.114 31.388ZM406.796 31.388C406.688 31.124 406.514 30.794 406.274 30.398C406.046 29.99 405.8 29.588 405.536 29.192C405.284 28.796 405.05 28.49 404.834 28.274L405.752 27.644C405.968 27.884 406.208 28.202 406.472 28.598C406.748 28.994 407.006 29.396 407.246 29.804C407.486 30.2 407.666 30.53 407.786 30.794L406.796 31.388Z" fill="#4A4A4A"/>
<mask id="path-19-inside-7_1387_1565" fill="white">
<path d="M434 0H482V48H434V0Z"/>
</mask>
<path d="M482 47H434V49H482V47Z" fill="black" fill-opacity="0.1" mask="url(#path-19-inside-7_1387_1565)"/>
<path d="M449.864 32.324V31.226H457.406V23.936H451.16V22.82H457.406V17.312H458.612V22.82H464.894V23.936H458.612V31.226H466.172V32.324H449.864Z" fill="#4A4A4A"/>
<mask id="path-22-inside-8_1387_1565" fill="white">
<path d="M482 0H530V48H482V0Z"/>
</mask>
<path d="M530 47H482V49H530V47Z" fill="black" fill-opacity="0.1" mask="url(#path-22-inside-8_1387_1565)"/>
<path d="M500.852 32.018V18.302H511.148V32.018H500.852ZM502.058 30.902H509.942V25.574H502.058V30.902ZM502.058 24.476H509.942V19.418H502.058V24.476Z" fill="#4A4A4A"/>
<mask id="path-25-inside-9_1387_1565" fill="white">
<path d="M0 48H194V96H0V48Z"/>
</mask>
<path d="M194 95H0V97H194V95Z" fill="black" fill-opacity="0.1" mask="url(#path-25-inside-9_1387_1565)"/>
<path d="M16.154 81.296V74.546H8.81V72.944H16.154V68.948H12.968C12.596 69.548 12.2 70.118 11.78 70.658C11.36 71.186 10.928 71.66 10.484 72.08C10.388 71.972 10.25 71.852 10.07 71.72C9.902 71.576 9.728 71.438 9.548 71.306C9.38 71.174 9.242 71.084 9.134 71.036C9.53 70.676 9.926 70.238 10.322 69.722C10.73 69.206 11.108 68.66 11.456 68.084C11.816 67.496 12.128 66.92 12.392 66.356C12.668 65.78 12.878 65.252 13.022 64.772L14.732 65.294C14.612 65.642 14.474 65.99 14.318 66.338C14.174 66.674 14.018 67.016 13.85 67.364H23.57V68.948H17.936V72.944H25.172V74.546H17.936V81.296H16.154ZM28.124 81.278V70.64H34.352V79.676C34.352 80.192 34.196 80.588 33.884 80.864C33.572 81.14 33.098 81.278 32.462 81.278H31.328C31.304 81.074 31.256 80.81 31.184 80.486C31.112 80.162 31.04 79.916 30.968 79.748H32.12C32.36 79.748 32.528 79.706 32.624 79.622C32.732 79.538 32.786 79.382 32.786 79.154V77.426H29.708V81.278H28.124ZM26.81 69.272V67.814H31.778C31.67 67.574 31.526 67.322 31.346 67.058C31.178 66.782 31.004 66.524 30.824 66.284C30.656 66.032 30.506 65.834 30.374 65.69L31.85 64.952C32.006 65.144 32.186 65.39 32.39 65.69C32.606 65.99 32.81 66.296 33.002 66.608C33.206 66.92 33.356 67.184 33.452 67.4L32.57 67.814H36.026C36.206 67.55 36.404 67.232 36.62 66.86C36.836 66.488 37.04 66.122 37.232 65.762C37.436 65.39 37.586 65.09 37.682 64.862L39.356 65.402C39.164 65.774 38.936 66.176 38.672 66.608C38.408 67.04 38.15 67.442 37.898 67.814H43.172V69.272H26.81ZM38.24 81.278C38.216 81.05 38.168 80.768 38.096 80.432C38.024 80.108 37.946 79.856 37.862 79.676H39.338C39.59 79.676 39.77 79.634 39.878 79.55C39.986 79.466 40.04 79.304 40.04 79.064V70.442H41.642V79.604C41.642 80.72 41 81.278 39.716 81.278H38.24ZM36.152 78.236V70.946H37.754V78.236H36.152ZM29.708 73.448H32.786V71.936H29.708V73.448ZM29.708 76.184H32.786V74.69H29.708V76.184ZM57.5998 80.198C56.9758 80.198 56.3998 80.042 55.8718 79.73C55.3438 79.406 54.9058 78.998 54.5578 78.506L55.7098 77.624C55.9498 77.96 56.2198 78.236 56.5198 78.452C56.8318 78.656 57.1918 78.758 57.5998 78.758C58.2718 78.758 58.7998 78.536 59.1838 78.092C59.5798 77.636 59.8558 77.018 60.0118 76.238C60.1798 75.446 60.2638 74.54 60.2638 73.52C60.0478 73.916 59.7298 74.228 59.3098 74.456C58.9018 74.672 58.4578 74.78 57.9778 74.78C57.3418 74.78 56.7658 74.636 56.2498 74.348C55.7338 74.048 55.3198 73.622 55.0078 73.07C54.7078 72.518 54.5578 71.858 54.5578 71.09C54.5578 70.334 54.7018 69.662 54.9898 69.074C55.2778 68.486 55.6798 68.024 56.1958 67.688C56.7118 67.352 57.3118 67.184 57.9958 67.184C58.5238 67.184 59.0218 67.28 59.4898 67.472C59.9578 67.664 60.3658 67.994 60.7138 68.462C61.0618 68.93 61.3318 69.572 61.5238 70.388C61.7158 71.192 61.7998 72.212 61.7758 73.448C61.7278 75.788 61.3498 77.498 60.6418 78.578C59.9338 79.658 58.9198 80.198 57.5998 80.198ZM58.0138 73.394C58.6378 73.394 59.1478 73.166 59.5438 72.71C59.9398 72.242 60.1078 71.66 60.0478 70.964C59.9878 70.22 59.7838 69.656 59.4358 69.272C59.0998 68.876 58.6498 68.678 58.0858 68.678C57.4618 68.678 56.9758 68.912 56.6278 69.38C56.2918 69.848 56.1238 70.418 56.1238 71.09C56.1238 71.774 56.2978 72.332 56.6458 72.764C56.9938 73.184 57.4498 73.394 58.0138 73.394ZM64.936 73.538C64.6 73.538 64.312 73.424 64.072 73.196C63.844 72.956 63.73 72.668 63.73 72.332C63.73 71.996 63.844 71.714 64.072 71.486C64.312 71.258 64.6 71.144 64.936 71.144C65.26 71.144 65.536 71.258 65.764 71.486C66.004 71.714 66.124 71.996 66.124 72.332C66.124 72.668 66.004 72.956 65.764 73.196C65.536 73.424 65.26 73.538 64.936 73.538ZM64.936 80.198C64.6 80.198 64.312 80.084 64.072 79.856C63.844 79.616 63.73 79.334 63.73 79.01C63.73 78.674 63.844 78.392 64.072 78.164C64.312 77.924 64.6 77.804 64.936 77.804C65.26 77.804 65.536 77.924 65.764 78.164C66.004 78.392 66.124 78.674 66.124 79.01C66.124 79.334 66.004 79.616 65.764 79.856C65.536 80.084 65.26 80.198 64.936 80.198ZM71.7215 80.198C70.3535 80.198 69.4055 79.664 68.8775 78.596C68.3495 77.528 68.0855 75.896 68.0855 73.7C68.0855 71.504 68.3495 69.872 68.8775 68.804C69.4055 67.724 70.3535 67.184 71.7215 67.184C73.0775 67.184 74.0195 67.724 74.5475 68.804C75.0755 69.872 75.3395 71.504 75.3395 73.7C75.3395 75.896 75.0755 77.528 74.5475 78.596C74.0195 79.664 73.0775 80.198 71.7215 80.198ZM71.7215 78.704C72.2255 78.704 72.6275 78.554 72.9275 78.254C73.2395 77.942 73.4615 77.42 73.5935 76.688C73.7375 75.956 73.8095 74.96 73.8095 73.7C73.8095 72.428 73.7375 71.426 73.5935 70.694C73.4615 69.962 73.2395 69.446 72.9275 69.146C72.6275 68.834 72.2255 68.678 71.7215 68.678C71.2295 68.678 70.8275 68.834 70.5155 69.146C70.2035 69.446 69.9755 69.962 69.8315 70.694C69.6875 71.426 69.6155 72.428 69.6155 73.7C69.6155 74.96 69.6875 75.956 69.8315 76.688C69.9755 77.42 70.2035 77.942 70.5155 78.254C70.8275 78.554 71.2295 78.704 71.7215 78.704ZM80.7743 80.198C79.4063 80.198 78.4583 79.664 77.9303 78.596C77.4023 77.528 77.1383 75.896 77.1383 73.7C77.1383 71.504 77.4023 69.872 77.9303 68.804C78.4583 67.724 79.4063 67.184 80.7743 67.184C82.1303 67.184 83.0723 67.724 83.6003 68.804C84.1283 69.872 84.3923 71.504 84.3923 73.7C84.3923 75.896 84.1283 77.528 83.6003 78.596C83.0723 79.664 82.1303 80.198 80.7743 80.198ZM80.7743 78.704C81.2783 78.704 81.6803 78.554 81.9803 78.254C82.2923 77.942 82.5143 77.42 82.6463 76.688C82.7903 75.956 82.8623 74.96 82.8623 73.7C82.8623 72.428 82.7903 71.426 82.6463 70.694C82.5143 69.962 82.2923 69.446 81.9803 69.146C81.6803 68.834 81.2783 68.678 80.7743 68.678C80.2823 68.678 79.8803 68.834 79.5683 69.146C79.2563 69.446 79.0283 69.962 78.8843 70.694C78.7403 71.426 78.6683 72.428 78.6683 73.7C78.6683 74.96 78.7403 75.956 78.8843 76.688C79.0283 77.42 79.2563 77.942 79.5683 78.254C79.8803 78.554 80.2823 78.704 80.7743 78.704ZM92.2979 75.158L91.2359 74.258C91.5119 73.79 91.8599 73.382 92.2799 73.034C92.7119 72.686 93.2339 72.512 93.8459 72.512C94.1579 72.512 94.4879 72.578 94.8359 72.71C95.1959 72.83 95.5499 72.968 95.8979 73.124C96.2459 73.28 96.5759 73.424 96.8879 73.556C97.1999 73.676 97.4699 73.736 97.6979 73.736C98.0099 73.736 98.2919 73.634 98.5439 73.43C98.7959 73.214 99.0359 72.938 99.2639 72.602L100.326 73.502C100.062 73.958 99.7139 74.36 99.2819 74.708C98.8499 75.056 98.3219 75.23 97.6979 75.23C97.3979 75.23 97.0739 75.17 96.7259 75.05C96.3779 74.918 96.0299 74.774 95.6819 74.618C95.3339 74.462 95.0039 74.324 94.6919 74.204C94.3799 74.072 94.1039 74.006 93.8639 74.006C93.5279 74.006 93.2339 74.126 92.9819 74.366C92.7299 74.594 92.5019 74.858 92.2979 75.158ZM109.591 80V69.362L107.215 70.874L106.405 69.578L109.951 67.364H111.121V80H109.591ZM114.045 80V79.496C114.045 78.608 114.297 77.756 114.801 76.94C115.317 76.124 116.061 75.254 117.033 74.33C117.441 73.934 117.819 73.544 118.167 73.16C118.527 72.764 118.821 72.374 119.049 71.99C119.277 71.606 119.397 71.234 119.409 70.874C119.433 70.166 119.271 69.638 118.923 69.29C118.575 68.942 118.083 68.768 117.447 68.768C116.895 68.768 116.457 68.972 116.133 69.38C115.809 69.776 115.647 70.346 115.647 71.09H114.117C114.117 69.914 114.423 68.99 115.035 68.318C115.659 67.634 116.463 67.292 117.447 67.292C118.143 67.292 118.755 67.436 119.283 67.724C119.823 68 120.237 68.408 120.525 68.948C120.825 69.488 120.963 70.142 120.939 70.91C120.927 71.474 120.789 72.002 120.525 72.494C120.261 72.974 119.919 73.442 119.499 73.898C119.079 74.354 118.611 74.834 118.095 75.338C117.519 75.926 116.991 76.496 116.511 77.048C116.043 77.588 115.767 78.098 115.683 78.578H120.759V80H114.045ZM123.788 73.538C123.452 73.538 123.164 73.424 122.924 73.196C122.696 72.956 122.582 72.668 122.582 72.332C122.582 71.996 122.696 71.714 122.924 71.486C123.164 71.258 123.452 71.144 123.788 71.144C124.112 71.144 124.388 71.258 124.616 71.486C124.856 71.714 124.976 71.996 124.976 72.332C124.976 72.668 124.856 72.956 124.616 73.196C124.388 73.424 124.112 73.538 123.788 73.538ZM123.788 80.198C123.452 80.198 123.164 80.084 122.924 79.856C122.696 79.616 122.582 79.334 122.582 79.01C122.582 78.674 122.696 78.392 122.924 78.164C123.164 77.924 123.452 77.804 123.788 77.804C124.112 77.804 124.388 77.924 124.616 78.164C124.856 78.392 124.976 78.674 124.976 79.01C124.976 79.334 124.856 79.616 124.616 79.856C124.388 80.084 124.112 80.198 123.788 80.198ZM130.573 80.198C129.205 80.198 128.257 79.664 127.729 78.596C127.201 77.528 126.937 75.896 126.937 73.7C126.937 71.504 127.201 69.872 127.729 68.804C128.257 67.724 129.205 67.184 130.573 67.184C131.929 67.184 132.871 67.724 133.399 68.804C133.927 69.872 134.191 71.504 134.191 73.7C134.191 75.896 133.927 77.528 133.399 78.596C132.871 79.664 131.929 80.198 130.573 80.198ZM130.573 78.704C131.077 78.704 131.479 78.554 131.779 78.254C132.091 77.942 132.313 77.42 132.445 76.688C132.589 75.956 132.661 74.96 132.661 73.7C132.661 72.428 132.589 71.426 132.445 70.694C132.313 69.962 132.091 69.446 131.779 69.146C131.479 68.834 131.077 68.678 130.573 68.678C130.081 68.678 129.679 68.834 129.367 69.146C129.055 69.446 128.827 69.962 128.683 70.694C128.539 71.426 128.467 72.428 128.467 73.7C128.467 74.96 128.539 75.956 128.683 76.688C128.827 77.42 129.055 77.942 129.367 78.254C129.679 78.554 130.081 78.704 130.573 78.704ZM139.626 80.198C138.258 80.198 137.31 79.664 136.782 78.596C136.254 77.528 135.99 75.896 135.99 73.7C135.99 71.504 136.254 69.872 136.782 68.804C137.31 67.724 138.258 67.184 139.626 67.184C140.982 67.184 141.924 67.724 142.452 68.804C142.98 69.872 143.244 71.504 143.244 73.7C143.244 75.896 142.98 77.528 142.452 78.596C141.924 79.664 140.982 80.198 139.626 80.198ZM139.626 78.704C140.13 78.704 140.532 78.554 140.832 78.254C141.144 77.942 141.366 77.42 141.498 76.688C141.642 75.956 141.714 74.96 141.714 73.7C141.714 72.428 141.642 71.426 141.498 70.694C141.366 69.962 141.144 69.446 140.832 69.146C140.532 68.834 140.13 68.678 139.626 68.678C139.134 68.678 138.732 68.834 138.42 69.146C138.108 69.446 137.88 69.962 137.736 70.694C137.592 71.426 137.52 72.428 137.52 73.7C137.52 74.96 137.592 75.956 137.736 76.688C137.88 77.42 138.108 77.942 138.42 78.254C138.732 78.554 139.134 78.704 139.626 78.704Z" fill="#4A4A4A"/>
<mask id="path-28-inside-10_1387_1565" fill="white">
<path d="M194 48H242V96H194V48Z"/>
</mask>
<path d="M242 95H194V97H242V95Z" fill="black" fill-opacity="0.1" mask="url(#path-28-inside-10_1387_1565)"/>
<path d="M228.752 61.2484C226.003 58.4998 221.633 58.0428 218 61.1616C214.367 58.0428 209.997 58.4998 207.248 61.2484C204.5 63.997 204.043 68.3667 207.162 72C204.043 75.6332 204.5 80.003 207.248 82.7516C209.997 85.5002 214.367 85.9572 218 82.8384C221.633 85.9572 226.003 85.5002 228.752 82.7516C231.5 80.003 231.957 75.6332 228.838 72C231.957 68.3667 231.5 63.997 228.752 61.2484Z" fill="#56C1BB"/>
<mask id="path-31-inside-11_1387_1565" fill="white">
<path d="M242 48H290V96H242V48Z"/>
</mask>
<path d="M290 95H242V97H290V95Z" fill="black" fill-opacity="0.1" mask="url(#path-31-inside-11_1387_1565)"/>
<path d="M276.752 61.2484C274.003 58.4998 269.633 58.0428 266 61.1616C262.367 58.0428 257.997 58.4998 255.248 61.2484C252.5 63.997 252.043 68.3667 255.162 72C252.043 75.6332 252.5 80.003 255.248 82.7516C257.997 85.5002 262.367 85.9572 266 82.8384C269.633 85.9572 274.003 85.5002 276.752 82.7516C279.5 80.003 279.957 75.6332 276.838 72C279.957 68.3667 279.5 63.997 276.752 61.2484Z" fill="#56C1BB"/>
<mask id="path-34-inside-12_1387_1565" fill="white">
<path d="M290 48H338V96H290V48Z"/>
</mask>
<path d="M338 95H290V97H338V95Z" fill="black" fill-opacity="0.1" mask="url(#path-34-inside-12_1387_1565)"/>
<path d="M324.752 61.2484C322.003 58.4998 317.633 58.0428 314 61.1616C310.367 58.0428 305.997 58.4998 303.248 61.2484C300.5 63.997 300.043 68.3667 303.162 72C300.043 75.6332 300.5 80.003 303.248 82.7516C305.997 85.5002 310.367 85.9572 314 82.8384C317.633 85.9572 322.003 85.5002 324.752 82.7516C327.5 80.003 327.957 75.6332 324.838 72C327.957 68.3667 327.5 63.997 324.752 61.2484Z" fill="#56C1BB"/>
<mask id="path-37-inside-13_1387_1565" fill="white">
<path d="M338 48H386V96H338V48Z"/>
</mask>
<path d="M386 95H338V97H386V95Z" fill="black" fill-opacity="0.1" mask="url(#path-37-inside-13_1387_1565)"/>
<path d="M372.752 61.2484C370.003 58.4998 365.633 58.0428 362 61.1616C358.367 58.0428 353.997 58.4998 351.248 61.2484C348.5 63.997 348.043 68.3667 351.162 72C348.043 75.6332 348.5 80.003 351.248 82.7516C353.997 85.5002 358.367 85.9572 362 82.8384C365.633 85.9572 370.003 85.5002 372.752 82.7516C375.5 80.003 375.957 75.6332 372.838 72C375.957 68.3667 375.5 63.997 372.752 61.2484Z" fill="#56C1BB"/>
<mask id="path-40-inside-14_1387_1565" fill="white">
<path d="M386 48H434V96H386V48Z"/>
</mask>
<path d="M434 95H386V97H434V95Z" fill="black" fill-opacity="0.1" mask="url(#path-40-inside-14_1387_1565)"/>
<path d="M420.752 61.2484C418.003 58.4998 413.633 58.0428 410 61.1616C406.367 58.0428 401.997 58.4998 399.248 61.2484C396.5 63.997 396.043 68.3667 399.162 72C396.043 75.6332 396.5 80.003 399.248 82.7516C401.997 85.5002 406.367 85.9572 410 82.8384C413.633 85.9572 418.003 85.5002 420.752 82.7516C423.5 80.003 423.957 75.6332 420.838 72C423.957 68.3667 423.5 63.997 420.752 61.2484Z" fill="#56C1BB"/>
<mask id="path-43-inside-15_1387_1565" fill="white">
<path d="M434 48H482V96H434V48Z"/>
</mask>
<path d="M482 95H434V97H482V95Z" fill="black" fill-opacity="0.1" mask="url(#path-43-inside-15_1387_1565)"/>
<path d="M468.752 61.2484C466.003 58.4998 461.633 58.0428 458 61.1616C454.367 58.0428 449.997 58.4998 447.248 61.2484C444.5 63.997 444.043 68.3667 447.162 72C444.043 75.6332 444.5 80.003 447.248 82.7516C449.997 85.5002 454.367 85.9572 458 82.8384C461.633 85.9572 466.003 85.5002 468.752 82.7516C471.5 80.003 471.957 75.6332 468.838 72C471.957 68.3667 471.5 63.997 468.752 61.2484Z" fill="#56C1BB"/>
<mask id="path-46-inside-16_1387_1565" fill="white">
<path d="M482 48H530V96H482V48Z"/>
</mask>
<path d="M530 95H482V97H530V95Z" fill="black" fill-opacity="0.1" mask="url(#path-46-inside-16_1387_1565)"/>
<rect x="499" y="71" width="15" height="2" fill="black" fill-opacity="0.15"/>
<mask id="path-49-inside-17_1387_1565" fill="white">
<path d="M0 96H194V144H0V96Z"/>
</mask>
<path d="M194 143H0V145H194V143Z" fill="black" fill-opacity="0.1" mask="url(#path-49-inside-17_1387_1565)"/>
<path d="M16.154 129.296V122.546H8.81V120.944H16.154V116.948H12.968C12.596 117.548 12.2 118.118 11.78 118.658C11.36 119.186 10.928 119.66 10.484 120.08C10.388 119.972 10.25 119.852 10.07 119.72C9.902 119.576 9.728 119.438 9.548 119.306C9.38 119.174 9.242 119.084 9.134 119.036C9.53 118.676 9.926 118.238 10.322 117.722C10.73 117.206 11.108 116.66 11.456 116.084C11.816 115.496 12.128 114.92 12.392 114.356C12.668 113.78 12.878 113.252 13.022 112.772L14.732 113.294C14.612 113.642 14.474 113.99 14.318 114.338C14.174 114.674 14.018 115.016 13.85 115.364H23.57V116.948H17.936V120.944H25.172V122.546H17.936V129.296H16.154ZM32.174 129.404C32.114 129.212 32.018 128.972 31.886 128.684C31.754 128.408 31.622 128.18 31.49 128C32.342 127.844 33.164 127.604 33.956 127.28C34.76 126.944 35.504 126.554 36.188 126.11C35.6 125.546 35.114 124.928 34.73 124.256C34.358 124.676 33.974 125.066 33.578 125.426C33.182 125.786 32.786 126.104 32.39 126.38C32.258 126.212 32.084 126.032 31.868 125.84C31.652 125.636 31.46 125.474 31.292 125.354C31.796 125.042 32.294 124.652 32.786 124.184C33.29 123.704 33.758 123.194 34.19 122.654C34.634 122.102 35.018 121.562 35.342 121.034C34.682 121.082 34.076 121.124 33.524 121.16C32.984 121.196 32.57 121.22 32.282 121.232L32.012 119.792C32.324 119.792 32.696 119.78 33.128 119.756C33.572 119.732 34.04 119.708 34.532 119.684C34.892 119.36 35.318 118.916 35.81 118.352C35.51 118.076 35.162 117.782 34.766 117.47C34.37 117.146 33.974 116.84 33.578 116.552C33.182 116.264 32.828 116.042 32.516 115.886L33.47 114.752C33.638 114.848 33.818 114.962 34.01 115.094C34.202 115.226 34.4 115.364 34.604 115.508C34.82 115.256 35.042 114.974 35.27 114.662C35.498 114.338 35.714 114.014 35.918 113.69C36.122 113.366 36.29 113.084 36.422 112.844L37.754 113.582C37.49 113.99 37.16 114.452 36.764 114.968C36.38 115.484 36.014 115.934 35.666 116.318C35.87 116.474 36.068 116.636 36.26 116.804C36.464 116.96 36.644 117.104 36.8 117.236C37.172 116.804 37.538 116.366 37.898 115.922C38.258 115.466 38.588 115.04 38.888 114.644C39.2 114.248 39.446 113.906 39.626 113.618L40.958 114.428C40.73 114.752 40.442 115.13 40.094 115.562C39.758 115.982 39.386 116.426 38.978 116.894C38.582 117.362 38.174 117.824 37.754 118.28C37.334 118.736 36.938 119.156 36.566 119.54C37.214 119.48 37.844 119.426 38.456 119.378C39.08 119.318 39.632 119.258 40.112 119.198C39.944 119.006 39.776 118.832 39.608 118.676C39.44 118.508 39.284 118.364 39.14 118.244L40.202 117.308C40.526 117.56 40.88 117.89 41.264 118.298C41.66 118.706 42.038 119.12 42.398 119.54C42.758 119.96 43.046 120.332 43.262 120.656C43.178 120.704 43.046 120.794 42.866 120.926C42.698 121.058 42.53 121.19 42.362 121.322C42.206 121.454 42.092 121.562 42.02 121.646C41.9 121.466 41.762 121.274 41.606 121.07C41.462 120.854 41.3 120.632 41.12 120.404C40.664 120.476 40.07 120.554 39.338 120.638C38.618 120.722 37.868 120.8 37.088 120.872C36.98 121.076 36.866 121.286 36.746 121.502C36.626 121.718 36.5 121.928 36.368 122.132H40.562L41.246 122.69C40.55 123.962 39.65 125.096 38.546 126.092C39.254 126.524 40.022 126.884 40.85 127.172C41.678 127.46 42.554 127.652 43.478 127.748C43.334 127.952 43.19 128.204 43.046 128.504C42.914 128.804 42.806 129.062 42.722 129.278C41.762 129.122 40.814 128.852 39.878 128.468C38.954 128.096 38.102 127.628 37.322 127.064C35.858 128.12 34.142 128.9 32.174 129.404ZM29.15 129.17V121.808C28.55 122.312 27.986 122.732 27.458 123.068C27.41 122.972 27.314 122.84 27.17 122.672C27.026 122.492 26.876 122.324 26.72 122.168C26.564 122 26.432 121.88 26.324 121.808C26.72 121.58 27.17 121.268 27.674 120.872C28.19 120.464 28.7 120.02 29.204 119.54C29.72 119.048 30.188 118.556 30.608 118.064C31.04 117.572 31.376 117.116 31.616 116.696L32.948 117.578C32.648 118.034 32.312 118.49 31.94 118.946C31.568 119.402 31.172 119.846 30.752 120.278V129.17H29.15ZM27.872 117.812C27.716 117.596 27.542 117.368 27.35 117.128C27.17 116.888 26.984 116.696 26.792 116.552C27.308 116.3 27.848 115.982 28.412 115.598C28.988 115.202 29.528 114.782 30.032 114.338C30.536 113.894 30.956 113.468 31.292 113.06L32.516 114.014C32.144 114.446 31.676 114.908 31.112 115.4C30.56 115.892 29.996 116.354 29.42 116.786C28.844 117.218 28.328 117.56 27.872 117.812ZM37.394 125.228C38.066 124.64 38.612 124.022 39.032 123.374H35.774C36.182 124.034 36.722 124.652 37.394 125.228ZM57.3838 128V117.362L55.0078 118.874L54.1978 117.578L57.7438 115.364H58.9138V128H57.3838ZM66.6077 128V125.066H61.5137V123.878L66.6437 115.328H68.0477V123.68H69.8837V125.066H68.0477V128H66.6077ZM63.1157 123.68H66.6077V117.866L63.1157 123.68ZM72.4243 121.538C72.0883 121.538 71.8003 121.424 71.5603 121.196C71.3323 120.956 71.2183 120.668 71.2183 120.332C71.2183 119.996 71.3323 119.714 71.5603 119.486C71.8003 119.258 72.0883 119.144 72.4243 119.144C72.7483 119.144 73.0243 119.258 73.2523 119.486C73.4923 119.714 73.6123 119.996 73.6123 120.332C73.6123 120.668 73.4923 120.956 73.2523 121.196C73.0243 121.424 72.7483 121.538 72.4243 121.538ZM72.4243 128.198C72.0883 128.198 71.8003 128.084 71.5603 127.856C71.3323 127.616 71.2183 127.334 71.2183 127.01C71.2183 126.674 71.3323 126.392 71.5603 126.164C71.8003 125.924 72.0883 125.804 72.4243 125.804C72.7483 125.804 73.0243 125.924 73.2523 126.164C73.4923 126.392 73.6123 126.674 73.6123 127.01C73.6123 127.334 73.4923 127.616 73.2523 127.856C73.0243 128.084 72.7483 128.198 72.4243 128.198ZM79.2098 128.198C77.8418 128.198 76.8938 127.664 76.3658 126.596C75.8378 125.528 75.5738 123.896 75.5738 121.7C75.5738 119.504 75.8378 117.872 76.3658 116.804C76.8938 115.724 77.8418 115.184 79.2098 115.184C80.5658 115.184 81.5078 115.724 82.0358 116.804C82.5638 117.872 82.8278 119.504 82.8278 121.7C82.8278 123.896 82.5638 125.528 82.0358 126.596C81.5078 127.664 80.5658 128.198 79.2098 128.198ZM79.2098 126.704C79.7138 126.704 80.1158 126.554 80.4158 126.254C80.7278 125.942 80.9498 125.42 81.0818 124.688C81.2258 123.956 81.2978 122.96 81.2978 121.7C81.2978 120.428 81.2258 119.426 81.0818 118.694C80.9498 117.962 80.7278 117.446 80.4158 117.146C80.1158 116.834 79.7138 116.678 79.2098 116.678C78.7178 116.678 78.3158 116.834 78.0038 117.146C77.6918 117.446 77.4638 117.962 77.3198 118.694C77.1758 119.426 77.1038 120.428 77.1038 121.7C77.1038 122.96 77.1758 123.956 77.3198 124.688C77.4638 125.42 77.6918 125.942 78.0038 126.254C78.3158 126.554 78.7178 126.704 79.2098 126.704ZM88.2626 128.198C86.8946 128.198 85.9466 127.664 85.4186 126.596C84.8906 125.528 84.6266 123.896 84.6266 121.7C84.6266 119.504 84.8906 117.872 85.4186 116.804C85.9466 115.724 86.8946 115.184 88.2626 115.184C89.6186 115.184 90.5606 115.724 91.0886 116.804C91.6166 117.872 91.8806 119.504 91.8806 121.7C91.8806 123.896 91.6166 125.528 91.0886 126.596C90.5606 127.664 89.6186 128.198 88.2626 128.198ZM88.2626 126.704C88.7666 126.704 89.1686 126.554 89.4686 126.254C89.7806 125.942 90.0026 125.42 90.1346 124.688C90.2786 123.956 90.3506 122.96 90.3506 121.7C90.3506 120.428 90.2786 119.426 90.1346 118.694C90.0026 117.962 89.7806 117.446 89.4686 117.146C89.1686 116.834 88.7666 116.678 88.2626 116.678C87.7706 116.678 87.3686 116.834 87.0566 117.146C86.7446 117.446 86.5166 117.962 86.3726 118.694C86.2286 119.426 86.1566 120.428 86.1566 121.7C86.1566 122.96 86.2286 123.956 86.3726 124.688C86.5166 125.42 86.7446 125.942 87.0566 126.254C87.3686 126.554 87.7706 126.704 88.2626 126.704ZM99.7862 123.158L98.7242 122.258C99.0002 121.79 99.3482 121.382 99.7682 121.034C100.2 120.686 100.722 120.512 101.334 120.512C101.646 120.512 101.976 120.578 102.324 120.71C102.684 120.83 103.038 120.968 103.386 121.124C103.734 121.28 104.064 121.424 104.376 121.556C104.688 121.676 104.958 121.736 105.186 121.736C105.498 121.736 105.78 121.634 106.032 121.43C106.284 121.214 106.524 120.938 106.752 120.602L107.814 121.502C107.55 121.958 107.202 122.36 106.77 122.708C106.338 123.056 105.81 123.23 105.186 123.23C104.886 123.23 104.562 123.17 104.214 123.05C103.866 122.918 103.518 122.774 103.17 122.618C102.822 122.462 102.492 122.324 102.18 122.204C101.868 122.072 101.592 122.006 101.352 122.006C101.016 122.006 100.722 122.126 100.47 122.366C100.218 122.594 99.9902 122.858 99.7862 123.158ZM117.079 128V117.362L114.703 118.874L113.893 117.578L117.439 115.364H118.609V128H117.079ZM123.225 128C123.309 127.472 123.429 126.848 123.585 126.128C123.753 125.408 123.945 124.646 124.161 123.842C124.377 123.026 124.611 122.204 124.863 121.376C125.115 120.536 125.373 119.726 125.637 118.946C125.901 118.166 126.159 117.464 126.411 116.84H121.209V115.4H128.139V116.48C127.899 117.032 127.641 117.692 127.365 118.46C127.101 119.228 126.837 120.05 126.573 120.926C126.321 121.79 126.075 122.66 125.835 123.536C125.607 124.4 125.403 125.222 125.223 126.002C125.043 126.77 124.905 127.436 124.809 128H123.225ZM130.678 121.538C130.342 121.538 130.054 121.424 129.814 121.196C129.586 120.956 129.472 120.668 129.472 120.332C129.472 119.996 129.586 119.714 129.814 119.486C130.054 119.258 130.342 119.144 130.678 119.144C131.002 119.144 131.278 119.258 131.506 119.486C131.746 119.714 131.866 119.996 131.866 120.332C131.866 120.668 131.746 120.956 131.506 121.196C131.278 121.424 131.002 121.538 130.678 121.538ZM130.678 128.198C130.342 128.198 130.054 128.084 129.814 127.856C129.586 127.616 129.472 127.334 129.472 127.01C129.472 126.674 129.586 126.392 129.814 126.164C130.054 125.924 130.342 125.804 130.678 125.804C131.002 125.804 131.278 125.924 131.506 126.164C131.746 126.392 131.866 126.674 131.866 127.01C131.866 127.334 131.746 127.616 131.506 127.856C131.278 128.084 131.002 128.198 130.678 128.198ZM136.852 128.198C136 128.198 135.268 127.964 134.656 127.496C134.044 127.016 133.612 126.356 133.36 125.516L134.782 125.03C134.854 125.282 134.974 125.54 135.142 125.804C135.31 126.056 135.532 126.272 135.808 126.452C136.084 126.632 136.42 126.722 136.816 126.722C137.536 126.722 138.1 126.542 138.508 126.182C138.916 125.81 139.12 125.234 139.12 124.454C139.12 123.746 138.898 123.176 138.454 122.744C138.022 122.312 137.44 122.096 136.708 122.096H135.97V120.674H136.708C137.392 120.674 137.908 120.476 138.256 120.08C138.616 119.684 138.796 119.18 138.796 118.568C138.796 117.884 138.592 117.398 138.184 117.11C137.788 116.822 137.332 116.678 136.816 116.678C136.468 116.678 136.168 116.768 135.916 116.948C135.664 117.128 135.454 117.35 135.286 117.614C135.118 117.866 134.992 118.112 134.908 118.352L133.504 117.794C133.816 116.954 134.272 116.312 134.872 115.868C135.472 115.424 136.132 115.202 136.852 115.202C137.908 115.202 138.76 115.502 139.408 116.102C140.068 116.69 140.398 117.494 140.398 118.514C140.398 119.162 140.23 119.738 139.894 120.242C139.558 120.746 139.114 121.118 138.562 121.358C139.198 121.586 139.714 121.982 140.11 122.546C140.506 123.11 140.704 123.764 140.704 124.508C140.704 125.6 140.374 126.488 139.714 127.172C139.066 127.856 138.112 128.198 136.852 128.198ZM146.165 128.198C144.797 128.198 143.849 127.664 143.321 126.596C142.793 125.528 142.529 123.896 142.529 121.7C142.529 119.504 142.793 117.872 143.321 116.804C143.849 115.724 144.797 115.184 146.165 115.184C147.521 115.184 148.463 115.724 148.991 116.804C149.519 117.872 149.783 119.504 149.783 121.7C149.783 123.896 149.519 125.528 148.991 126.596C148.463 127.664 147.521 128.198 146.165 128.198ZM146.165 126.704C146.669 126.704 147.071 126.554 147.371 126.254C147.683 125.942 147.905 125.42 148.037 124.688C148.181 123.956 148.253 122.96 148.253 121.7C148.253 120.428 148.181 119.426 148.037 118.694C147.905 117.962 147.683 117.446 147.371 117.146C147.071 116.834 146.669 116.678 146.165 116.678C145.673 116.678 145.271 116.834 144.959 117.146C144.647 117.446 144.419 117.962 144.275 118.694C144.131 119.426 144.059 120.428 144.059 121.7C144.059 122.96 144.131 123.956 144.275 124.688C144.419 125.42 144.647 125.942 144.959 126.254C145.271 126.554 145.673 126.704 146.165 126.704Z" fill="#4A4A4A"/>
<mask id="path-52-inside-18_1387_1565" fill="white">
<path d="M194 96H242V144H194V96Z"/>
</mask>
<path d="M242 143H194V145H242V143Z" fill="black" fill-opacity="0.1" mask="url(#path-52-inside-18_1387_1565)"/>
<path d="M228.752 109.248C226.003 106.5 221.633 106.043 218 109.162C214.367 106.043 209.997 106.5 207.248 109.248C204.5 111.997 204.043 116.367 207.162 120C204.043 123.633 204.5 128.003 207.248 130.752C209.997 133.5 214.367 133.957 218 130.838C221.633 133.957 226.003 133.5 228.752 130.752C231.5 128.003 231.957 123.633 228.838 120C231.957 116.367 231.5 111.997 228.752 109.248Z" fill="#56C1BB"/>
<mask id="path-55-inside-19_1387_1565" fill="white">
<path d="M242 96H290V144H242V96Z"/>
</mask>
<path d="M290 143H242V145H290V143Z" fill="black" fill-opacity="0.1" mask="url(#path-55-inside-19_1387_1565)"/>
<path d="M276.752 109.248C274.003 106.5 269.633 106.043 266 109.162C262.367 106.043 257.997 106.5 255.248 109.248C252.5 111.997 252.043 116.367 255.162 120C252.043 123.633 252.5 128.003 255.248 130.752C257.997 133.5 262.367 133.957 266 130.838C269.633 133.957 274.003 133.5 276.752 130.752C279.5 128.003 279.957 123.633 276.838 120C279.957 116.367 279.5 111.997 276.752 109.248Z" fill="#56C1BB"/>
<mask id="path-58-inside-20_1387_1565" fill="white">
<path d="M290 96H338V144H290V96Z"/>
</mask>
<path d="M338 143H290V145H338V143Z" fill="black" fill-opacity="0.1" mask="url(#path-58-inside-20_1387_1565)"/>
<rect x="307" y="119" width="15" height="2" fill="black" fill-opacity="0.15"/>
<mask id="path-61-inside-21_1387_1565" fill="white">
<path d="M338 96H386V144H338V96Z"/>
</mask>
<path d="M386 143H338V145H386V143Z" fill="black" fill-opacity="0.1" mask="url(#path-61-inside-21_1387_1565)"/>
<path d="M372.752 109.248C370.003 106.5 365.633 106.043 362 109.162C358.367 106.043 353.997 106.5 351.248 109.248C348.5 111.997 348.043 116.367 351.162 120C348.043 123.633 348.5 128.003 351.248 130.752C353.997 133.5 358.367 133.957 362 130.838C365.633 133.957 370.003 133.5 372.752 130.752C375.5 128.003 375.957 123.633 372.838 120C375.957 116.367 375.5 111.997 372.752 109.248Z" fill="#56C1BB"/>
<mask id="path-64-inside-22_1387_1565" fill="white">
<path d="M386 96H434V144H386V96Z"/>
</mask>
<path d="M434 143H386V145H434V143Z" fill="black" fill-opacity="0.1" mask="url(#path-64-inside-22_1387_1565)"/>
<path d="M420.752 109.248C418.003 106.5 413.633 106.043 410 109.162C406.367 106.043 401.997 106.5 399.248 109.248C396.5 111.997 396.043 116.367 399.162 120C396.043 123.633 396.5 128.003 399.248 130.752C401.997 133.5 406.367 133.957 410 130.838C413.633 133.957 418.003 133.5 420.752 130.752C423.5 128.003 423.957 123.633 420.838 120C423.957 116.367 423.5 111.997 420.752 109.248Z" fill="#56C1BB"/>
<mask id="path-67-inside-23_1387_1565" fill="white">
<path d="M434 96H482V144H434V96Z"/>
</mask>
<path d="M482 143H434V145H482V143Z" fill="black" fill-opacity="0.1" mask="url(#path-67-inside-23_1387_1565)"/>
<rect x="451" y="119" width="15" height="2" fill="black" fill-opacity="0.15"/>
<mask id="path-70-inside-24_1387_1565" fill="white">
<path d="M482 96H530V144H482V96Z"/>
</mask>
<path d="M530 143H482V145H530V143Z" fill="black" fill-opacity="0.1" mask="url(#path-70-inside-24_1387_1565)"/>
<rect x="499" y="119" width="15" height="2" fill="black" fill-opacity="0.15"/>
</svg>
