<svg width="530" height="144" viewBox="0 0 530 144" fill="none" xmlns="http://www.w3.org/2000/svg">
<mask id="path-1-inside-1_1387_1565" fill="white">
<path d="M0 0H194V48H0V0Z"/>
</mask>
<path d="M194 47H0V49H194V47Z" fill="black" fill-opacity="0.1" mask="url(#path-1-inside-1_1387_1565)"/>
<path d="M9.512 32.9V27.842H14.498V32.9H9.512ZM15.704 23.684C15.644 23.588 15.542 23.474 15.398 23.342C15.266 23.21 15.122 23.078 14.966 22.946C14.822 22.814 14.696 22.712 14.588 22.64C15.08 22.328 15.56 21.944 16.028 21.488C16.496 21.032 16.934 20.546 17.342 20.03C17.762 19.502 18.134 18.974 18.458 18.446C18.794 17.918 19.064 17.426 19.268 16.97L20.708 17.222C21.044 17.882 21.476 18.542 22.004 19.202C22.532 19.85 23.114 20.45 23.75 21.002C24.386 21.554 25.04 22.01 25.712 22.37C25.616 22.442 25.496 22.556 25.352 22.712C25.22 22.868 25.088 23.03 24.956 23.198C24.836 23.366 24.746 23.504 24.686 23.612C24.11 23.276 23.522 22.85 22.922 22.334C22.322 21.806 21.764 21.23 21.248 20.606C20.732 19.97 20.294 19.328 19.934 18.68C19.646 19.268 19.28 19.868 18.836 20.48C18.404 21.08 17.918 21.656 17.378 22.208C16.85 22.76 16.292 23.252 15.704 23.684ZM16.01 33.332C15.938 33.164 15.818 32.936 15.65 32.648C15.494 32.372 15.35 32.162 15.218 32.018C16.346 31.706 17.456 31.274 18.548 30.722C19.652 30.158 20.666 29.516 21.59 28.796C22.526 28.076 23.306 27.326 23.93 26.546L25.064 27.464C24.38 28.352 23.558 29.18 22.598 29.948C21.638 30.716 20.594 31.388 19.466 31.964C18.35 32.54 17.198 32.996 16.01 33.332ZM16.766 29.804C16.682 29.66 16.544 29.45 16.352 29.174C16.16 28.898 15.986 28.7 15.83 28.58C16.598 28.304 17.372 27.932 18.152 27.464C18.944 26.996 19.682 26.48 20.366 25.916C21.062 25.352 21.638 24.794 22.094 24.242L23.228 25.178C22.748 25.766 22.154 26.354 21.446 26.942C20.75 27.518 20 28.058 19.196 28.562C18.392 29.054 17.582 29.468 16.766 29.804ZM16.136 26.942C16.052 26.81 15.902 26.618 15.686 26.366C15.482 26.114 15.314 25.934 15.182 25.826C16.214 25.37 17.18 24.788 18.08 24.08C18.992 23.372 19.76 22.634 20.384 21.866L21.464 22.784C20.816 23.588 20.042 24.344 19.142 25.052C18.242 25.76 17.24 26.39 16.136 26.942ZM8.684 21.578V20.264H15.2V21.578H8.684ZM9.548 19.058V17.708H14.39V19.058H9.548ZM9.548 26.618V25.304H14.39V26.618H9.548ZM9.548 24.098V22.784H14.39V24.098H9.548ZM10.952 31.568H13.04V29.156H10.952V31.568ZM34.73 33.368C34.718 33.164 34.676 32.918 34.604 32.63C34.544 32.354 34.478 32.132 34.406 31.964H35.504C35.744 31.964 35.912 31.928 36.008 31.856C36.116 31.772 36.17 31.616 36.17 31.388V29.462H33.2V26.06C32.948 26.252 32.684 26.444 32.408 26.636C32.132 26.816 31.85 26.996 31.562 27.176C31.478 27.044 31.352 26.882 31.184 26.69C31.016 26.498 30.86 26.342 30.716 26.222C30.596 27.638 30.32 28.916 29.888 30.056C29.468 31.196 28.88 32.198 28.124 33.062C27.992 32.942 27.794 32.792 27.53 32.612C27.266 32.444 27.044 32.33 26.864 32.27C27.56 31.526 28.088 30.674 28.448 29.714C28.82 28.754 29.066 27.668 29.186 26.456C28.85 26.648 28.472 26.846 28.052 27.05C27.632 27.254 27.266 27.422 26.954 27.554L26.45 26.024C26.702 25.928 27.002 25.814 27.35 25.682C27.698 25.538 28.046 25.394 28.394 25.25C28.754 25.094 29.048 24.956 29.276 24.836V18.482H35.108V16.934H36.746V18.482H42.794V19.832H30.788V24.332C30.788 24.632 30.782 24.938 30.77 25.25C30.758 25.55 30.74 25.844 30.716 26.132C31.532 25.676 32.252 25.166 32.876 24.602C32.648 24.398 32.42 24.206 32.192 24.026C31.964 23.834 31.736 23.66 31.508 23.504L32.354 22.64C32.558 22.784 32.786 22.958 33.038 23.162C33.29 23.354 33.524 23.546 33.74 23.738C33.932 23.534 34.106 23.318 34.262 23.09C34.43 22.862 34.586 22.634 34.73 22.406H31.148V21.164H35.36C35.456 20.96 35.534 20.75 35.594 20.534C35.666 20.318 35.726 20.096 35.774 19.868L37.196 20.102C37.148 20.282 37.094 20.462 37.034 20.642C36.974 20.822 36.914 20.996 36.854 21.164H42.74V22.406H38.6C38.804 22.67 39.02 22.922 39.248 23.162C39.476 23.39 39.716 23.612 39.968 23.828C40.4 23.432 40.808 22.994 41.192 22.514L42.254 23.27C42.074 23.462 41.87 23.672 41.642 23.9C41.414 24.128 41.18 24.344 40.94 24.548C41.756 25.1 42.62 25.544 43.532 25.88C43.4 25.976 43.244 26.156 43.064 26.42C42.896 26.684 42.764 26.9 42.668 27.068C42.296 26.9 41.93 26.72 41.57 26.528C41.21 26.336 40.862 26.126 40.526 25.898V29.462H37.628V31.82C37.628 32.852 37.034 33.368 35.846 33.368H34.73ZM42.182 33.062C41.558 32.786 40.928 32.426 40.292 31.982C39.656 31.526 39.11 31.082 38.654 30.65L39.644 29.714C40.076 30.122 40.61 30.524 41.246 30.92C41.882 31.304 42.482 31.61 43.046 31.838C42.902 31.958 42.734 32.156 42.542 32.432C42.362 32.708 42.242 32.918 42.182 33.062ZM31.526 33.062C31.49 32.966 31.418 32.834 31.31 32.666C31.214 32.51 31.106 32.348 30.986 32.18C30.866 32.024 30.758 31.91 30.662 31.838C31.238 31.598 31.838 31.292 32.462 30.92C33.086 30.548 33.62 30.146 34.064 29.714L35.054 30.65C34.574 31.118 34.022 31.568 33.398 32C32.786 32.42 32.162 32.774 31.526 33.062ZM27.926 24.026C27.83 23.774 27.692 23.474 27.512 23.126C27.344 22.766 27.164 22.412 26.972 22.064C26.792 21.704 26.618 21.404 26.45 21.164L27.674 20.516C27.818 20.732 27.986 21.008 28.178 21.344C28.37 21.68 28.556 22.028 28.736 22.388C28.928 22.748 29.084 23.072 29.204 23.36C29.108 23.396 28.976 23.462 28.808 23.558C28.64 23.642 28.472 23.726 28.304 23.81C28.148 23.894 28.022 23.966 27.926 24.026ZM34.946 24.422H38.69C38.078 23.834 37.532 23.162 37.052 22.406H36.314C36.122 22.778 35.912 23.132 35.684 23.468C35.456 23.792 35.21 24.11 34.946 24.422ZM34.748 28.31H38.978V27.392H34.748V28.31ZM34.748 26.402H38.978V25.538H34.748V26.402ZM55.52 33.368C55.496 33.128 55.442 32.846 55.358 32.522C55.286 32.198 55.214 31.94 55.142 31.748H56.474C56.726 31.748 56.906 31.706 57.014 31.622C57.122 31.538 57.176 31.376 57.176 31.136V27.428H51.218V25.97H57.176V24.08H50.822V22.604H54.944V20.714H51.38V19.22H54.944V16.952H56.654V19.22H60.416V20.714H56.654V22.604H61.19V24.08H58.85V25.97H60.884V27.428H58.85V31.658C58.85 32.21 58.688 32.63 58.364 32.918C58.04 33.218 57.542 33.368 56.87 33.368H55.52ZM45.368 30.254V18.446H50.39V30.254H45.368ZM46.898 28.778H48.86V25.034H46.898V28.778ZM46.898 23.558H48.86V19.922H46.898V23.558ZM54.44 30.974C54.236 30.698 53.984 30.41 53.684 30.11C53.384 29.798 53.078 29.504 52.766 29.228C52.454 28.952 52.172 28.73 51.92 28.562L52.91 27.464C53.198 27.668 53.51 27.908 53.846 28.184C54.182 28.46 54.5 28.736 54.8 29.012C55.112 29.288 55.364 29.546 55.556 29.786C55.472 29.858 55.346 29.978 55.178 30.146C55.022 30.314 54.872 30.476 54.728 30.632C54.584 30.788 54.488 30.902 54.44 30.974ZM75.266 33.242C75.242 33.014 75.194 32.738 75.122 32.414C75.05 32.09 74.978 31.844 74.906 31.676H76.202C76.454 31.676 76.628 31.634 76.724 31.55C76.832 31.454 76.886 31.298 76.886 31.082V23.396H71.792V17.492H78.506V31.604C78.506 32.156 78.356 32.564 78.056 32.828C77.768 33.104 77.294 33.242 76.634 33.242H75.266ZM63.512 33.278V17.492H70.208V23.396H65.114V33.278H63.512ZM67.724 31.37V24.728H74.258V31.37H67.724ZM69.236 30.11H72.764V28.616H69.236V30.11ZM69.236 27.464H72.764V25.988H69.236V27.464ZM65.114 22.154H68.642V20.984H65.114V22.154ZM73.358 22.154H76.886V20.984H73.358V22.154ZM65.114 19.868H68.642V18.734H65.114V19.868ZM73.358 19.868H76.886V18.734H73.358V19.868Z" fill="#4A4A4A"/>
<mask id="path-4-inside-2_1387_1565" fill="white">
<path d="M194 0H242V48H194V0Z"/>
</mask>
<path d="M242 47H194V49H242V47Z" fill="black" fill-opacity="0.1" mask="url(#path-4-inside-2_1387_1565)"/>
<path d="M211.286 33.332C211.202 33.224 211.07 33.086 210.89 32.918C210.71 32.762 210.542 32.642 210.386 32.558C211.37 31.874 212.15 31.004 212.726 29.948C213.314 28.892 213.608 27.518 213.608 25.826V17.726H222.86V31.694C222.86 32.162 222.722 32.534 222.446 32.81C222.17 33.086 221.744 33.224 221.168 33.224H219.764C219.752 33.056 219.716 32.846 219.656 32.594C219.596 32.354 219.536 32.168 219.476 32.036H220.97C221.234 32.036 221.42 31.994 221.528 31.91C221.636 31.814 221.69 31.646 221.69 31.406V27.104H214.724C214.592 28.616 214.226 29.858 213.626 30.83C213.026 31.79 212.246 32.624 211.286 33.332ZM214.778 26.024H221.69V22.964H214.778V26.024ZM214.778 21.866H221.69V18.824H214.778V21.866Z" fill="#4A4A4A"/>
<mask id="path-7-inside-3_1387_1565" fill="white">
<path d="M242 0H290V48H242V0Z"/>
</mask>
<path d="M290 47H242V49H290V47Z" fill="black" fill-opacity="0.1" mask="url(#path-7-inside-3_1387_1565)"/>
<path d="M258.548 33.134C258.524 33.062 258.47 32.96 258.386 32.828C258.314 32.696 258.236 32.558 258.152 32.414C258.068 32.282 258.002 32.192 257.954 32.144C259.718 31.52 261.146 30.71 262.238 29.714C263.342 28.718 264.152 27.59 264.668 26.33C265.184 25.058 265.442 23.708 265.442 22.28V17.186H266.648V22.316C266.648 22.352 266.642 22.406 266.63 22.478C266.63 22.55 266.63 22.622 266.63 22.694C266.642 23.954 266.858 25.088 267.278 26.096C267.698 27.092 268.268 27.974 268.988 28.742C269.708 29.498 270.512 30.146 271.4 30.686C272.3 31.226 273.224 31.664 274.172 32C274.124 32.048 274.046 32.144 273.938 32.288C273.83 32.444 273.728 32.594 273.632 32.738C273.536 32.894 273.476 33.002 273.452 33.062C272.684 32.762 271.91 32.384 271.13 31.928C270.362 31.472 269.636 30.938 268.952 30.326C268.268 29.714 267.674 29.018 267.17 28.238C266.666 27.458 266.306 26.6 266.09 25.664C265.61 27.332 264.728 28.808 263.444 30.092C262.172 31.376 260.54 32.39 258.548 33.134ZM269.744 25.934C269.696 25.898 269.606 25.832 269.474 25.736C269.342 25.64 269.21 25.55 269.078 25.466C268.946 25.37 268.844 25.316 268.772 25.304C269.036 25.04 269.324 24.686 269.636 24.242C269.96 23.798 270.278 23.318 270.59 22.802C270.914 22.286 271.202 21.794 271.454 21.326C271.706 20.846 271.892 20.444 272.012 20.12L273.146 20.624C272.99 20.984 272.774 21.404 272.498 21.884C272.234 22.352 271.94 22.838 271.616 23.342C271.304 23.846 270.986 24.326 270.662 24.782C270.338 25.226 270.032 25.61 269.744 25.934ZM260.258 26.42C260.21 26.384 260.108 26.336 259.952 26.276C259.808 26.204 259.658 26.132 259.502 26.06C259.358 25.988 259.25 25.946 259.178 25.934C259.382 25.622 259.598 25.22 259.826 24.728C260.054 24.236 260.27 23.714 260.474 23.162C260.678 22.61 260.846 22.082 260.978 21.578C261.122 21.062 261.212 20.642 261.248 20.318L262.436 20.606C262.376 20.966 262.268 21.41 262.112 21.938C261.956 22.454 261.77 22.994 261.554 23.558C261.338 24.11 261.116 24.638 260.888 25.142C260.672 25.646 260.462 26.072 260.258 26.42Z" fill="#4A4A4A"/>
<mask id="path-10-inside-4_1387_1565" fill="white">
<path d="M290 0H338V48H290V0Z"/>
</mask>
<path d="M338 47H290V49H338V47Z" fill="black" fill-opacity="0.1" mask="url(#path-10-inside-4_1387_1565)"/>
<path d="M311.462 33.278C311.45 33.11 311.42 32.912 311.372 32.684C311.324 32.456 311.27 32.276 311.21 32.144H312.83C313.094 32.144 313.274 32.096 313.37 32C313.478 31.904 313.532 31.742 313.532 31.514V17.06H314.666V20.516C314.942 21.74 315.416 22.958 316.088 24.17C316.556 23.822 317.048 23.426 317.564 22.982C318.092 22.538 318.596 22.088 319.076 21.632C319.556 21.176 319.958 20.768 320.282 20.408L321.164 21.164C320.804 21.548 320.366 21.974 319.85 22.442C319.334 22.898 318.794 23.36 318.23 23.828C317.678 24.284 317.144 24.698 316.628 25.07C317.336 26.198 318.17 27.23 319.13 28.166C320.102 29.102 321.128 29.87 322.208 30.47C322.148 30.518 322.058 30.614 321.938 30.758C321.818 30.89 321.704 31.028 321.596 31.172C321.488 31.316 321.41 31.418 321.362 31.478C320.438 30.89 319.55 30.188 318.698 29.372C317.858 28.544 317.09 27.632 316.394 26.636C315.71 25.628 315.134 24.56 314.666 23.432V31.784C314.666 32.228 314.528 32.588 314.252 32.864C313.988 33.14 313.568 33.278 312.992 33.278H311.462ZM306.476 31.604C306.404 31.508 306.272 31.364 306.08 31.172C305.9 30.968 305.762 30.842 305.666 30.794C306.626 30.17 307.472 29.426 308.204 28.562C308.948 27.686 309.554 26.756 310.022 25.772C310.49 24.788 310.79 23.828 310.922 22.892H306.512V21.812H312.2C311.972 23.876 311.36 25.748 310.364 27.428C309.38 29.096 308.084 30.488 306.476 31.604Z" fill="#4A4A4A"/>
<mask id="path-13-inside-5_1387_1565" fill="white">
<path d="M338 0H386V48H338V0Z"/>
</mask>
<path d="M386 47H338V49H386V47Z" fill="black" fill-opacity="0.1" mask="url(#path-13-inside-5_1387_1565)"/>
<path d="M361.46 33.26V23.306C360.944 24.278 360.314 25.238 359.57 26.186C358.838 27.122 358.046 28.004 357.194 28.832C356.354 29.66 355.508 30.38 354.656 30.992C354.62 30.932 354.542 30.842 354.422 30.722C354.302 30.602 354.176 30.488 354.044 30.38C353.924 30.26 353.834 30.182 353.774 30.146C354.446 29.738 355.124 29.234 355.808 28.634C356.492 28.022 357.152 27.356 357.788 26.636C358.436 25.916 359.03 25.184 359.57 24.44C360.11 23.684 360.566 22.958 360.938 22.262H354.368V21.182H361.46V17.024H362.594V21.182H369.632V22.262H363.008C363.524 23.126 364.154 24.032 364.898 24.98C365.642 25.916 366.476 26.828 367.4 27.716C368.324 28.604 369.302 29.402 370.334 30.11C370.274 30.146 370.178 30.23 370.046 30.362C369.914 30.494 369.782 30.626 369.65 30.758C369.53 30.89 369.452 30.98 369.416 31.028C368.504 30.344 367.622 29.582 366.77 28.742C365.93 27.902 365.15 27.026 364.43 26.114C363.722 25.202 363.11 24.296 362.594 23.396V33.26H361.46Z" fill="#4A4A4A"/>
<mask id="path-16-inside-6_1387_1565" fill="white">
<path d="M386 0H434V48H386V0Z"/>
</mask>
<path d="M434 47H386V49H434V47Z" fill="black" fill-opacity="0.1" mask="url(#path-16-inside-6_1387_1565)"/>
<path d="M402.422 32.648V31.586H409.424V27.068H403.772V26.006H409.424V23.72H405.878V22.658H414.158V23.72H410.612V26.006H416.228V27.068H410.612V31.586H417.524V32.648H402.422ZM402.008 24.206C401.948 24.074 401.84 23.906 401.684 23.702C401.54 23.498 401.42 23.348 401.324 23.252C402.068 23 402.842 22.64 403.646 22.172C404.462 21.692 405.248 21.158 406.004 20.57C406.772 19.97 407.462 19.352 408.074 18.716C408.686 18.08 409.172 17.474 409.532 16.898L410.612 17.114C411.224 18.05 411.98 18.902 412.88 19.67C413.792 20.426 414.752 21.092 415.76 21.668C416.768 22.232 417.734 22.694 418.658 23.054C418.538 23.186 418.406 23.354 418.262 23.558C418.13 23.762 418.016 23.948 417.92 24.116C417.284 23.84 416.6 23.504 415.868 23.108C415.148 22.7 414.428 22.244 413.708 21.74C412.988 21.236 412.31 20.684 411.674 20.084C411.05 19.472 410.504 18.818 410.036 18.122C409.652 18.662 409.16 19.226 408.56 19.814C407.96 20.39 407.294 20.954 406.562 21.506C405.83 22.058 405.074 22.568 404.294 23.036C403.514 23.504 402.752 23.894 402.008 24.206ZM413.114 31.388L412.106 30.848C412.286 30.62 412.496 30.302 412.736 29.894C412.988 29.486 413.222 29.072 413.438 28.652C413.666 28.22 413.828 27.866 413.924 27.59L414.986 28.058C414.902 28.274 414.782 28.538 414.626 28.85C414.47 29.15 414.296 29.468 414.104 29.804C413.924 30.128 413.744 30.434 413.564 30.722C413.396 30.998 413.246 31.22 413.114 31.388ZM406.796 31.388C406.688 31.124 406.514 30.794 406.274 30.398C406.046 29.99 405.8 29.588 405.536 29.192C405.284 28.796 405.05 28.49 404.834 28.274L405.752 27.644C405.968 27.884 406.208 28.202 406.472 28.598C406.748 28.994 407.006 29.396 407.246 29.804C407.486 30.2 407.666 30.53 407.786 30.794L406.796 31.388Z" fill="#4A4A4A"/>
<mask id="path-19-inside-7_1387_1565" fill="white">
<path d="M434 0H482V48H434V0Z"/>
</mask>
<path d="M482 47H434V49H482V47Z" fill="black" fill-opacity="0.1" mask="url(#path-19-inside-7_1387_1565)"/>
<path d="M449.864 32.324V31.226H457.406V23.936H451.16V22.82H457.406V17.312H458.612V22.82H464.894V23.936H458.612V31.226H466.172V32.324H449.864Z" fill="#4A4A4A"/>
<mask id="path-22-inside-8_1387_1565" fill="white">
<path d="M482 0H530V48H482V0Z"/>
</mask>
<path d="M530 47H482V49H530V47Z" fill="black" fill-opacity="0.1" mask="url(#path-22-inside-8_1387_1565)"/>
<path d="M500.852 32.018V18.302H511.148V32.018H500.852ZM502.058 30.902H509.942V25.574H502.058V30.902ZM502.058 24.476H509.942V19.418H502.058V24.476Z" fill="#4A4A4A"/>
<mask id="path-25-inside-9_1387_1565" fill="white">
<path d="M0 48H194V96H0V48Z"/>
</mask>
<path d="M194 95H0V97H194V95Z" fill="black" fill-opacity="0.1" mask="url(#path-25-inside-9_1387_1565)"/>
<path d="M16.154 81.296V74.546H8.81V72.944H16.154V68.948H12.968C12.596 69.548 12.2 70.118 11.78 70.658C11.36 71.186 10.928 71.66 10.484 72.08C10.388 71.972 10.25 71.852 10.07 71.72C9.902 71.576 9.728 71.438 9.548 71.306C9.38 71.174 9.242 71.084 9.134 71.036C9.53 70.676 9.926 70.238 10.322 69.722C10.73 69.206 11.108 68.66 11.456 68.084C11.816 67.496 12.128 66.92 12.392 66.356C12.668 65.78 12.878 65.252 13.022 64.772L14.732 65.294C14.612 65.642 14.474 65.99 14.318 66.338C14.174 66.674 14.018 67.016 13.85 67.364H23.57V68.948H17.936V72.944H25.172V74.546H17.936V81.296H16.154ZM28.124 81.278V70.64H34.352V79.676C34.352 80.192 34.196 80.588 33.884 80.864C33.572 81.14 33.098 81.278 32.462 81.278H31.328C31.304 81.074 31.256 80.81 31.184 80.486C31.112 80.162 31.04 79.916 30.968 79.748H32.12C32.36 79.748 32.528 79.706 32.624 79.622C32.732 79.538 32.786 79.382 32.786 79.154V77.426H29.708V81.278H28.124ZM26.81 69.272V67.814H31.778C31.67 67.574 31.526 67.322 31.346 67.058C31.178 66.782 31.004 66.524 30.824 66.284C30.656 66.032 30.506 65.834 30.374 65.69L31.85 64.952C32.006 65.144 32.186 65.39 32.39 65.69C32.606 65.99 32.81 66.296 33.002 66.608C33.206 66.92 33.356 67.184 33.452 67.4L32.57 67.814H36.026C36.206 67.55 36.404 67.232 36.62 66.86C36.836 66.488 37.04 66.122 37.232 65.762C37.436 65.39 37.586 65.09 37.682 64.862L39.356 65.402C39.164 65.774 38.936 66.176 38.672 66.608C38.408 67.04 38.15 67.442 37.898 67.814H43.172V69.272H26.81ZM38.24 81.278C38.216 81.05 38.168 80.768 38.096 80.432C38.024 80.108 37.946 79.856 37.862 79.676H39.338C39.59 79.676 39.77 79.634 39.878 79.55C39.986 79.466 40.04 79.304 40.04 79.064V70.442H41.642V79.604C41.642 80.72 41 81.278 39.716 81.278H38.24ZM36.152 78.236V70.946H37.754V78.236H36.152ZM29.708 73.448H32.786V71.936H29.708V73.448ZM29.708 76.184H32.786V74.69H29.708V76.184ZM52.5549 80.198C51.9309 80.198 51.3549 80.042 50.8269 79.73C50.2989 79.406 49.8609 78.998 49.5129 78.506L50.6649 77.624C50.9049 77.96 51.1749 78.236 51.4749 78.452C51.7869 78.656 52.1469 78.758 52.5549 78.758C53.2269 78.758 53.7549 78.536 54.1389 78.092C54.5349 77.636 54.8109 77.018 54.9669 76.238C55.1349 75.446 55.2189 74.54 55.2189 73.52C55.0029 73.916 54.6849 74.228 54.2649 74.456C53.8569 74.672 53.4129 74.78 52.9329 74.78C52.2969 74.78 51.7209 74.636 51.2049 74.348C50.6889 74.048 50.2749 73.622 49.9629 73.07C49.6629 72.518 49.5129 71.858 49.5129 71.09C49.5129 70.334 49.6569 69.662 49.9449 69.074C50.2329 68.486 50.6349 68.024 51.1509 67.688C51.6669 67.352 52.2669 67.184 52.9509 67.184C53.4789 67.184 53.9769 67.28 54.4449 67.472C54.9129 67.664 55.3209 67.994 55.6689 68.462C56.0169 68.93 56.2869 69.572 56.4789 70.388C56.6709 71.192 56.7549 72.212 56.7309 73.448C56.6829 75.788 56.3049 77.498 55.5969 78.578C54.8889 79.658 53.8749 80.198 52.5549 80.198ZM52.9689 73.394C53.5929 73.394 54.1029 73.166 54.4989 72.71C54.8949 72.242 55.0629 71.66 55.0029 70.964C54.9429 70.22 54.7389 69.656 54.3909 69.272C54.0549 68.876 53.6049 68.678 53.0409 68.678C52.4169 68.678 51.9309 68.912 51.5829 69.38C51.2469 69.848 51.0789 70.418 51.0789 71.09C51.0789 71.774 51.2529 72.332 51.6009 72.764C51.9489 73.184 52.4049 73.394 52.9689 73.394ZM59.891 73.538C59.555 73.538 59.267 73.424 59.027 73.196C58.799 72.956 58.685 72.668 58.685 72.332C58.685 71.996 58.799 71.714 59.027 71.486C59.267 71.258 59.555 71.144 59.891 71.144C60.215 71.144 60.491 71.258 60.719 71.486C60.959 71.714 61.079 71.996 61.079 72.332C61.079 72.668 60.959 72.956 60.719 73.196C60.491 73.424 60.215 73.538 59.891 73.538ZM59.891 80.198C59.555 80.198 59.267 80.084 59.027 79.856C58.799 79.616 58.685 79.334 58.685 79.01C58.685 78.674 58.799 78.392 59.027 78.164C59.267 77.924 59.555 77.804 59.891 77.804C60.215 77.804 60.491 77.924 60.719 78.164C60.959 78.392 61.079 78.674 61.079 79.01C61.079 79.334 60.959 79.616 60.719 79.856C60.491 80.084 60.215 80.198 59.891 80.198ZM66.6766 80.198C65.3086 80.198 64.3606 79.664 63.8326 78.596C63.3046 77.528 63.0406 75.896 63.0406 73.7C63.0406 71.504 63.3046 69.872 63.8326 68.804C64.3606 67.724 65.3086 67.184 66.6766 67.184C68.0326 67.184 68.9746 67.724 69.5026 68.804C70.0306 69.872 70.2946 71.504 70.2946 73.7C70.2946 75.896 70.0306 77.528 69.5026 78.596C68.9746 79.664 68.0326 80.198 66.6766 80.198ZM66.6766 78.704C67.1806 78.704 67.5826 78.554 67.8826 78.254C68.1946 77.942 68.4166 77.42 68.5486 76.688C68.6926 75.956 68.7646 74.96 68.7646 73.7C68.7646 72.428 68.6926 71.426 68.5486 70.694C68.4166 69.962 68.1946 69.446 67.8826 69.146C67.5826 68.834 67.1806 68.678 66.6766 68.678C66.1846 68.678 65.7826 68.834 65.4706 69.146C65.1586 69.446 64.9306 69.962 64.7866 70.694C64.6426 71.426 64.5706 72.428 64.5706 73.7C64.5706 74.96 64.6426 75.956 64.7866 76.688C64.9306 77.42 65.1586 77.942 65.4706 78.254C65.7826 78.554 66.1846 78.704 66.6766 78.704ZM75.7294 80.198C74.3614 80.198 73.4134 79.664 72.8854 78.596C72.3574 77.528 72.0934 75.896 72.0934 73.7C72.0934 71.504 72.3574 69.872 72.8854 68.804C73.4134 67.724 74.3614 67.184 75.7294 67.184C77.0854 67.184 78.0274 67.724 78.5554 68.804C79.0834 69.872 79.3474 71.504 79.3474 73.7C79.3474 75.896 79.0834 77.528 78.5554 78.596C78.0274 79.664 77.0854 80.198 75.7294 80.198ZM75.7294 78.704C76.2334 78.704 76.6354 78.554 76.9354 78.254C77.2474 77.942 77.4694 77.42 77.6014 76.688C77.7454 75.956 77.8174 74.96 77.8174 73.7C77.8174 72.428 77.7454 71.426 77.6014 70.694C77.4694 69.962 77.2474 69.446 76.9354 69.146C76.6354 68.834 76.2334 68.678 75.7294 68.678C75.2374 68.678 74.8354 68.834 74.5234 69.146C74.2114 69.446 73.9834 69.962 73.8394 70.694C73.6954 71.426 73.6234 72.428 73.6234 73.7C73.6234 74.96 73.6954 75.956 73.8394 76.688C73.9834 77.42 74.2114 77.942 74.5234 78.254C74.8354 78.554 75.2374 78.704 75.7294 78.704ZM87.253 75.158L86.191 74.258C86.467 73.79 86.815 73.382 87.235 73.034C87.667 72.686 88.189 72.512 88.801 72.512C89.113 72.512 89.443 72.578 89.791 72.71C90.151 72.83 90.505 72.968 90.853 73.124C91.201 73.28 91.531 73.424 91.843 73.556C92.155 73.676 92.425 73.736 92.653 73.736C92.965 73.736 93.247 73.634 93.499 73.43C93.751 73.214 93.991 72.938 94.219 72.602L95.281 73.502C95.017 73.958 94.669 74.36 94.237 74.708C93.805 75.056 93.277 75.23 92.653 75.23C92.353 75.23 92.029 75.17 91.681 75.05C91.333 74.918 90.985 74.774 90.637 74.618C90.289 74.462 89.959 74.324 89.647 74.204C89.335 74.072 89.059 74.006 88.819 74.006C88.483 74.006 88.189 74.126 87.937 74.366C87.685 74.594 87.457 74.858 87.253 75.158ZM104.546 80V69.362L102.17 70.874L101.36 69.578L104.906 67.364H106.076V80H104.546ZM109 80V79.496C109 78.608 109.252 77.756 109.756 76.94C110.272 76.124 111.016 75.254 111.988 74.33C112.396 73.934 112.774 73.544 113.122 73.16C113.482 72.764 113.776 72.374 114.004 71.99C114.232 71.606 114.352 71.234 114.364 70.874C114.388 70.166 114.226 69.638 113.878 69.29C113.53 68.942 113.038 68.768 112.402 68.768C111.85 68.768 111.412 68.972 111.088 69.38C110.764 69.776 110.602 70.346 110.602 71.09H109.072C109.072 69.914 109.378 68.99 109.99 68.318C110.614 67.634 111.418 67.292 112.402 67.292C113.098 67.292 113.71 67.436 114.238 67.724C114.778 68 115.192 68.408 115.48 68.948C115.78 69.488 115.918 70.142 115.894 70.91C115.882 71.474 115.744 72.002 115.48 72.494C115.216 72.974 114.874 73.442 114.454 73.898C114.034 74.354 113.566 74.834 113.05 75.338C112.474 75.926 111.946 76.496 111.466 77.048C110.998 77.588 110.722 78.098 110.638 78.578H115.714V80H109ZM118.743 73.538C118.407 73.538 118.119 73.424 117.879 73.196C117.651 72.956 117.537 72.668 117.537 72.332C117.537 71.996 117.651 71.714 117.879 71.486C118.119 71.258 118.407 71.144 118.743 71.144C119.067 71.144 119.343 71.258 119.571 71.486C119.811 71.714 119.931 71.996 119.931 72.332C119.931 72.668 119.811 72.956 119.571 73.196C119.343 73.424 119.067 73.538 118.743 73.538ZM118.743 80.198C118.407 80.198 118.119 80.084 117.879 79.856C117.651 79.616 117.537 79.334 117.537 79.01C117.537 78.674 117.651 78.392 117.879 78.164C118.119 77.924 118.407 77.804 118.743 77.804C119.067 77.804 119.343 77.924 119.571 78.164C119.811 78.392 119.931 78.674 119.931 79.01C119.931 79.334 119.811 79.616 119.571 79.856C119.343 80.084 119.067 80.198 118.743 80.198ZM125.528 80.198C124.16 80.198 123.212 79.664 122.684 78.596C122.156 77.528 121.892 75.896 121.892 73.7C121.892 71.504 122.156 69.872 122.684 68.804C123.212 67.724 124.16 67.184 125.528 67.184C126.884 67.184 127.826 67.724 128.354 68.804C128.882 69.872 129.146 71.504 129.146 73.7C129.146 75.896 128.882 77.528 128.354 78.596C127.826 79.664 126.884 80.198 125.528 80.198ZM125.528 78.704C126.032 78.704 126.434 78.554 126.734 78.254C127.046 77.942 127.268 77.42 127.4 76.688C127.544 75.956 127.616 74.96 127.616 73.7C127.616 72.428 127.544 71.426 127.4 70.694C127.268 69.962 127.046 69.446 126.734 69.146C126.434 68.834 126.032 68.678 125.528 68.678C125.036 68.678 124.634 68.834 124.322 69.146C124.01 69.446 123.782 69.962 123.638 70.694C123.494 71.426 123.422 72.428 123.422 73.7C123.422 74.96 123.494 75.956 123.638 76.688C123.782 77.42 124.01 77.942 124.322 78.254C124.634 78.554 125.036 78.704 125.528 78.704ZM134.581 80.198C133.213 80.198 132.265 79.664 131.737 78.596C131.209 77.528 130.945 75.896 130.945 73.7C130.945 71.504 131.209 69.872 131.737 68.804C132.265 67.724 133.213 67.184 134.581 67.184C135.937 67.184 136.879 67.724 137.407 68.804C137.935 69.872 138.199 71.504 138.199 73.7C138.199 75.896 137.935 77.528 137.407 78.596C136.879 79.664 135.937 80.198 134.581 80.198ZM134.581 78.704C135.085 78.704 135.487 78.554 135.787 78.254C136.099 77.942 136.321 77.42 136.453 76.688C136.597 75.956 136.669 74.96 136.669 73.7C136.669 72.428 136.597 71.426 136.453 70.694C136.321 69.962 136.099 69.446 135.787 69.146C135.487 68.834 135.085 68.678 134.581 68.678C134.089 68.678 133.687 68.834 133.375 69.146C133.063 69.446 132.835 69.962 132.691 70.694C132.547 71.426 132.475 72.428 132.475 73.7C132.475 74.96 132.547 75.956 132.691 76.688C132.835 77.42 133.063 77.942 133.375 78.254C133.687 78.554 134.089 78.704 134.581 78.704Z" fill="#4A4A4A"/>
<mask id="path-28-inside-10_1387_1565" fill="white">
<path d="M194 48H242V96H194V48Z"/>
</mask>
<path d="M242 95H194V97H242V95Z" fill="black" fill-opacity="0.1" mask="url(#path-28-inside-10_1387_1565)"/>
<path d="M228.752 61.2484C226.003 58.4998 221.633 58.0428 218 61.1616C214.367 58.0428 209.997 58.4998 207.248 61.2484C204.5 63.997 204.043 68.3667 207.162 72C204.043 75.6332 204.5 80.003 207.248 82.7516C209.997 85.5002 214.367 85.9572 218 82.8384C221.633 85.9572 226.003 85.5002 228.752 82.7516C231.5 80.003 231.957 75.6332 228.838 72C231.957 68.3667 231.5 63.997 228.752 61.2484Z" fill="#56C1BB"/>
<mask id="path-31-inside-11_1387_1565" fill="white">
<path d="M242 48H290V96H242V48Z"/>
</mask>
<path d="M290 95H242V97H290V95Z" fill="black" fill-opacity="0.1" mask="url(#path-31-inside-11_1387_1565)"/>
<path d="M276.752 61.2484C274.003 58.4998 269.633 58.0428 266 61.1616C262.367 58.0428 257.997 58.4998 255.248 61.2484C252.5 63.997 252.043 68.3667 255.162 72C252.043 75.6332 252.5 80.003 255.248 82.7516C257.997 85.5002 262.367 85.9572 266 82.8384C269.633 85.9572 274.003 85.5002 276.752 82.7516C279.5 80.003 279.957 75.6332 276.838 72C279.957 68.3667 279.5 63.997 276.752 61.2484Z" fill="#56C1BB"/>
<mask id="path-34-inside-12_1387_1565" fill="white">
<path d="M290 48H338V96H290V48Z"/>
</mask>
<path d="M338 95H290V97H338V95Z" fill="black" fill-opacity="0.1" mask="url(#path-34-inside-12_1387_1565)"/>
<path d="M324.752 61.2484C322.003 58.4998 317.633 58.0428 314 61.1616C310.367 58.0428 305.997 58.4998 303.248 61.2484C300.5 63.997 300.043 68.3667 303.162 72C300.043 75.6332 300.5 80.003 303.248 82.7516C305.997 85.5002 310.367 85.9572 314 82.8384C317.633 85.9572 322.003 85.5002 324.752 82.7516C327.5 80.003 327.957 75.6332 324.838 72C327.957 68.3667 327.5 63.997 324.752 61.2484Z" fill="#56C1BB"/>
<mask id="path-37-inside-13_1387_1565" fill="white">
<path d="M338 48H386V96H338V48Z"/>
</mask>
<path d="M386 95H338V97H386V95Z" fill="black" fill-opacity="0.1" mask="url(#path-37-inside-13_1387_1565)"/>
<path d="M372.752 61.2484C370.003 58.4998 365.633 58.0428 362 61.1616C358.367 58.0428 353.997 58.4998 351.248 61.2484C348.5 63.997 348.043 68.3667 351.162 72C348.043 75.6332 348.5 80.003 351.248 82.7516C353.997 85.5002 358.367 85.9572 362 82.8384C365.633 85.9572 370.003 85.5002 372.752 82.7516C375.5 80.003 375.957 75.6332 372.838 72C375.957 68.3667 375.5 63.997 372.752 61.2484Z" fill="#56C1BB"/>
<mask id="path-40-inside-14_1387_1565" fill="white">
<path d="M386 48H434V96H386V48Z"/>
</mask>
<path d="M434 95H386V97H434V95Z" fill="black" fill-opacity="0.1" mask="url(#path-40-inside-14_1387_1565)"/>
<path d="M420.752 61.2484C418.003 58.4998 413.633 58.0428 410 61.1616C406.367 58.0428 401.997 58.4998 399.248 61.2484C396.5 63.997 396.043 68.3667 399.162 72C396.043 75.6332 396.5 80.003 399.248 82.7516C401.997 85.5002 406.367 85.9572 410 82.8384C413.633 85.9572 418.003 85.5002 420.752 82.7516C423.5 80.003 423.957 75.6332 420.838 72C423.957 68.3667 423.5 63.997 420.752 61.2484Z" fill="#56C1BB"/>
<mask id="path-43-inside-15_1387_1565" fill="white">
<path d="M434 48H482V96H434V48Z"/>
</mask>
<path d="M482 95H434V97H482V95Z" fill="black" fill-opacity="0.1" mask="url(#path-43-inside-15_1387_1565)"/>
<path d="M468.752 61.2484C466.003 58.4998 461.633 58.0428 458 61.1616C454.367 58.0428 449.997 58.4998 447.248 61.2484C444.5 63.997 444.043 68.3667 447.162 72C444.043 75.6332 444.5 80.003 447.248 82.7516C449.997 85.5002 454.367 85.9572 458 82.8384C461.633 85.9572 466.003 85.5002 468.752 82.7516C471.5 80.003 471.957 75.6332 468.838 72C471.957 68.3667 471.5 63.997 468.752 61.2484Z" fill="#56C1BB"/>
<mask id="path-46-inside-16_1387_1565" fill="white">
<path d="M482 48H530V96H482V48Z"/>
</mask>
<path d="M530 95H482V97H530V95Z" fill="black" fill-opacity="0.1" mask="url(#path-46-inside-16_1387_1565)"/>
<rect x="499" y="71" width="15" height="2" fill="black" fill-opacity="0.15"/>
<mask id="path-49-inside-17_1387_1565" fill="white">
<path d="M0 96H194V144H0V96Z"/>
</mask>
<path d="M194 143H0V145H194V143Z" fill="black" fill-opacity="0.1" mask="url(#path-49-inside-17_1387_1565)"/>
<path d="M16.154 129.296V122.546H8.81V120.944H16.154V116.948H12.968C12.596 117.548 12.2 118.118 11.78 118.658C11.36 119.186 10.928 119.66 10.484 120.08C10.388 119.972 10.25 119.852 10.07 119.72C9.902 119.576 9.728 119.438 9.548 119.306C9.38 119.174 9.242 119.084 9.134 119.036C9.53 118.676 9.926 118.238 10.322 117.722C10.73 117.206 11.108 116.66 11.456 116.084C11.816 115.496 12.128 114.92 12.392 114.356C12.668 113.78 12.878 113.252 13.022 112.772L14.732 113.294C14.612 113.642 14.474 113.99 14.318 114.338C14.174 114.674 14.018 115.016 13.85 115.364H23.57V116.948H17.936V120.944H25.172V122.546H17.936V129.296H16.154ZM28.124 129.278V118.64H34.352V127.676C34.352 128.192 34.196 128.588 33.884 128.864C33.572 129.14 33.098 129.278 32.462 129.278H31.328C31.304 129.074 31.256 128.81 31.184 128.486C31.112 128.162 31.04 127.916 30.968 127.748H32.12C32.36 127.748 32.528 127.706 32.624 127.622C32.732 127.538 32.786 127.382 32.786 127.154V125.426H29.708V129.278H28.124ZM26.81 117.272V115.814H31.778C31.67 115.574 31.526 115.322 31.346 115.058C31.178 114.782 31.004 114.524 30.824 114.284C30.656 114.032 30.506 113.834 30.374 113.69L31.85 112.952C32.006 113.144 32.186 113.39 32.39 113.69C32.606 113.99 32.81 114.296 33.002 114.608C33.206 114.92 33.356 115.184 33.452 115.4L32.57 115.814H36.026C36.206 115.55 36.404 115.232 36.62 114.86C36.836 114.488 37.04 114.122 37.232 113.762C37.436 113.39 37.586 113.09 37.682 112.862L39.356 113.402C39.164 113.774 38.936 114.176 38.672 114.608C38.408 115.04 38.15 115.442 37.898 115.814H43.172V117.272H26.81ZM38.24 129.278C38.216 129.05 38.168 128.768 38.096 128.432C38.024 128.108 37.946 127.856 37.862 127.676H39.338C39.59 127.676 39.77 127.634 39.878 127.55C39.986 127.466 40.04 127.304 40.04 127.064V118.442H41.642V127.604C41.642 128.72 41 129.278 39.716 129.278H38.24ZM36.152 126.236V118.946H37.754V126.236H36.152ZM29.708 121.448H32.786V119.936H29.708V121.448ZM29.708 124.184H32.786V122.69H29.708V124.184ZM52.5549 128.198C51.9309 128.198 51.3549 128.042 50.8269 127.73C50.2989 127.406 49.8609 126.998 49.5129 126.506L50.6649 125.624C50.9049 125.96 51.1749 126.236 51.4749 126.452C51.7869 126.656 52.1469 126.758 52.5549 126.758C53.2269 126.758 53.7549 126.536 54.1389 126.092C54.5349 125.636 54.8109 125.018 54.9669 124.238C55.1349 123.446 55.2189 122.54 55.2189 121.52C55.0029 121.916 54.6849 122.228 54.2649 122.456C53.8569 122.672 53.4129 122.78 52.9329 122.78C52.2969 122.78 51.7209 122.636 51.2049 122.348C50.6889 122.048 50.2749 121.622 49.9629 121.07C49.6629 120.518 49.5129 119.858 49.5129 119.09C49.5129 118.334 49.6569 117.662 49.9449 117.074C50.2329 116.486 50.6349 116.024 51.1509 115.688C51.6669 115.352 52.2669 115.184 52.9509 115.184C53.4789 115.184 53.9769 115.28 54.4449 115.472C54.9129 115.664 55.3209 115.994 55.6689 116.462C56.0169 116.93 56.2869 117.572 56.4789 118.388C56.6709 119.192 56.7549 120.212 56.7309 121.448C56.6829 123.788 56.3049 125.498 55.5969 126.578C54.8889 127.658 53.8749 128.198 52.5549 128.198ZM52.9689 121.394C53.5929 121.394 54.1029 121.166 54.4989 120.71C54.8949 120.242 55.0629 119.66 55.0029 118.964C54.9429 118.22 54.7389 117.656 54.3909 117.272C54.0549 116.876 53.6049 116.678 53.0409 116.678C52.4169 116.678 51.9309 116.912 51.5829 117.38C51.2469 117.848 51.0789 118.418 51.0789 119.09C51.0789 119.774 51.2529 120.332 51.6009 120.764C51.9489 121.184 52.4049 121.394 52.9689 121.394ZM59.891 121.538C59.555 121.538 59.267 121.424 59.027 121.196C58.799 120.956 58.685 120.668 58.685 120.332C58.685 119.996 58.799 119.714 59.027 119.486C59.267 119.258 59.555 119.144 59.891 119.144C60.215 119.144 60.491 119.258 60.719 119.486C60.959 119.714 61.079 119.996 61.079 120.332C61.079 120.668 60.959 120.956 60.719 121.196C60.491 121.424 60.215 121.538 59.891 121.538ZM59.891 128.198C59.555 128.198 59.267 128.084 59.027 127.856C58.799 127.616 58.685 127.334 58.685 127.01C58.685 126.674 58.799 126.392 59.027 126.164C59.267 125.924 59.555 125.804 59.891 125.804C60.215 125.804 60.491 125.924 60.719 126.164C60.959 126.392 61.079 126.674 61.079 127.01C61.079 127.334 60.959 127.616 60.719 127.856C60.491 128.084 60.215 128.198 59.891 128.198ZM66.6766 128.198C65.3086 128.198 64.3606 127.664 63.8326 126.596C63.3046 125.528 63.0406 123.896 63.0406 121.7C63.0406 119.504 63.3046 117.872 63.8326 116.804C64.3606 115.724 65.3086 115.184 66.6766 115.184C68.0326 115.184 68.9746 115.724 69.5026 116.804C70.0306 117.872 70.2946 119.504 70.2946 121.7C70.2946 123.896 70.0306 125.528 69.5026 126.596C68.9746 127.664 68.0326 128.198 66.6766 128.198ZM66.6766 126.704C67.1806 126.704 67.5826 126.554 67.8826 126.254C68.1946 125.942 68.4166 125.42 68.5486 124.688C68.6926 123.956 68.7646 122.96 68.7646 121.7C68.7646 120.428 68.6926 119.426 68.5486 118.694C68.4166 117.962 68.1946 117.446 67.8826 117.146C67.5826 116.834 67.1806 116.678 66.6766 116.678C66.1846 116.678 65.7826 116.834 65.4706 117.146C65.1586 117.446 64.9306 117.962 64.7866 118.694C64.6426 119.426 64.5706 120.428 64.5706 121.7C64.5706 122.96 64.6426 123.956 64.7866 124.688C64.9306 125.42 65.1586 125.942 65.4706 126.254C65.7826 126.554 66.1846 126.704 66.6766 126.704ZM75.7294 128.198C74.3614 128.198 73.4134 127.664 72.8854 126.596C72.3574 125.528 72.0934 123.896 72.0934 121.7C72.0934 119.504 72.3574 117.872 72.8854 116.804C73.4134 115.724 74.3614 115.184 75.7294 115.184C77.0854 115.184 78.0274 115.724 78.5554 116.804C79.0834 117.872 79.3474 119.504 79.3474 121.7C79.3474 123.896 79.0834 125.528 78.5554 126.596C78.0274 127.664 77.0854 128.198 75.7294 128.198ZM75.7294 126.704C76.2334 126.704 76.6354 126.554 76.9354 126.254C77.2474 125.942 77.4694 125.42 77.6014 124.688C77.7454 123.956 77.8174 122.96 77.8174 121.7C77.8174 120.428 77.7454 119.426 77.6014 118.694C77.4694 117.962 77.2474 117.446 76.9354 117.146C76.6354 116.834 76.2334 116.678 75.7294 116.678C75.2374 116.678 74.8354 116.834 74.5234 117.146C74.2114 117.446 73.9834 117.962 73.8394 118.694C73.6954 119.426 73.6234 120.428 73.6234 121.7C73.6234 122.96 73.6954 123.956 73.8394 124.688C73.9834 125.42 74.2114 125.942 74.5234 126.254C74.8354 126.554 75.2374 126.704 75.7294 126.704ZM87.253 123.158L86.191 122.258C86.467 121.79 86.815 121.382 87.235 121.034C87.667 120.686 88.189 120.512 88.801 120.512C89.113 120.512 89.443 120.578 89.791 120.71C90.151 120.83 90.505 120.968 90.853 121.124C91.201 121.28 91.531 121.424 91.843 121.556C92.155 121.676 92.425 121.736 92.653 121.736C92.965 121.736 93.247 121.634 93.499 121.43C93.751 121.214 93.991 120.938 94.219 120.602L95.281 121.502C95.017 121.958 94.669 122.36 94.237 122.708C93.805 123.056 93.277 123.23 92.653 123.23C92.353 123.23 92.029 123.17 91.681 123.05C91.333 122.918 90.985 122.774 90.637 122.618C90.289 122.462 89.959 122.324 89.647 122.204C89.335 122.072 89.059 122.006 88.819 122.006C88.483 122.006 88.189 122.126 87.937 122.366C87.685 122.594 87.457 122.858 87.253 123.158ZM104.546 128V117.362L102.17 118.874L101.36 117.578L104.906 115.364H106.076V128H104.546ZM109 128V127.496C109 126.608 109.252 125.756 109.756 124.94C110.272 124.124 111.016 123.254 111.988 122.33C112.396 121.934 112.774 121.544 113.122 121.16C113.482 120.764 113.776 120.374 114.004 119.99C114.232 119.606 114.352 119.234 114.364 118.874C114.388 118.166 114.226 117.638 113.878 117.29C113.53 116.942 113.038 116.768 112.402 116.768C111.85 116.768 111.412 116.972 111.088 117.38C110.764 117.776 110.602 118.346 110.602 119.09H109.072C109.072 117.914 109.378 116.99 109.99 116.318C110.614 115.634 111.418 115.292 112.402 115.292C113.098 115.292 113.71 115.436 114.238 115.724C114.778 116 115.192 116.408 115.48 116.948C115.78 117.488 115.918 118.142 115.894 118.91C115.882 119.474 115.744 120.002 115.48 120.494C115.216 120.974 114.874 121.442 114.454 121.898C114.034 122.354 113.566 122.834 113.05 123.338C112.474 123.926 111.946 124.496 111.466 125.048C110.998 125.588 110.722 126.098 110.638 126.578H115.714V128H109ZM118.743 121.538C118.407 121.538 118.119 121.424 117.879 121.196C117.651 120.956 117.537 120.668 117.537 120.332C117.537 119.996 117.651 119.714 117.879 119.486C118.119 119.258 118.407 119.144 118.743 119.144C119.067 119.144 119.343 119.258 119.571 119.486C119.811 119.714 119.931 119.996 119.931 120.332C119.931 120.668 119.811 120.956 119.571 121.196C119.343 121.424 119.067 121.538 118.743 121.538ZM118.743 128.198C118.407 128.198 118.119 128.084 117.879 127.856C117.651 127.616 117.537 127.334 117.537 127.01C117.537 126.674 117.651 126.392 117.879 126.164C118.119 125.924 118.407 125.804 118.743 125.804C119.067 125.804 119.343 125.924 119.571 126.164C119.811 126.392 119.931 126.674 119.931 127.01C119.931 127.334 119.811 127.616 119.571 127.856C119.343 128.084 119.067 128.198 118.743 128.198ZM125.528 128.198C124.16 128.198 123.212 127.664 122.684 126.596C122.156 125.528 121.892 123.896 121.892 121.7C121.892 119.504 122.156 117.872 122.684 116.804C123.212 115.724 124.16 115.184 125.528 115.184C126.884 115.184 127.826 115.724 128.354 116.804C128.882 117.872 129.146 119.504 129.146 121.7C129.146 123.896 128.882 125.528 128.354 126.596C127.826 127.664 126.884 128.198 125.528 128.198ZM125.528 126.704C126.032 126.704 126.434 126.554 126.734 126.254C127.046 125.942 127.268 125.42 127.4 124.688C127.544 123.956 127.616 122.96 127.616 121.7C127.616 120.428 127.544 119.426 127.4 118.694C127.268 117.962 127.046 117.446 126.734 117.146C126.434 116.834 126.032 116.678 125.528 116.678C125.036 116.678 124.634 116.834 124.322 117.146C124.01 117.446 123.782 117.962 123.638 118.694C123.494 119.426 123.422 120.428 123.422 121.7C123.422 122.96 123.494 123.956 123.638 124.688C123.782 125.42 124.01 125.942 124.322 126.254C124.634 126.554 125.036 126.704 125.528 126.704ZM134.581 128.198C133.213 128.198 132.265 127.664 131.737 126.596C131.209 125.528 130.945 123.896 130.945 121.7C130.945 119.504 131.209 117.872 131.737 116.804C132.265 115.724 133.213 115.184 134.581 115.184C135.937 115.184 136.879 115.724 137.407 116.804C137.935 117.872 138.199 119.504 138.199 121.7C138.199 123.896 137.935 125.528 137.407 126.596C136.879 127.664 135.937 128.198 134.581 128.198ZM134.581 126.704C135.085 126.704 135.487 126.554 135.787 126.254C136.099 125.942 136.321 125.42 136.453 124.688C136.597 123.956 136.669 122.96 136.669 121.7C136.669 120.428 136.597 119.426 136.453 118.694C136.321 117.962 136.099 117.446 135.787 117.146C135.487 116.834 135.085 116.678 134.581 116.678C134.089 116.678 133.687 116.834 133.375 117.146C133.063 117.446 132.835 117.962 132.691 118.694C132.547 119.426 132.475 120.428 132.475 121.7C132.475 122.96 132.547 123.956 132.691 124.688C132.835 125.42 133.063 125.942 133.375 126.254C133.687 126.554 134.089 126.704 134.581 126.704Z" fill="#4A4A4A"/>
<mask id="path-52-inside-18_1387_1565" fill="white">
<path d="M194 96H242V144H194V96Z"/>
</mask>
<path d="M242 143H194V145H242V143Z" fill="black" fill-opacity="0.1" mask="url(#path-52-inside-18_1387_1565)"/>
<path d="M228.752 109.248C226.003 106.5 221.633 106.043 218 109.162C214.367 106.043 209.997 106.5 207.248 109.248C204.5 111.997 204.043 116.367 207.162 120C204.043 123.633 204.5 128.003 207.248 130.752C209.997 133.5 214.367 133.957 218 130.838C221.633 133.957 226.003 133.5 228.752 130.752C231.5 128.003 231.957 123.633 228.838 120C231.957 116.367 231.5 111.997 228.752 109.248Z" fill="#56C1BB"/>
<mask id="path-55-inside-19_1387_1565" fill="white">
<path d="M242 96H290V144H242V96Z"/>
</mask>
<path d="M290 143H242V145H290V143Z" fill="black" fill-opacity="0.1" mask="url(#path-55-inside-19_1387_1565)"/>
<path d="M276.752 109.248C274.003 106.5 269.633 106.043 266 109.162C262.367 106.043 257.997 106.5 255.248 109.248C252.5 111.997 252.043 116.367 255.162 120C252.043 123.633 252.5 128.003 255.248 130.752C257.997 133.5 262.367 133.957 266 130.838C269.633 133.957 274.003 133.5 276.752 130.752C279.5 128.003 279.957 123.633 276.838 120C279.957 116.367 279.5 111.997 276.752 109.248Z" fill="#56C1BB"/>
<mask id="path-58-inside-20_1387_1565" fill="white">
<path d="M290 96H338V144H290V96Z"/>
</mask>
<path d="M338 143H290V145H338V143Z" fill="black" fill-opacity="0.1" mask="url(#path-58-inside-20_1387_1565)"/>
<path d="M324.752 109.248C322.003 106.5 317.633 106.043 314 109.162C310.367 106.043 305.997 106.5 303.248 109.248C300.5 111.997 300.043 116.367 303.162 120C300.043 123.633 300.5 128.003 303.248 130.752C305.997 133.5 310.367 133.957 314 130.838C317.633 133.957 322.003 133.5 324.752 130.752C327.5 128.003 327.957 123.633 324.838 120C327.957 116.367 327.5 111.997 324.752 109.248Z" fill="#56C1BB"/>
<mask id="path-61-inside-21_1387_1565" fill="white">
<path d="M338 96H386V144H338V96Z"/>
</mask>
<path d="M386 143H338V145H386V143Z" fill="black" fill-opacity="0.1" mask="url(#path-61-inside-21_1387_1565)"/>
<rect x="355" y="119" width="15" height="2" fill="black" fill-opacity="0.15"/>
<mask id="path-64-inside-22_1387_1565" fill="white">
<path d="M386 96H434V144H386V96Z"/>
</mask>
<path d="M434 143H386V145H434V143Z" fill="black" fill-opacity="0.1" mask="url(#path-64-inside-22_1387_1565)"/>
<path d="M420.752 109.248C418.003 106.5 413.633 106.043 410 109.162C406.367 106.043 401.997 106.5 399.248 109.248C396.5 111.997 396.043 116.367 399.162 120C396.043 123.633 396.5 128.003 399.248 130.752C401.997 133.5 406.367 133.957 410 130.838C413.633 133.957 418.003 133.5 420.752 130.752C423.5 128.003 423.957 123.633 420.838 120C423.957 116.367 423.5 111.997 420.752 109.248Z" fill="#56C1BB"/>
<mask id="path-67-inside-23_1387_1565" fill="white">
<path d="M434 96H482V144H434V96Z"/>
</mask>
<path d="M482 143H434V145H482V143Z" fill="black" fill-opacity="0.1" mask="url(#path-67-inside-23_1387_1565)"/>
<rect x="451" y="119" width="15" height="2" fill="black" fill-opacity="0.15"/>
<mask id="path-70-inside-24_1387_1565" fill="white">
<path d="M482 96H530V144H482V96Z"/>
</mask>
<path d="M530 143H482V145H530V143Z" fill="black" fill-opacity="0.1" mask="url(#path-70-inside-24_1387_1565)"/>
<rect x="499" y="119" width="15" height="2" fill="black" fill-opacity="0.15"/>
</svg>
