<svg fill="none" height="144" viewBox="0 0 530 144" width="530" xmlns="http://www.w3.org/2000/svg" xmlns:xlink="http://www.w3.org/1999/xlink"><mask id="a" fill="#fff"><path d="m0 0h194v48h-194z" fill="#fff"/></mask><mask id="b" fill="#fff"><path d="m194 0h48v48h-48z" fill="#fff"/></mask><mask id="c" fill="#fff"><path d="m242 0h48v48h-48z" fill="#fff"/></mask><mask id="d" fill="#fff"><path d="m290 0h48v48h-48z" fill="#fff"/></mask><mask id="e" fill="#fff"><path d="m338 0h48v48h-48z" fill="#fff"/></mask><mask id="f" fill="#fff"><path d="m386 0h48v48h-48z" fill="#fff"/></mask><mask id="g" fill="#fff"><path d="m434 0h48v48h-48z" fill="#fff"/></mask><mask id="h" fill="#fff"><path d="m482 0h48v48h-48z" fill="#fff"/></mask><mask id="i" fill="#fff"><path d="m0 48h194v48h-194z" fill="#fff"/></mask><mask id="j" fill="#fff"><path d="m194 48h48v48h-48z" fill="#fff"/></mask><mask id="k" fill="#fff"><path d="m242 48h48v48h-48z" fill="#fff"/></mask><mask id="l" fill="#fff"><path d="m290 48h48v48h-48z" fill="#fff"/></mask><mask id="m" fill="#fff"><path d="m338 48h48v48h-48z" fill="#fff"/></mask><mask id="n" fill="#fff"><path d="m386 48h48v48h-48z" fill="#fff"/></mask><mask id="o" fill="#fff"><path d="m434 48h48v48h-48z" fill="#fff"/></mask><mask id="p" fill="#fff"><path d="m482 48h48v48h-48z" fill="#fff"/></mask><mask id="q" fill="#fff"><path d="m0 96h194v48h-194z" fill="#fff"/></mask><mask id="r" fill="#fff"><path d="m194 96h48v48h-48z" fill="#fff"/></mask><mask id="s" fill="#fff"><path d="m242 96h48v48h-48z" fill="#fff"/></mask><mask id="t" fill="#fff"><path d="m290 96h48v48h-48z" fill="#fff"/></mask><mask id="u" fill="#fff"><path d="m338 96h48v48h-48z" fill="#fff"/></mask><mask id="v" fill="#fff"><path d="m386 96h48v48h-48z" fill="#fff"/></mask><mask id="w" fill="#fff"><path d="m434 96h48v48h-48z" fill="#fff"/></mask><mask id="x" fill="#fff"><path d="m482 96h48v48h-48z" fill="#fff"/></mask><path d="m194 47h-194v2h194z" fill="#000" fill-opacity=".1" mask="url(#a)"/><path d="m9.512 32.9v-5.058h4.986v5.058zm6.192-9.216c-.06-.096-.162-.21-.306-.342-.132-.132-.276-.264-.432-.396-.144-.132-.27-.234-.378-.306.492-.312.972-.696 1.44-1.152s.906-.942 1.314-1.458c.42-.528.792-1.056 1.116-1.584.336-.528.606-1.02.81-1.476l1.44.252c.336.66.768 1.32 1.296 1.98.528.648 1.11 1.248 1.746 1.8s1.29 1.008 1.962 1.368c-.096.072-.216.186-.36.342-.132.156-.264.318-.396.486-.12.168-.21.306-.27.414-.576-.336-1.164-.762-1.764-1.278-.6-.528-1.158-1.104-1.674-1.728-.516-.636-.954-1.278-1.314-1.926-.288.588-.654 1.188-1.098 1.8-.432.6-.918 1.176-1.458 1.728-.528.552-1.086 1.044-1.674 1.476zm.306 9.648c-.072-.168-.192-.396-.36-.684-.156-.276-.3-.486-.432-.63 1.128-.312 2.238-.744 3.33-1.296 1.104-.564 2.118-1.206 3.042-1.926.936-.72 1.716-1.47 2.34-2.25l1.134.918c-.684.888-1.506 1.716-2.466 2.484s-2.004 1.44-3.132 2.016c-1.116.576-2.268 1.032-3.456 1.368zm.756-3.528c-.084-.144-.222-.354-.414-.63s-.366-.474-.522-.594c.768-.276 1.542-.648 2.322-1.116.792-.468 1.53-.984 2.214-1.548.696-.564 1.272-1.122 1.728-1.674l1.134.936c-.48.588-1.074 1.176-1.782 1.764-.696.576-1.446 1.116-2.25 1.62-.804.492-1.614.906-2.43 1.242zm-.63-2.862c-.084-.132-.234-.324-.45-.576-.204-.252-.372-.432-.504-.54 1.032-.456 1.998-1.038 2.898-1.746.912-.708 1.68-1.446 2.304-2.214l1.08.918c-.648.804-1.422 1.56-2.322 2.268s-1.902 1.338-3.006 1.89zm-7.452-5.364v-1.314h6.516v1.314zm.864-2.52v-1.35h4.842v1.35zm0 7.56v-1.314h4.842v1.314zm0-2.52v-1.314h4.842v1.314zm1.404 7.47h2.088v-2.412h-2.088zm23.778 1.8c-.012-.204-.054-.45-.126-.738-.06-.276-.126-.498-.198-.666h1.098c.24 0 .408-.036.504-.108.108-.084.162-.24.162-.468v-1.926h-2.97v-3.402c-.252.192-.516.384-.792.576-.276.18-.558.36-.846.54-.084-.132-.21-.294-.378-.486s-.324-.348-.468-.468c-.12 1.416-.396 2.694-.828 3.834-.42 1.14-1.008 2.142-1.764 3.006-.132-.12-.33-.27-.594-.45-.264-.168-.486-.282-.666-.342.696-.744 1.224-1.596 1.584-2.556.372-.96.618-2.046.738-3.258-.336.192-.714.39-1.134.594s-.786.372-1.098.504l-.504-1.53c.252-.096.552-.21.9-.342.348-.144.696-.288 1.044-.432.36-.156.654-.294.882-.414v-6.354h5.832v-1.548h1.638v1.548h6.048v1.35h-12.006v4.5c0 .3-.006.606-.018.918-.012.3-.03.594-.054.882.816-.456 1.536-.966 2.16-1.53-.228-.204-.456-.396-.684-.576-.228-.192-.456-.366-.684-.522l.846-.864c.204.144.432.318.684.522.252.192.486.384.702.576.192-.204.366-.42.522-.648.168-.228.324-.456.468-.684h-3.582v-1.242h4.212c.096-.204.174-.414.234-.63.072-.216.132-.438.18-.666l1.422.234c-.048.18-.102.36-.162.54s-.12.354-.18.522h5.886v1.242h-4.14c.204.264.42.516.648.756.228.228.468.45.72.666.432-.396.84-.834 1.224-1.314l1.062.756c-.18.192-.384.402-.612.63s-.462.444-.702.648c.816.552 1.68.996 2.592 1.332-.132.096-.288.276-.468.54-.168.264-.3.48-.396.648-.372-.168-.738-.348-1.098-.54s-.708-.402-1.044-.63v3.564h-2.898v2.358c0 1.032-.594 1.548-1.782 1.548zm7.452-.306c-.624-.276-1.254-.636-1.89-1.08-.636-.456-1.182-.9-1.638-1.332l.99-.936c.432.408.966.81 1.602 1.206.636.384 1.236.69 1.8.918-.144.12-.312.318-.504.594-.18.276-.3.486-.36.63zm-10.656 0c-.036-.096-.108-.228-.216-.396-.096-.156-.204-.318-.324-.486-.12-.156-.228-.27-.324-.342.576-.24 1.176-.546 1.8-.918s1.158-.774 1.602-1.206l.99.936c-.48.468-1.032.918-1.656 1.35-.612.42-1.236.774-1.872 1.062zm-3.6-9.036c-.096-.252-.234-.552-.414-.9-.168-.36-.348-.714-.54-1.062-.18-.36-.354-.66-.522-.9l1.224-.648c.144.216.312.492.504.828s.378.684.558 1.044c.192.36.348.684.468.972-.096.036-.228.102-.396.198-.168.084-.336.168-.504.252-.156.084-.282.156-.378.216zm7.02.396h3.744c-.612-.588-1.158-1.26-1.638-2.016h-.738c-.192.372-.402.726-.63 1.062-.228.324-.474.642-.738.954zm-.198 3.888h4.23v-.918h-4.23zm0-1.908h4.23v-.864h-4.23zm20.772 6.966c-.024-.24-.078-.522-.162-.846-.072-.324-.144-.582-.216-.774h1.332c.252 0 .432-.042.54-.126s.162-.246.162-.486v-3.708h-5.958v-1.458h5.958v-1.89h-6.354v-1.476h4.122v-1.89h-3.564v-1.494h3.564v-2.268h1.71v2.268h3.762v1.494h-3.762v1.89h4.536v1.476h-2.34v1.89h2.034v1.458h-2.034v4.23c0 .552-.162.972-.486 1.26-.324.3-.822.45-1.494.45zm-10.152-3.114v-11.808h5.022v11.808zm1.53-1.476h1.962v-3.744h-1.962zm0-5.22h1.962v-3.636h-1.962zm7.542 7.416c-.204-.276-.456-.564-.756-.864-.3-.312-.606-.606-.918-.882s-.594-.498-.846-.666l.99-1.098c.288.204.6.444.936.72s.654.552.954.828c.312.276.564.534.756.774-.084.072-.21.192-.378.36-.156.168-.306.33-.45.486s-.24.27-.288.342zm20.826 2.268c-.024-.228-.072-.504-.144-.828s-.144-.57-.216-.738h1.296c.252 0 .426-.042.522-.126.108-.096.162-.252.162-.468v-7.686h-5.094v-5.904h6.714v14.112c0 .552-.15.96-.45 1.224-.288.276-.762.414-1.422.414zm-11.754.036v-15.786h6.696v5.904h-5.094v9.882zm4.212-1.908v-6.642h6.534v6.642zm1.512-1.26h3.528v-1.494h-3.528zm0-2.646h3.528v-1.476h-3.528zm-4.122-5.31h3.528v-1.17h-3.528zm8.244 0h3.528v-1.17h-3.528zm-8.244-2.286h3.528v-1.134h-3.528zm8.244 0h3.528v-1.134h-3.528z" fill="#4a4a4a"/><path d="m242 47h-48v2h48z" fill="#000" fill-opacity=".1" mask="url(#b)"/><path d="m211.466 33.368c-.132-.168-.33-.366-.594-.594-.252-.228-.486-.396-.702-.504 1.068-.744 1.866-1.674 2.394-2.79s.792-2.526.792-4.23v-7.668h9.774v13.896c0 1.164-.684 1.746-2.052 1.746h-1.458c-.024-.24-.078-.54-.162-.9-.072-.348-.15-.618-.234-.81h1.476c.264 0 .45-.042.558-.126.108-.096.162-.27.162-.522v-3.672h-6.498c-.168 1.404-.54 2.598-1.116 3.582-.564.984-1.344 1.848-2.34 2.592zm3.564-7.704h6.39v-2.502h-6.372v2.07c0 .072-.006.144-.018.216zm.018-4.05h6.372v-2.466h-6.372z" fill="#4a4a4a"/><path d="m290 47h-48v2h48z" fill="#000" fill-opacity=".1" mask="url(#c)"/><path d="m258.548 33.134c-.024-.072-.078-.174-.162-.306-.072-.132-.15-.27-.234-.414-.084-.132-.15-.222-.198-.27 1.764-.624 3.192-1.434 4.284-2.43 1.104-.996 1.914-2.124 2.43-3.384.516-1.272.774-2.622.774-4.05v-5.094h1.206v5.13c0 .036-.006.09-.018.162v.216c.012 1.26.228 2.394.648 3.402.42.996.99 1.878 1.71 2.646.72.756 1.524 1.404 2.412 1.944.9.54 1.824.978 2.772 1.314-.048.048-.126.144-.234.288-.108.156-.21.306-.306.45-.096.156-.156.264-.18.324-.768-.3-1.542-.678-2.322-1.134-.768-.456-1.494-.99-2.178-1.602s-1.278-1.308-1.782-2.088-.864-1.638-1.08-2.574c-.48 1.668-1.362 3.144-2.646 4.428-1.272 1.284-2.904 2.298-4.896 3.042zm11.196-7.2c-.048-.036-.138-.102-.27-.198s-.264-.186-.396-.27c-.132-.096-.234-.15-.306-.162.264-.264.552-.618.864-1.062.324-.444.642-.924.954-1.44.324-.516.612-1.008.864-1.476.252-.48.438-.882.558-1.206l1.134.504c-.156.36-.372.78-.648 1.26-.264.468-.558.954-.882 1.458-.312.504-.63.984-.954 1.44-.324.444-.63.828-.918 1.152zm-9.486.486c-.048-.036-.15-.084-.306-.144-.144-.072-.294-.144-.45-.216-.144-.072-.252-.114-.324-.126.204-.312.42-.714.648-1.206s.444-1.014.648-1.566.372-1.08.504-1.584c.144-.516.234-.936.27-1.26l1.188.288c-.06.36-.168.804-.324 1.332-.156.516-.342 1.056-.558 1.62-.216.552-.438 1.08-.666 1.584-.216.504-.426.93-.63 1.278z" fill="#4a4a4a"/><path d="m338 47h-48v2h48z" fill="#000" fill-opacity=".1" mask="url(#d)"/><path d="m311.462 33.278c-.012-.168-.042-.366-.09-.594s-.102-.408-.162-.54h1.62c.264 0 .444-.048.54-.144.108-.096.162-.258.162-.486v-14.454h1.134v3.456c.276 1.224.75 2.442 1.422 3.654.468-.348.96-.744 1.476-1.188.528-.444 1.032-.894 1.512-1.35s.882-.864 1.206-1.224l.882.756c-.36.384-.798.81-1.314 1.278-.516.456-1.056.918-1.62 1.386-.552.456-1.086.87-1.602 1.242.708 1.128 1.542 2.16 2.502 3.096.972.936 1.998 1.704 3.078 2.304-.06.048-.15.144-.27.288-.12.132-.234.27-.342.414s-.186.246-.234.306c-.924-.588-1.812-1.29-2.664-2.106-.84-.828-1.608-1.74-2.304-2.736-.684-1.008-1.26-2.076-1.728-3.204v8.352c0 .444-.138.804-.414 1.08-.264.276-.684.414-1.26.414zm-4.986-1.674c-.072-.096-.204-.24-.396-.432-.18-.204-.318-.33-.414-.378.96-.624 1.806-1.368 2.538-2.232.744-.876 1.35-1.806 1.818-2.79s.768-1.944.9-2.88h-4.41v-1.08h5.688c-.228 2.064-.84 3.936-1.836 5.616-.984 1.668-2.28 3.06-3.888 4.176z" fill="#4a4a4a"/><path d="m386 47h-48v2h48z" fill="#000" fill-opacity=".1" mask="url(#e)"/><path d="m361.46 33.26v-9.954c-.516.972-1.146 1.932-1.89 2.88-.732.936-1.524 1.818-2.376 2.646-.84.828-1.686 1.548-2.538 2.16-.036-.06-.114-.15-.234-.27s-.246-.234-.378-.342c-.12-.12-.21-.198-.27-.234.672-.408 1.35-.912 2.034-1.512.684-.612 1.344-1.278 1.98-1.998.648-.72 1.242-1.452 1.782-2.196.54-.756.996-1.482 1.368-2.178h-6.57v-1.08h7.092v-4.158h1.134v4.158h7.038v1.08h-6.624c.516.864 1.146 1.77 1.89 2.718.744.936 1.578 1.848 2.502 2.736s1.902 1.686 2.934 2.394c-.06.036-.156.12-.288.252s-.264.264-.396.396c-.12.132-.198.222-.234.27-.912-.684-1.794-1.446-2.646-2.286-.84-.84-1.62-1.716-2.34-2.628-.708-.912-1.32-1.818-1.836-2.718v9.864z" fill="#4a4a4a"/><path d="m434 47h-48v2h48z" fill="#000" fill-opacity=".1" mask="url(#f)"/><path d="m402.422 32.648v-1.062h7.002v-4.518h-5.652v-1.062h5.652v-2.286h-3.546v-1.062h8.28v1.062h-3.546v2.286h5.616v1.062h-5.616v4.518h6.912v1.062zm-.414-8.442c-.06-.132-.168-.3-.324-.504-.144-.204-.264-.354-.36-.45.744-.252 1.518-.612 2.322-1.08.816-.48 1.602-1.014 2.358-1.602.768-.6 1.458-1.218 2.07-1.854s1.098-1.242 1.458-1.818l1.08.216c.612.936 1.368 1.788 2.268 2.556.912.756 1.872 1.422 2.88 1.998 1.008.564 1.974 1.026 2.898 1.386-.12.132-.252.3-.396.504-.132.204-.246.39-.342.558-.636-.276-1.32-.612-2.052-1.008-.72-.408-1.44-.864-2.16-1.368s-1.398-1.056-2.034-1.656c-.624-.612-1.17-1.266-1.638-1.962-.384.54-.876 1.104-1.476 1.692-.6.576-1.266 1.14-1.998 1.692s-1.488 1.062-2.268 1.53-1.542.858-2.286 1.17zm11.106 7.182-1.008-.54c.18-.228.39-.546.63-.954.252-.408.486-.822.702-1.242.228-.432.39-.786.486-1.062l1.062.468c-.084.216-.204.48-.36.792-.156.3-.33.618-.522.954-.18.324-.36.63-.54.918-.168.276-.318.498-.45.666zm-6.318 0c-.108-.264-.282-.594-.522-.99-.228-.408-.474-.81-.738-1.206-.252-.396-.486-.702-.702-.918l.918-.63c.216.24.456.558.72.954.276.396.534.798.774 1.206.24.396.42.726.54.99z" fill="#4a4a4a"/><path d="m482 47h-48v2h48z" fill="#000" fill-opacity=".1" mask="url(#g)"/><path d="m449.864 32.324v-1.098h7.542v-7.29h-6.246v-1.116h6.246v-5.508h1.206v5.508h6.282v1.116h-6.282v7.29h7.56v1.098z" fill="#4a4a4a"/><path d="m530 47h-48v2h48z" fill="#000" fill-opacity=".1" mask="url(#h)"/><path d="m500.852 32.018v-13.716h10.296v13.716zm1.206-1.116h7.884v-5.328h-7.884zm0-6.426h7.884v-5.058h-7.884z" fill="#4a4a4a"/><path d="m194 95h-194v2h194z" fill="#000" fill-opacity=".1" mask="url(#i)"/><path d="m16.154 81.296v-6.75h-7.344v-1.602h7.344v-3.996h-3.186c-.372.6-.768 1.17-1.188 1.71-.42.528-.852 1.002-1.296 1.422-.096-.108-.234-.228-.414-.36-.168-.144-.342-.282-.522-.414-.168-.132-.306-.222-.414-.27.396-.36.792-.798 1.188-1.314.408-.516.786-1.062 1.134-1.638.36-.588.672-1.164.936-1.728.276-.576.486-1.104.63-1.584l1.71.522c-.12.348-.258.696-.414 1.044-.144.336-.3.678-.468 1.026h9.72v1.584h-5.634v3.996h7.236v1.602h-7.236v6.75zm11.97-.018v-10.638h6.228v9.036c0 .516-.156.912-.468 1.188s-.786.414-1.422.414h-1.134c-.024-.204-.072-.468-.144-.792s-.144-.57-.216-.738h1.152c.24 0 .408-.042.504-.126.108-.084.162-.24.162-.468v-1.728h-3.078v3.852zm-1.314-12.006v-1.458h4.968c-.108-.24-.252-.492-.432-.756-.168-.276-.342-.534-.522-.774-.168-.252-.318-.45-.45-.594l1.476-.738c.156.192.336.438.54.738.216.3.42.606.612.918.204.312.354.576.45.792l-.882.414h3.456c.18-.264.378-.582.594-.954s.42-.738.612-1.098c.204-.372.354-.672.45-.9l1.674.54c-.192.372-.42.774-.684 1.206s-.522.834-.774 1.206h5.274v1.458zm11.43 12.006c-.024-.228-.072-.51-.144-.846-.072-.324-.15-.576-.234-.756h1.476c.252 0 .432-.042.54-.126s.162-.246.162-.486v-8.622h1.602v9.162c0 1.116-.642 1.674-1.926 1.674zm-2.088-3.042v-7.29h1.602v7.29zm-6.444-4.788h3.078v-1.512h-3.078zm0 2.736h3.078v-1.494h-3.078zm27.8918 4.014c-.624 0-1.2-.156-1.728-.468-.528-.324-.966-.732-1.314-1.224l1.152-.882c.24.336.51.612.81.828.312.204.672.306 1.08.306.672 0 1.2-.222 1.584-.666.396-.456.672-1.074.828-1.854.168-.792.252-1.698.252-2.718-.216.396-.534.708-.954.936-.408.216-.852.324-1.332.324-.636 0-1.212-.144-1.728-.432-.516-.3-.93-.726-1.242-1.278-.3-.552-.45-1.212-.45-1.98 0-.756.144-1.428.432-2.016s.69-1.05 1.206-1.386 1.116-.504 1.8-.504c.528 0 1.026.096 1.494.288s.876.522 1.224.99.618 1.11.81 1.926c.192.804.276 1.824.252 3.06-.048 2.34-.426 4.05-1.134 5.13s-1.722 1.62-3.042 1.62zm.414-6.804c.624 0 1.134-.228 1.53-.684.396-.468.564-1.05.504-1.746-.06-.744-.264-1.308-.612-1.692-.336-.396-.786-.594-1.35-.594-.624 0-1.11.234-1.458.702-.336.468-.504 1.038-.504 1.71 0 .684.174 1.242.522 1.674.348.42.804.63 1.368.63zm6.9222.144c-.336 0-.624-.114-.864-.342-.228-.24-.342-.528-.342-.864s.114-.618.342-.846c.24-.228.528-.342.864-.342.324 0 .6.114.828.342.24.228.36.51.36.846s-.12.624-.36.864c-.228.228-.504.342-.828.342zm0 6.66c-.336 0-.624-.114-.864-.342-.228-.24-.342-.522-.342-.846 0-.336.114-.618.342-.846.24-.24.528-.36.864-.36.324 0 .6.12.828.36.24.228.36.51.36.846 0 .324-.12.606-.36.846-.228.228-.504.342-.828.342zm6.7855 0c-1.368 0-2.316-.534-2.844-1.602s-.792-2.7-.792-4.896.264-3.828.792-4.896c.528-1.08 1.476-1.62 2.844-1.62 1.356 0 2.298.54 2.826 1.62.528 1.068.792 2.7.792 4.896s-.264 3.828-.792 4.896-1.47 1.602-2.826 1.602zm0-1.494c.504 0 .906-.15 1.206-.45.312-.312.534-.834.666-1.566.144-.732.216-1.728.216-2.988 0-1.272-.072-2.274-.216-3.006-.132-.732-.354-1.248-.666-1.548-.3-.312-.702-.468-1.206-.468-.492 0-.894.156-1.206.468-.312.3-.54.816-.684 1.548s-.216 1.734-.216 3.006c0 1.26.072 2.256.216 2.988s.372 1.254.684 1.566c.312.3.714.45 1.206.45zm9.0528 1.494c-1.368 0-2.316-.534-2.844-1.602s-.792-2.7-.792-4.896.264-3.828.792-4.896c.528-1.08 1.476-1.62 2.844-1.62 1.356 0 2.298.54 2.826 1.62.528 1.068.792 2.7.792 4.896s-.264 3.828-.792 4.896-1.47 1.602-2.826 1.602zm0-1.494c.504 0 .906-.15 1.206-.45.312-.312.534-.834.666-1.566.144-.732.216-1.728.216-2.988 0-1.272-.072-2.274-.216-3.006-.132-.732-.354-1.248-.666-1.548-.3-.312-.702-.468-1.206-.468-.492 0-.894.156-1.206.468-.312.3-.54.816-.684 1.548s-.216 1.734-.216 3.006c0 1.26.072 2.256.216 2.988s.372 1.254.684 1.566c.312.3.714.45 1.206.45zm11.5236-3.546-1.062-.9c.276-.468.624-.876 1.044-1.224.432-.348.954-.522 1.566-.522.312 0 .642.066.99.198.36.12.714.258 1.062.414s.678.3.99.432c.312.12.582.18.81.18.312 0 .594-.102.846-.306.252-.216.492-.492.72-.828l1.0621.9c-.264.456-.6121.858-1.0441 1.206s-.96.522-1.584.522c-.3 0-.624-.06-.972-.18-.348-.132-.696-.276-1.044-.432s-.678-.294-.99-.414c-.312-.132-.588-.198-.828-.198-.336 0-.63.12-.882.36-.252.228-.48.492-.684.792zm17.2931 4.842v-10.638l-2.376 1.512-.81-1.296 3.546-2.214h1.17v12.636zm4.454 0v-.504c0-.888.252-1.74.756-2.556.516-.816 1.26-1.686 2.232-2.61.408-.396.786-.786 1.134-1.17.36-.396.654-.786.882-1.17s.348-.756.36-1.116c.024-.708-.138-1.236-.486-1.584s-.84-.522-1.476-.522c-.552 0-.99.204-1.314.612-.324.396-.486.966-.486 1.71h-1.53c0-1.176.306-2.1.918-2.772.624-.684 1.428-1.026 2.412-1.026.696 0 1.308.144 1.836.432.54.276.954.684 1.242 1.224.3.54.438 1.194.414 1.962-.012.564-.15 1.092-.414 1.584-.264.48-.606.948-1.026 1.404s-.888.936-1.404 1.44c-.576.588-1.104 1.158-1.584 1.71-.468.54-.744 1.05-.828 1.53h5.076v1.422zm9.743-6.462c-.336 0-.624-.114-.864-.342-.228-.24-.342-.528-.342-.864s.114-.618.342-.846c.24-.228.528-.342.864-.342.324 0 .6.114.828.342.24.228.36.51.36.846s-.12.624-.36.864c-.228.228-.504.342-.828.342zm0 6.66c-.336 0-.624-.114-.864-.342-.228-.24-.342-.522-.342-.846 0-.336.114-.618.342-.846.24-.24.528-.36.864-.36.324 0 .6.12.828.36.24.228.36.51.36.846 0 .324-.12.606-.36.846-.228.228-.504.342-.828.342zm6.785 0c-1.368 0-2.316-.534-2.844-1.602s-.792-2.7-.792-4.896.264-3.828.792-4.896c.528-1.08 1.476-1.62 2.844-1.62 1.356 0 2.298.54 2.826 1.62.528 1.068.792 2.7.792 4.896s-.264 3.828-.792 4.896-1.47 1.602-2.826 1.602zm0-1.494c.504 0 .906-.15 1.206-.45.312-.312.534-.834.666-1.566.144-.732.216-1.728.216-2.988 0-1.272-.072-2.274-.216-3.006-.132-.732-.354-1.248-.666-1.548-.3-.312-.702-.468-1.206-.468-.492 0-.894.156-1.206.468-.312.3-.54.816-.684 1.548s-.216 1.734-.216 3.006c0 1.26.072 2.256.216 2.988s.372 1.254.684 1.566c.312.3.714.45 1.206.45zm9.053 1.494c-1.368 0-2.316-.534-2.844-1.602s-.792-2.7-.792-4.896.264-3.828.792-4.896c.528-1.08 1.476-1.62 2.844-1.62 1.356 0 2.298.54 2.826 1.62.528 1.068.792 2.7.792 4.896s-.264 3.828-.792 4.896-1.47 1.602-2.826 1.602zm0-1.494c.504 0 .906-.15 1.206-.45.312-.312.534-.834.666-1.566.144-.732.216-1.728.216-2.988 0-1.272-.072-2.274-.216-3.006-.132-.732-.354-1.248-.666-1.548-.3-.312-.702-.468-1.206-.468-.492 0-.894.156-1.206.468-.312.3-.54.816-.684 1.548s-.216 1.734-.216 3.006c0 1.26.072 2.256.216 2.988s.372 1.254.684 1.566c.312.3.714.45 1.206.45z" fill="#4a4a4a"/><path d="m242 95h-48v2h48z" fill="#000" fill-opacity=".1" mask="url(#j)"/><path d="m228.752 61.2484c-2.749-2.7486-7.119-3.2056-10.752-.0868-3.633-3.1188-8.003-2.6618-10.752.0868-2.748 2.7486-3.205 7.1183-.086 10.7516-3.119 3.6332-2.662 8.003.086 10.7516 2.749 2.7486 7.119 3.2056 10.752.0868 3.633 3.1188 8.003 2.6618 10.752-.0868 2.748-2.7486 3.205-7.1184.086-10.7516 3.119-3.6333 2.662-8.003-.086-10.7516z" fill="#56c1bb"/><path d="m290 95h-48v2h48z" fill="#000" fill-opacity=".1" mask="url(#k)"/><path d="m276.752 61.2484c-2.749-2.7486-7.119-3.2056-10.752-.0868-3.633-3.1188-8.003-2.6618-10.752.0868-2.748 2.7486-3.205 7.1183-.086 10.7516-3.119 3.6332-2.662 8.003.086 10.7516 2.749 2.7486 7.119 3.2056 10.752.0868 3.633 3.1188 8.003 2.6618 10.752-.0868 2.748-2.7486 3.205-7.1184.086-10.7516 3.119-3.6333 2.662-8.003-.086-10.7516z" fill="#56c1bb"/><path d="m338 95h-48v2h48z" fill="#000" fill-opacity=".1" mask="url(#l)"/><path d="m324.752 61.2484c-2.749-2.7486-7.119-3.2056-10.752-.0868-3.633-3.1188-8.003-2.6618-10.752.0868-2.748 2.7486-3.205 7.1183-.086 10.7516-3.119 3.6332-2.662 8.003.086 10.7516 2.749 2.7486 7.119 3.2056 10.752.0868 3.633 3.1188 8.003 2.6618 10.752-.0868 2.748-2.7486 3.205-7.1184.086-10.7516 3.119-3.6333 2.662-8.003-.086-10.7516z" fill="#56c1bb"/><path d="m386 95h-48v2h48z" fill="#000" fill-opacity=".1" mask="url(#m)"/><path d="m372.752 61.2484c-2.749-2.7486-7.119-3.2056-10.752-.0868-3.633-3.1188-8.003-2.6618-10.752.0868-2.748 2.7486-3.205 7.1183-.086 10.7516-3.119 3.6332-2.662 8.003.086 10.7516 2.749 2.7486 7.119 3.2056 10.752.0868 3.633 3.1188 8.003 2.6618 10.752-.0868 2.748-2.7486 3.205-7.1184.086-10.7516 3.119-3.6333 2.662-8.003-.086-10.7516z" fill="#56c1bb"/><path d="m434 95h-48v2h48z" fill="#000" fill-opacity=".1" mask="url(#n)"/><path d="m420.752 61.2484c-2.749-2.7486-7.119-3.2056-10.752-.0868-3.633-3.1188-8.003-2.6618-10.752.0868-2.748 2.7486-3.205 7.1183-.086 10.7516-3.119 3.6332-2.662 8.003.086 10.7516 2.749 2.7486 7.119 3.2056 10.752.0868 3.633 3.1188 8.003 2.6618 10.752-.0868 2.748-2.7486 3.205-7.1184.086-10.7516 3.119-3.6333 2.662-8.003-.086-10.7516z" fill="#56c1bb"/><path d="m482 95h-48v2h48z" fill="#000" fill-opacity=".1" mask="url(#o)"/><path d="m468.752 61.2484c-2.749-2.7486-7.119-3.2056-10.752-.0868-3.633-3.1188-8.003-2.6618-10.752.0868-2.748 2.7486-3.205 7.1183-.086 10.7516-3.119 3.6332-2.662 8.003.086 10.7516 2.749 2.7486 7.119 3.2056 10.752.0868 3.633 3.1188 8.003 2.6618 10.752-.0868 2.748-2.7486 3.205-7.1184.086-10.7516 3.119-3.6333 2.662-8.003-.086-10.7516z" fill="#56c1bb"/><path d="m530 95h-48v2h48z" fill="#000" fill-opacity=".1" mask="url(#p)"/><path d="m499 71h15v2h-15z" fill="#000" fill-opacity=".15"/><path d="m194 143h-194v2h194z" fill="#000" fill-opacity=".1" mask="url(#q)"/><path d="m16.154 129.296v-6.75h-7.344v-1.602h7.344v-3.996h-3.186c-.372.6-.768 1.17-1.188 1.71-.42.528-.852 1.002-1.296 1.422-.096-.108-.234-.228-.414-.36-.168-.144-.342-.282-.522-.414-.168-.132-.306-.222-.414-.27.396-.36.792-.798 1.188-1.314.408-.516.786-1.062 1.134-1.638.36-.588.672-1.164.936-1.728.276-.576.486-1.104.63-1.584l1.71.522c-.12.348-.258.696-.414 1.044-.144.336-.3.678-.468 1.026h9.72v1.584h-5.634v3.996h7.236v1.602h-7.236v6.75zm16.02.108c-.06-.192-.156-.432-.288-.72-.132-.276-.264-.504-.396-.684.852-.156 1.674-.396 2.466-.72.804-.336 1.548-.726 2.232-1.17-.588-.564-1.074-1.182-1.458-1.854-.372.42-.756.81-1.152 1.17s-.792.678-1.188.954c-.132-.168-.306-.348-.522-.54-.216-.204-.408-.366-.576-.486.504-.312 1.002-.702 1.494-1.17.504-.48.972-.99 1.404-1.53.444-.552.828-1.092 1.152-1.62-.66.048-1.266.09-1.818.126-.54.036-.954.06-1.242.072l-.27-1.44c.312 0 .684-.012 1.116-.036.444-.024.912-.048 1.404-.072.36-.324.786-.768 1.278-1.332-.3-.276-.648-.57-1.044-.882-.396-.324-.792-.63-1.188-.918s-.75-.51-1.062-.666l.954-1.134c.168.096.348.21.54.342s.39.27.594.414c.216-.252.438-.534.666-.846.228-.324.444-.648.648-.972s.372-.606.504-.846l1.332.738c-.264.408-.594.87-.99 1.386-.384.516-.75.966-1.098 1.35.204.156.402.318.594.486.204.156.384.3.54.432.372-.432.738-.87 1.098-1.314.36-.456.69-.882.99-1.278.312-.396.558-.738.738-1.026l1.332.81c-.228.324-.516.702-.864 1.134-.336.42-.708.864-1.116 1.332-.396.468-.804.93-1.224 1.386s-.816.876-1.188 1.26c.648-.06 1.278-.114 1.89-.162.624-.06 1.176-.12 1.656-.18-.168-.192-.336-.366-.504-.522-.168-.168-.324-.312-.468-.432l1.062-.936c.324.252.678.582 1.062.99.396.408.774.822 1.134 1.242s.648.792.864 1.116c-.084.048-.216.138-.396.27-.168.132-.336.264-.504.396-.156.132-.27.24-.342.324-.12-.18-.258-.372-.414-.576-.144-.216-.306-.438-.486-.666-.456.072-1.05.15-1.782.234-.72.084-1.47.162-2.25.234-.108.204-.222.414-.342.63s-.246.426-.378.63h4.194l.684.558c-.696 1.272-1.596 2.406-2.7 3.402.708.432 1.476.792 2.304 1.08s1.704.48 2.628.576c-.144.204-.288.456-.432.756-.132.3-.24.558-.324.774-.96-.156-1.908-.426-2.844-.81-.924-.372-1.776-.84-2.556-1.404-1.464 1.056-3.18 1.836-5.148 2.34zm-3.024-.234v-7.362c-.6.504-1.164.924-1.692 1.26-.048-.096-.144-.228-.288-.396-.144-.18-.294-.348-.45-.504-.156-.168-.288-.288-.396-.36.396-.228.846-.54 1.35-.936.516-.408 1.026-.852 1.53-1.332.516-.492.984-.984 1.404-1.476.432-.492.768-.948 1.008-1.368l1.332.882c-.3.456-.636.912-1.008 1.368s-.768.9-1.188 1.332v8.892zm-1.278-11.358c-.156-.216-.33-.444-.522-.684-.18-.24-.366-.432-.558-.576.516-.252 1.056-.57 1.62-.954.576-.396 1.116-.816 1.62-1.26s.924-.87 1.26-1.278l1.224.954c-.372.432-.84.894-1.404 1.386-.552.492-1.116.954-1.692 1.386s-1.092.774-1.548 1.026zm9.522 7.416c.672-.588 1.218-1.206 1.638-1.854h-3.258c.408.66.948 1.278 1.62 1.854zm19.9898 2.772v-10.638l-2.376 1.512-.81-1.296 3.546-2.214h1.17v12.636zm9.2239 0v-2.934h-5.094v-1.188l5.13-8.55h1.404v8.352h1.836v1.386h-1.836v2.934zm-3.492-4.32h3.492v-5.814zm9.3086-2.142c-.336 0-.624-.114-.864-.342-.228-.24-.342-.528-.342-.864s.114-.618.342-.846c.24-.228.528-.342.864-.342.324 0 .6.114.828.342.24.228.36.51.36.846s-.12.624-.36.864c-.228.228-.504.342-.828.342zm0 6.66c-.336 0-.624-.114-.864-.342-.228-.24-.342-.522-.342-.846 0-.336.114-.618.342-.846.24-.24.528-.36.864-.36.324 0 .6.12.828.36.24.228.36.51.36.846 0 .324-.12.606-.36.846-.228.228-.504.342-.828.342zm6.7855 0c-1.368 0-2.316-.534-2.844-1.602s-.792-2.7-.792-4.896.264-3.828.792-4.896c.528-1.08 1.476-1.62 2.844-1.62 1.356 0 2.298.54 2.826 1.62.528 1.068.792 2.7.792 4.896s-.264 3.828-.792 4.896-1.47 1.602-2.826 1.602zm0-1.494c.504 0 .906-.15 1.206-.45.312-.312.534-.834.666-1.566.144-.732.216-1.728.216-2.988 0-1.272-.072-2.274-.216-3.006-.132-.732-.354-1.248-.666-1.548-.3-.312-.702-.468-1.206-.468-.492 0-.894.156-1.206.468-.312.3-.54.816-.684 1.548s-.216 1.734-.216 3.006c0 1.26.072 2.256.216 2.988s.372 1.254.684 1.566c.312.3.714.45 1.206.45zm9.0528 1.494c-1.368 0-2.316-.534-2.844-1.602s-.792-2.7-.792-4.896.264-3.828.792-4.896c.528-1.08 1.476-1.62 2.844-1.62 1.356 0 2.298.54 2.826 1.62.528 1.068.792 2.7.792 4.896s-.264 3.828-.792 4.896-1.47 1.602-2.826 1.602zm0-1.494c.504 0 .906-.15 1.206-.45.312-.312.534-.834.666-1.566.144-.732.216-1.728.216-2.988 0-1.272-.072-2.274-.216-3.006-.132-.732-.354-1.248-.666-1.548-.3-.312-.702-.468-1.206-.468-.492 0-.894.156-1.206.468-.312.3-.54.816-.684 1.548s-.216 1.734-.216 3.006c0 1.26.072 2.256.216 2.988s.372 1.254.684 1.566c.312.3.714.45 1.206.45zm11.5236-3.546-1.062-.9c.276-.468.624-.876 1.044-1.224.4318-.348.9538-.522 1.5658-.522.312 0 .642.066.99.198.36.12.714.258 1.062.414s.678.3.99.432c.312.12.582.18.81.18.312 0 .594-.102.846-.306.252-.216.492-.492.72-.828l1.062.9c-.264.456-.612.858-1.044 1.206s-.96.522-1.584.522c-.3 0-.624-.06-.972-.18-.348-.132-.696-.276-1.044-.432s-.678-.294-.99-.414c-.312-.132-.588-.198-.828-.198-.336 0-.63.12-.882.36-.252.228-.4798.492-.6838.792zm17.2928 4.842v-10.638l-2.376 1.512-.81-1.296 3.546-2.214h1.17v12.636zm6.146 0c.084-.528.204-1.152.36-1.872.168-.72.36-1.482.576-2.286.216-.816.45-1.638.702-2.466.252-.84.51-1.65.774-2.43s.522-1.482.774-2.106h-5.202v-1.44h6.93v1.08c-.24.552-.498 1.212-.774 1.98-.264.768-.528 1.59-.792 2.466-.252.864-.498 1.734-.738 2.61-.228.864-.432 1.686-.612 2.466-.18.768-.318 1.434-.414 1.998zm7.453-6.462c-.336 0-.624-.114-.864-.342-.228-.24-.342-.528-.342-.864s.114-.618.342-.846c.24-.228.528-.342.864-.342.324 0 .6.114.828.342.24.228.36.51.36.846s-.12.624-.36.864c-.228.228-.504.342-.828.342zm0 6.66c-.336 0-.624-.114-.864-.342-.228-.24-.342-.522-.342-.846 0-.336.114-.618.342-.846.24-.24.528-.36.864-.36.324 0 .6.12.828.36.24.228.36.51.36.846 0 .324-.12.606-.36.846-.228.228-.504.342-.828.342zm6.174 0c-.852 0-1.584-.234-2.196-.702-.612-.48-1.044-1.14-1.296-1.98l1.422-.486c.072.252.192.51.36.774.168.252.39.468.666.648s.612.27 1.008.27c.72 0 1.284-.18 1.692-.54.408-.372.612-.948.612-1.728 0-.708-.222-1.278-.666-1.71-.432-.432-1.014-.648-1.746-.648h-.738v-1.422h.738c.684 0 1.2-.198 1.548-.594.36-.396.54-.9.54-1.512 0-.684-.204-1.17-.612-1.458-.396-.288-.852-.432-1.368-.432-.348 0-.648.09-.9.27s-.462.402-.63.666c-.168.252-.294.498-.378.738l-1.404-.558c.312-.84.768-1.482 1.368-1.926s1.26-.666 1.98-.666c1.056 0 1.908.3 2.556.9.66.588.99 1.392.99 2.412 0 .648-.168 1.224-.504 1.728s-.78.876-1.332 1.116c.636.228 1.152.624 1.548 1.188s.594 1.218.594 1.962c0 1.092-.33 1.98-.99 2.664-.648.684-1.602 1.026-2.862 1.026zm9.313 0c-1.368 0-2.316-.534-2.844-1.602s-.792-2.7-.792-4.896.264-3.828.792-4.896c.528-1.08 1.476-1.62 2.844-1.62 1.356 0 2.298.54 2.826 1.62.528 1.068.792 2.7.792 4.896s-.264 3.828-.792 4.896-1.47 1.602-2.826 1.602zm0-1.494c.504 0 .906-.15 1.206-.45.312-.312.534-.834.666-1.566.144-.732.216-1.728.216-2.988 0-1.272-.072-2.274-.216-3.006-.132-.732-.354-1.248-.666-1.548-.3-.312-.702-.468-1.206-.468-.492 0-.894.156-1.206.468-.312.3-.54.816-.684 1.548s-.216 1.734-.216 3.006c0 1.26.072 2.256.216 2.988s.372 1.254.684 1.566c.312.3.714.45 1.206.45z" fill="#4a4a4a"/><path d="m242 143h-48v2h48z" fill="#000" fill-opacity=".1" mask="url(#r)"/><path d="m228.752 109.248c-2.749-2.748-7.119-3.205-10.752-.086-3.633-3.119-8.003-2.662-10.752.086-2.748 2.749-3.205 7.119-.086 10.752-3.119 3.633-2.662 8.003.086 10.752 2.749 2.748 7.119 3.205 10.752.086 3.633 3.119 8.003 2.662 10.752-.086 2.748-2.749 3.205-7.119.086-10.752 3.119-3.633 2.662-8.003-.086-10.752z" fill="#56c1bb"/><path d="m290 143h-48v2h48z" fill="#000" fill-opacity=".1" mask="url(#s)"/><path d="m276.752 109.248c-2.749-2.748-7.119-3.205-10.752-.086-3.633-3.119-8.003-2.662-10.752.086-2.748 2.749-3.205 7.119-.086 10.752-3.119 3.633-2.662 8.003.086 10.752 2.749 2.748 7.119 3.205 10.752.086 3.633 3.119 8.003 2.662 10.752-.086 2.748-2.749 3.205-7.119.086-10.752 3.119-3.633 2.662-8.003-.086-10.752z" fill="#56c1bb"/><path d="m338 143h-48v2h48z" fill="#000" fill-opacity=".1" mask="url(#t)"/><path d="m307 119h15v2h-15z" fill="#000" fill-opacity=".15"/><path d="m386 143h-48v2h48z" fill="#000" fill-opacity=".1" mask="url(#u)"/><path d="m372.752 109.248c-2.749-2.748-7.119-3.205-10.752-.086-3.633-3.119-8.003-2.662-10.752.086-2.748 2.749-3.205 7.119-.086 10.752-3.119 3.633-2.662 8.003.086 10.752 2.749 2.748 7.119 3.205 10.752.086 3.633 3.119 8.003 2.662 10.752-.086 2.748-2.749 3.205-7.119.086-10.752 3.119-3.633 2.662-8.003-.086-10.752z" fill="#56c1bb"/><path d="m434 143h-48v2h48z" fill="#000" fill-opacity=".1" mask="url(#v)"/><path d="m420.752 109.248c-2.749-2.748-7.119-3.205-10.752-.086-3.633-3.119-8.003-2.662-10.752.086-2.748 2.749-3.205 7.119-.086 10.752-3.119 3.633-2.662 8.003.086 10.752 2.749 2.748 7.119 3.205 10.752.086 3.633 3.119 8.003 2.662 10.752-.086 2.748-2.749 3.205-7.119.086-10.752 3.119-3.633 2.662-8.003-.086-10.752z" fill="#56c1bb"/><g fill="#000"><path d="m482 143h-48v2h48z" fill-opacity=".1" mask="url(#w)"/><path d="m451 119h15v2h-15z" fill-opacity=".15"/><path d="m530 143h-48v2h48z" fill-opacity=".1" mask="url(#x)"/><path d="m499 119h15v2h-15z" fill-opacity=".15"/></g></svg>